{
.appVersion = "1230";
DisplayStrings = (
"oooz/Placeholder ooo\012nnnzznnn\012/l.ss01/l.ss01/l.ss01/l.ss01/l.ss01/l.ss01/l.ss01/l.ss01 z/Placeholder/l.ss01/l.ss01/l.ss01/l.ss01/l.ss01/l.ss01/l.ss01/l.ss01",
"oo Z/Placeholder ooo\012nn Zznnn\012/l.ss01/l.ss01/l.ss01/l.ss01/l.ss01  Z/Placeholder/l.ss01/l.ss01/l.ss01/l.ss01/l.ss01/l.ss01/l.ss01/l.ss01",
"OOOA/Placeholder OOO\012HHHAAHHH\012IIIIIIIIA/Placeholder IIIIIIII"
);
classes = (
{
automatic = 1;

glyphs = (
{
color = 4;
glyphname = A;
lastChange = "2019-04-17 20:45:52 +0000";
layers = (
{
anchors = (
{
name = bottom;
position = "{338, 0}";
},
{
name = ogonek;
position = "{661, 0}";
},
{
name = top;
position = "{338, 710}";
}
);
background = {
anchors = (
{
name = bottom;
position = "{338, 0}";
},
{
name = ogonek;
position = "{661, 0}";
},
{
name = top;
position = "{338, 710}";
}
);
paths = (
{
closed = 1;
nodes = (
"94 0 LINE",
"355 644 LINE",
"327 644 LINE",
"577 0 LINE",
"661 0 LINE",
"377 710 LINE",
"306 710 LINE",
"10 0 LINE"
);
},
{
closed = 1;
nodes = (
"539 188 LINE",
"511 257 LINE",
"166 257 LINE",
"140 188 LINE"
);
}
);
};
layerId = "A3B50665-EA37-4AC6-885C-1233CA61B6BD";
paths = (
{
closed = 1;
nodes = (
"94 0 LINE",
"355 644 LINE",
"327 644 LINE",
"577 0 LINE",
"661 0 LINE",
"377 710 LINE",
"306 710 LINE",
"10 0 LINE"
);
},
{
closed = 1;
nodes = (
"539 187 LINE",
"511 257 LINE",
"166 257 LINE",
"140 187 LINE"
);
}
);
width = 675;
},
{
anchors = (
{
name = bottom;
position = "{348, 0}";
},
{
name = ogonek;
position = "{712, 0}";
},
{
name = top;
position = "{348, 710}";
}
);
background = {
anchors = (
{
name = bottom;
position = "{348, 0}";
},
{
name = ogonek;
position = "{712, 0}";
},
{
name = top;
position = "{348, 710}";
}
);
paths = (
{
closed = 1;
nodes = (
"138 0 LINE",
"378 589 LINE",
"322 591 LINE",
"555 0 LINE",
"712 0 LINE",
"417 710 LINE",
"286 710 LINE",
"-21 0 LINE"
);
},
{
closed = 1;
nodes = (
"564 149 LINE",
"503 279 LINE",
"202 279 LINE",
"139 149 LINE"
);
}
);
};
layerId = "014D4A40-7C7F-4023-B30E-1F55CE5EA091";
paths = (
{
closed = 1;
nodes = (
"137 0 LINE",
"378 589 LINE",
"321 591 LINE",
"554 0 LINE",
"712 0 LINE",
"417 710 LINE",
"286 710 LINE",
"-21 0 LINE"
);
},
{
closed = 1;
nodes = (
"564 149 LINE",
"503 279 LINE",
"202 279 LINE",
"139 149 LINE"
);
}
);
width = 695;
}
);
leftKerningGroup = A;
rightKerningGroup = A;
unicode = 0041;
},
{
color = 4;
glyphname = AE;
lastChange = "2019-04-15 12:43:59 +0000";
layers = (
{
anchors = (
{
name = bottom;
position = "{487, 0}";
},
{
name = top;
position = "{487, 710}";
}
);
background = {
anchors = (
{
name = bottom;
position = "{487, 0}";
},
{
name = top;
position = "{487, 710}";
}
);
paths = (
{
closed = 1;
nodes = (
"94 0 LINE",
"365 669 LINE",
"334 640 LINE",
"476 640 LINE",
"476 710 LINE",
"306 710 LINE",
"10 0 LINE"
);
},
{
closed = 1;
nodes = (
"476 188 LINE",
"476 257 LINE",
"156 257 LINE",
"140 188 LINE"
);
},
{
closed = 1;
nodes = (
"852 710 LINE",
"446 710 LINE",
"446 0 LINE",
"859 0 LINE",
"869 71 LINE",
"527 71 LINE",
"527 325 LINE",
"842 325 LINE",
"842 395 LINE",
"527 395 LINE",
"527 640 LINE",
"852 640 LINE"
);
}
);
};
layerId = "A3B50665-EA37-4AC6-885C-1233CA61B6BD";
paths = (
{
closed = 1;
nodes = (
"94 0 LINE",
"365 669 LINE",
"334 639 LINE",
"476 639 LINE",
"476 710 LINE",
"306 710 LINE",
"10 0 LINE"
);
},
{
closed = 1;
nodes = (
"476 187 LINE",
"476 257 LINE",
"166 257 LINE",
"140 187 LINE"
);
},
{
closed = 1;
nodes = (
"852 710 LINE",
"446 710 LINE",
"446 0 LINE",
"859 0 LINE",
"866 71 LINE",
"527 71 LINE",
"527 325 LINE",
"842 325 LINE",
"842 396 LINE",
"527 396 LINE",
"527 639 LINE",
"852 639 LINE"
);
}
);
width = 899;
},
{
anchors = (
{
name = bottom;
position = "{522, 0}";
},
{
name = top;
position = "{522, 710}";
}
);
background = {
anchors = (
{
name = bottom;
position = "{522, 0}";
},
{
name = top;
position = "{522, 710}";
}
);
paths = (
{
closed = 1;
nodes = (
"138 0 LINE",
"386 609 LINE",
"340 576 LINE",
"487 576 LINE",
"487 710 LINE",
"286 710 LINE",
"-21 0 LINE"
);
},
{
closed = 1;
nodes = (
"487 147 LINE",
"487 281 LINE",
"202 281 LINE",
"139 147 LINE"
);
},
{
closed = 1;
nodes = (
"915 710 LINE",
"445 710 LINE",
"445 0 LINE",
"915 0 LINE",
"925 135 LINE",
"599 135 LINE",
"599 291 LINE",
"895 291 LINE",
"895 425 LINE",
"599 425 LINE",
"599 576 LINE",
"915 576 LINE"
);
}
);
};
layerId = "014D4A40-7C7F-4023-B30E-1F55CE5EA091";
paths = (
{
closed = 1;
nodes = (
"138 0 LINE",
"386 609 LINE",
"340 576 LINE",
"487 576 LINE",
"487 710 LINE",
"286 710 LINE",
"-21 0 LINE"
);
},
{
closed = 1;
nodes = (
"487 147 LINE",
"487 281 LINE",
"202 281 LINE",
"139 147 LINE"
);
},
{
closed = 1;
nodes = (
"915 710 LINE",
"445 710 LINE",
"445 0 LINE",
"915 0 LINE",
"925 134 LINE",
"599 134 LINE",
"599 291 LINE",
"895 291 LINE",
"895 425 LINE",
"599 425 LINE",
"599 576 LINE",
"915 576 LINE"
);
}
);
width = 943;
}
);
leftKerningGroup = A;
leftMetricsKey = A;
rightKerningGroup = E;
rightMetricsKey = E;
unicode = 00C6;
},
{
color = 4;
glyphname = B;
lastChange = "2019-04-15 12:39:33 +0000";
layers = (
{
anchors = (
{
name = bottom;
position = "{334, 0}";
},
{
name = top;
position = "{333, 712}";
}
);
background = {
anchors = (
{
name = bottom;
position = "{334, 0}";
},
{
name = top;
position = "{333, 712}";
}
);
paths = (
{
closed = 1;
nodes = (
"326 0 LINE SMOOTH",
"473 0 OFFCURVE",
"564 69 OFFCURVE",
"564 196 CURVE SMOOTH",
"564 281 OFFCURVE",
"505 349 OFFCURVE",
"414 367 CURVE",
"414 353 LINE",
"506 374 OFFCURVE",
"556 439 OFFCURVE",
"556 521 CURVE SMOOTH",
"556 643 OFFCURVE",
"460 710 OFFCURVE",
"263 710 CURVE SMOOTH",
"81 710 LINE",
"81 0 LINE"
);
},
{
closed = 1;
nodes = (
"162 642 LINE",
"259 642 LINE SMOOTH",
"413 642 OFFCURVE",
"475 606 OFFCURVE",
"475 520 CURVE SMOOTH",
"475 432 OFFCURVE",
"412 392 OFFCURVE",
"289 392 CURVE SMOOTH",
"148 392 LINE",
"148 323 LINE",
"316 323 LINE SMOOTH",
"426 323 OFFCURVE",
"483 280 OFFCURVE",
"483 194 CURVE SMOOTH",
"483 106 OFFCURVE",
"421 69 OFFCURVE",
"324 69 CURVE SMOOTH",
"162 69 LINE"
);
}
);
};
layerId = "A3B50665-EA37-4AC6-885C-1233CA61B6BD";
paths = (
{
closed = 1;
nodes = (
"327 0 LINE SMOOTH",
"474 0 OFFCURVE",
"565 69 OFFCURVE",
"565 196 CURVE SMOOTH",
"565 281 OFFCURVE",
"506 349 OFFCURVE",
"412 367 CURVE",
"412 353 LINE",
"506 374 OFFCURVE",
"557 439 OFFCURVE",
"557 521 CURVE SMOOTH",
"557 643 OFFCURVE",
"468 710 OFFCURVE",
"271 710 CURVE SMOOTH",
"81 710 LINE",
"81 0 LINE"
);
},
{
closed = 1;
nodes = (
"162 642 LINE",
"272 642 LINE SMOOTH",
"413 642 OFFCURVE",
"475 605 OFFCURVE",
"475 520 CURVE SMOOTH",
"475 432 OFFCURVE",
"412 392 OFFCURVE",
"289 392 CURVE SMOOTH",
"148 392 LINE",
"148 323 LINE",
"316 323 LINE SMOOTH",
"426 323 OFFCURVE",
"483 280 OFFCURVE",
"483 194 CURVE SMOOTH",
"483 106 OFFCURVE",
"421 68 OFFCURVE",
"324 68 CURVE SMOOTH",
"162 68 LINE"
);
}
);
width = 613;
},
{
anchors = (
{
name = bottom;
position = "{350, 0}";
},
{
name = top;
position = "{350, 712}";
}
);
background = {
anchors = (
{
name = bottom;
position = "{350, 0}";
},
{
name = top;
position = "{350, 712}";
}
);
paths = (
{
closed = 1;
nodes = (
"360 0 LINE SMOOTH",
"518 0 OFFCURVE",
"619 84 OFFCURVE",
"619 207 CURVE SMOOTH",
"619 290 OFFCURVE",
"566 355 OFFCURVE",
"487 375 CURVE",
"487 351 LINE",
"559 377 OFFCURVE",
"606 437 OFFCURVE",
"606 513 CURVE SMOOTH",
"606 643 OFFCURVE",
"499 710 OFFCURVE",
"323 710 CURVE SMOOTH",
"68 710 LINE",
"68 0 LINE"
);
},
{
closed = 1;
nodes = (
"221 583 LINE",
"322 583 LINE SMOOTH",
"414 583 OFFCURVE",
"451 557 OFFCURVE",
"451 505 CURVE SMOOTH",
"451 446 OFFCURVE",
"409 421 OFFCURVE",
"320 421 CURVE SMOOTH",
"205 421 LINE",
"205 294 LINE",
"347 294 LINE SMOOTH",
"429 294 OFFCURVE",
"464 268 OFFCURVE",
"464 213 CURVE SMOOTH",
"464 153 OFFCURVE",
"420 128 OFFCURVE",
"347 128 CURVE SMOOTH",
"221 128 LINE"
);
}
);
};
layerId = "014D4A40-7C7F-4023-B30E-1F55CE5EA091";
paths = (
{
closed = 1;
nodes = (
"350 0 LINE SMOOTH",
"518 0 OFFCURVE",
"619 84 OFFCURVE",
"619 207 CURVE SMOOTH",
"619 290 OFFCURVE",
"566 351 OFFCURVE",
"491 371 CURVE",
"491 347 LINE",
"563 373 OFFCURVE",
"606 437 OFFCURVE",
"606 513 CURVE SMOOTH",
"606 643 OFFCURVE",
"500 710 OFFCURVE",
"330 710 CURVE SMOOTH",
"68 710 LINE",
"68 0 LINE"
);
},
{
closed = 1;
nodes = (
"221 583 LINE",
"332 583 LINE SMOOTH",
"414 583 OFFCURVE",
"451 557 OFFCURVE",
"451 505 CURVE SMOOTH",
"451 446 OFFCURVE",
"409 421 OFFCURVE",
"320 421 CURVE SMOOTH",
"205 421 LINE",
"205 294 LINE",
"347 294 LINE SMOOTH",
"429 294 OFFCURVE",
"464 268 OFFCURVE",
"464 213 CURVE SMOOTH",
"464 153 OFFCURVE",
"420 127 OFFCURVE",
"347 127 CURVE SMOOTH",
"221 127 LINE"
);
}
);
width = 644;
}
);
leftKerningGroup = H;
leftMetricsKey = H;
rightKerningGroup = B;
unicode = 0042;
},
{
color = 4;
glyphname = C;
lastChange = "2019-04-15 12:43:40 +0000";
layers = (
{
anchors = (
{
name = bottom;
position = "{386, 0}";
},
{
name = top;
position = "{386, 710}";
}
);
background = {
anchors = (
{
name = bottom;
position = "{374, 0}";
},
{
name = top;
position = "{374, 710}";
}
);
paths = (
{
closed = 1;
nodes = (
"586 184 LINE",
"545 108 OFFCURVE",
"475 70 OFFCURVE",
"383 70 CURVE SMOOTH",
"231 70 OFFCURVE",
"141 169 OFFCURVE",
"141 342 CURVE SMOOTH",
"141 521 OFFCURVE",
"247 643 OFFCURVE",
"398 643 CURVE SMOOTH",
"483 643 OFFCURVE",
"546 609 OFFCURVE",
"586 537 CURVE",
"650 585 LINE",
"598 674 OFFCURVE",
"513 720 OFFCURVE",
"402 720 CURVE SMOOTH",
"197 720 OFFCURVE",
"56 566 OFFCURVE",
"56 342 CURVE SMOOTH",
"56 124 OFFCURVE",
"180 -8 OFFCURVE",
"383 -8 CURVE SMOOTH",
"501 -8 OFFCURVE",
"597 43 OFFCURVE",
"649 136 CURVE"
);
}
);
};
guideLines = (
{
angle = 90;
position = "{743, 356}";
},
{
angle = 90;
position = "{806, 356}";
}
);
layerId = "A3B50665-EA37-4AC6-885C-1233CA61B6BD";
paths = (
{
closed = 1;
nodes = (
"586 184 LINE",
"545 108 OFFCURVE",
"475 68 OFFCURVE",
"383 68 CURVE SMOOTH",
"231 68 OFFCURVE",
"141 169 OFFCURVE",
"141 342 CURVE SMOOTH",
"141 521 OFFCURVE",
"247 644 OFFCURVE",
"398 644 CURVE SMOOTH",
"483 644 OFFCURVE",
"546 609 OFFCURVE",
"586 537 CURVE",
"650 585 LINE",
"598 674 OFFCURVE",
"512 720 OFFCURVE",
"400 720 CURVE SMOOTH",
"196 720 OFFCURVE",
"57 566 OFFCURVE",
"57 342 CURVE SMOOTH",
"57 124 OFFCURVE",
"180 -8 OFFCURVE",
"383 -8 CURVE SMOOTH",
"501 -8 OFFCURVE",
"597 43 OFFCURVE",
"649 136 CURVE"
);
}
);
width = 650;
},
{
anchors = (
{
name = bottom;
position = "{392, 0}";
},
{
name = top;
position = "{392, 710}";
}
);
background = {
paths = (
{
closed = 1;
nodes = (
"595 -8 OFFCURVE",
"742 139 OFFCURVE",
"742 369 CURVE SMOOTH",
"742 580 OFFCURVE",
"607 720 OFFCURVE",
"406 720 CURVE SMOOTH",
"179 720 OFFCURVE",
"38 564 OFFCURVE",
"38 342 CURVE SMOOTH",
"38 120 OFFCURVE",
"171 -12 OFFCURVE",
"393 -10 CURVE SMOOTH"
);
},
{
closed = 1;
nodes = (
"268 129 OFFCURVE",
"196 207 OFFCURVE",
"196 345 CURVE SMOOTH",
"196 486 OFFCURVE",
"282 582 OFFCURVE",
"402 582 CURVE SMOOTH",
"513 582 OFFCURVE",
"584 497 OFFCURVE",
"584 368 CURVE SMOOTH",
"584 217 OFFCURVE",
"503 129 OFFCURVE",
"387 129 CURVE SMOOTH"
);
}
);
};
layerId = "014D4A40-7C7F-4023-B30E-1F55CE5EA091";
paths = (
{
closed = 1;
nodes = (
"573 229 LINE",
"535 161 OFFCURVE",
"468 129 OFFCURVE",
"401 129 CURVE SMOOTH",
"272 129 OFFCURVE",
"197 208 OFFCURVE",
"197 344 CURVE SMOOTH",
"197 484 OFFCURVE",
"285 581 OFFCURVE",
"413 581 CURVE SMOOTH",
"476 581 OFFCURVE",
"537 554 OFFCURVE",
"571 491 CURVE",
"690 576 LINE",
"628 673 OFFCURVE",
"542 720 OFFCURVE",
"414 720 CURVE SMOOTH",
"191 720 OFFCURVE",
"38 566 OFFCURVE",
"38 341 CURVE SMOOTH",
"38 122 OFFCURVE",
"172 -10 OFFCURVE",
"399 -10 CURVE SMOOTH",
"524 -10 OFFCURVE",
"631 43 OFFCURVE",
"689 139 CURVE"
);
}
);
width = 677;
}
);
leftKerningGroup = O;
leftMetricsKey = O;
rightKerningGroup = C;
unicode = 0043;
},
{
color = 4;
glyphname = D;
lastChange = "2019-04-15 12:37:29 +0000";
layers = (
{
anchors = (
{
name = bottom;
position = "{364, 0}";
},
{
name = center;
position = "{364, 359}";
},
{
name = stroke;
position = "{123, 360}";
},
{
name = top;
position = "{364, 710}";
}
);
background = {
anchors = (
{
name = bottom;
position = "{364, 0}";
},
{
name = center;
position = "{364, 359}";
},
{
name = stroke;
position = "{123, 360}";
},
{
name = top;
position = "{364, 710}";
}
);
paths = (
{
closed = 1;
nodes = (
"293 0 LINE SMOOTH",
"534 0 OFFCURVE",
"676 136 OFFCURVE",
"676 359 CURVE SMOOTH",
"676 591 OFFCURVE",
"540 710 OFFCURVE",
"264 710 CURVE SMOOTH",
"81 710 LINE",
"81 0 LINE"
);
},
{
closed = 1;
nodes = (
"164 635 LINE",
"277 635 LINE SMOOTH",
"491 635 OFFCURVE",
"593 544 OFFCURVE",
"593 354 CURVE SMOOTH",
"593 170 OFFCURVE",
"490 76 OFFCURVE",
"289 76 CURVE SMOOTH",
"164 76 LINE"
);
}
);
};
layerId = "A3B50665-EA37-4AC6-885C-1233CA61B6BD";
paths = (
{
closed = 1;
nodes = (
"293 0 LINE SMOOTH",
"533 0 OFFCURVE",
"677 135 OFFCURVE",
"677 359 CURVE SMOOTH",
"677 592 OFFCURVE",
"538 710 OFFCURVE",
"264 710 CURVE SMOOTH",
"81 710 LINE",
"81 0 LINE"
);
},
{
closed = 1;
nodes = (
"164 637 LINE",
"277 637 LINE SMOOTH",
"491 637 OFFCURVE",
"593 544 OFFCURVE",
"593 354 CURVE SMOOTH",
"593 170 OFFCURVE",
"490 73 OFFCURVE",
"289 73 CURVE SMOOTH",
"164 73 LINE"
);
}
);
width = 734;
},
{
anchors = (
{
name = bottom;
position = "{375, 0}";
},
{
name = center;
position = "{375, 359}";
},
{
name = stroke;
position = "{146, 360}";
},
{
name = top;
position = "{375, 710}";
}
);
background = {
anchors = (
{
name = bottom;
position = "{375, 0}";
},
{
name = center;
position = "{375, 359}";
},
{
name = stroke;
position = "{146, 360}";
},
{
name = top;
position = "{375, 710}";
}
);
paths = (
{
closed = 1;
nodes = (
"337 0 LINE SMOOTH",
"568 0 OFFCURVE",
"718 146 OFFCURVE",
"718 357 CURVE SMOOTH",
"718 589 OFFCURVE",
"574 710 OFFCURVE",
"294 710 CURVE SMOOTH",
"68 710 LINE",
"68 0 LINE"
);
},
{
closed = 1;
nodes = (
"224 573 LINE",
"314 573 LINE SMOOTH",
"476 573 OFFCURVE",
"559 503 OFFCURVE",
"559 352 CURVE SMOOTH",
"559 210 OFFCURVE",
"477 139 OFFCURVE",
"330 139 CURVE SMOOTH",
"224 139 LINE"
);
}
);
};
layerId = "014D4A40-7C7F-4023-B30E-1F55CE5EA091";
paths = (
{
closed = 1;
nodes = (
"336 0 LINE SMOOTH",
"563 0 OFFCURVE",
"717 145 OFFCURVE",
"717 357 CURVE SMOOTH",
"717 590 OFFCURVE",
"573 710 OFFCURVE",
"294 710 CURVE SMOOTH",
"68 710 LINE",
"68 0 LINE"
);
},
{
closed = 1;
nodes = (
"224 572 LINE",
"314 572 LINE SMOOTH",
"480 572 OFFCURVE",
"559 501 OFFCURVE",
"559 352 CURVE SMOOTH",
"559 212 OFFCURVE",
"479 138 OFFCURVE",
"330 138 CURVE SMOOTH",
"224 138 LINE"
);
}
);
width = 755;
}
);
leftKerningGroup = H;
leftMetricsKey = H;
rightKerningGroup = O;
rightMetricsKey = O;
unicode = 0044;
},
{
color = 4;
glyphname = E;
lastChange = "2019-04-15 12:43:56 +0000";
layers = (
{
anchors = (
{
name = bottom;
position = "{289, 0}";
},
{
name = ogonek;
position = "{504, 0}";
},
{
name = top;
position = "{289, 710}";
},
{
name = topleft;
position = "{7, 710}";
}
);
background = {
anchors = (
{
name = bottom;
position = "{270, 0}";
},
{
name = ogonek;
position = "{504, 0}";
},
{
name = top;
position = "{270, 710}";
},
{
name = topleft;
position = "{7, 710}";
}
);
paths = (
{
closed = 1;
nodes = (
"497 710 LINE",
"81 710 LINE",
"81 0 LINE",
"504 0 LINE",
"514 71 LINE",
"162 71 LINE",
"162 325 LINE",
"487 325 LINE",
"487 395 LINE",
"162 395 LINE",
"162 640 LINE",
"497 640 LINE"
);
}
);
};
layerId = "A3B50665-EA37-4AC6-885C-1233CA61B6BD";
paths = (
{
closed = 1;
nodes = (
"497 710 LINE",
"81 710 LINE",
"81 0 LINE",
"504 0 LINE",
"511 71 LINE",
"162 71 LINE",
"162 325 LINE",
"487 325 LINE",
"487 396 LINE",
"162 396 LINE",
"162 639 LINE",
"497 639 LINE"
);
}
);
width = 544;
},
{
anchors = (
{
name = bottom;
position = "{308, 0}";
},
{
name = ogonek;
position = "{548, 0}";
},
{
name = top;
position = "{308, 710}";
},
{
name = topleft;
position = "{12, 710}";
}
);
background = {
anchors = (
{
name = bottom;
position = "{296, 0}";
},
{
name = ogonek;
position = "{548, 0}";
},
{
name = top;
position = "{296, 710}";
},
{
name = topleft;
position = "{12, 710}";
}
);
paths = (
{
closed = 1;
nodes = (
"548 710 LINE",
"68 710 LINE",
"68 0 LINE",
"548 0 LINE",
"558 135 LINE",
"222 135 LINE",
"222 291 LINE",
"528 291 LINE",
"528 425 LINE",
"222 425 LINE",
"222 576 LINE",
"548 576 LINE"
);
}
);
};
layerId = "014D4A40-7C7F-4023-B30E-1F55CE5EA091";
paths = (
{
closed = 1;
nodes = (
"548 710 LINE",
"68 710 LINE",
"68 0 LINE",
"548 0 LINE",
"558 134 LINE",
"221 134 LINE",
"221 291 LINE",
"528 291 LINE",
"528 425 LINE",
"221 425 LINE",
"221 576 LINE",
"548 576 LINE"
);
}
);
width = 576;
}
);
leftKerningGroup = H;
leftMetricsKey = H;
rightKerningGroup = E;
unicode = 0045;
},
{
color = 4;
glyphname = F;
lastChange = "2019-04-15 12:44:25 +0000";
layers = (
{
anchors = (
{
name = bottom;
position = "{279, 0}";
},
{
name = top;
position = "{279, 710}";
}
);
background = {
anchors = (
{
name = bottom;
position = "{249, 0}";
},
{
name = top;
position = "{249, 710}";
}
);
paths = (
{
closed = 1;
nodes = (
"477 710 LINE",
"81 710 LINE",
"81 0 LINE",
"162 0 LINE",
"162 315 LINE",
"467 315 LINE",
"467 385 LINE",
"162 385 LINE",
"162 640 LINE",
"477 640 LINE"
);
}
);
};
layerId = "A3B50665-EA37-4AC6-885C-1233CA61B6BD";
paths = (
{
closed = 1;
nodes = (
"477 710 LINE",
"81 710 LINE",
"81 0 LINE",
"162 0 LINE",
"162 314 LINE",
"467 314 LINE",
"467 385 LINE",
"162 385 LINE",
"162 639 LINE",
"477 639 LINE"
);
}
);
width = 487;
},
{
anchors = (
{
name = bottom;
position = "{297, 0}";
},
{
name = top;
position = "{297, 710}";
}
);
background = {
anchors = (
{
name = bottom;
position = "{279, 0}";
},
{
name = top;
position = "{279, 710}";
}
);
paths = (
{
closed = 1;
nodes = (
"525 710 LINE",
"68 710 LINE",
"68 0 LINE",
"222 0 LINE",
"222 281 LINE",
"505 281 LINE",
"505 415 LINE",
"222 415 LINE",
"222 576 LINE",
"525 576 LINE"
);
}
);
};
layerId = "014D4A40-7C7F-4023-B30E-1F55CE5EA091";
paths = (
{
closed = 1;
nodes = (
"525 710 LINE",
"68 710 LINE",
"68 0 LINE",
"221 0 LINE",
"221 281 LINE",
"505 281 LINE",
"505 415 LINE",
"221 415 LINE",
"221 576 LINE",
"525 576 LINE"
);
}
);
width = 528;
}
);
leftKerningGroup = H;
leftMetricsKey = H;
rightKerningGroup = F;
unicode = 0046;
},
{
color = 4;
glyphname = G;
lastChange = "2019-04-15 13:25:05 +0000";
layers = (
{
anchors = (
{
name = bottom;
position = "{386, 0}";
},
{
name = top;
position = "{386, 710}";
}
);
background = {
anchors = (
{
name = bottom;
position = "{1184, 0}";
},
{
name = top;
position = "{1184, 710}";
}
);
paths = (
{
closed = 1;
nodes = (
"1218 279 LINE",
"1414 279 LINE",
"1391 324 LINE",
"1390 248 LINE SMOOTH",
"1389 136 OFFCURVE",
"1307 68 OFFCURVE",
"1180 68 CURVE SMOOTH",
"1033 68 OFFCURVE",
"941 166 OFFCURVE",
"941 342 CURVE SMOOTH",
"941 519 OFFCURVE",
"1052 643 OFFCURVE",
"1207 643 CURVE SMOOTH",
"1296 643 OFFCURVE",
"1360 608 OFFCURVE",
"1399 537 CURVE",
"1463 585 LINE",
"1411 674 OFFCURVE",
"1325 720 OFFCURVE",
"1211 720 CURVE SMOOTH",
"1004 720 OFFCURVE",
"857 566 OFFCURVE",
"857 342 CURVE SMOOTH",
"857 123 OFFCURVE",
"976 -8 OFFCURVE",
"1174 -8 CURVE SMOOTH",
"1287 -8 OFFCURVE",
"1364 32 OFFCURVE",
"1410 117 CURVE",
"1391 117 LINE",
"1404 0 LINE",
"1469 0 LINE",
"1469 347 LINE",
"1218 347 LINE"
);
},
{
closed = 1;
nodes = (
"587 184 LINE",
"546 108 OFFCURVE",
"476 69 OFFCURVE",
"384 69 CURVE SMOOTH",
"232 69 OFFCURVE",
"142 169 OFFCURVE",
"142 342 CURVE SMOOTH",
"142 521 OFFCURVE",
"248 643 OFFCURVE",
"399 643 CURVE SMOOTH",
"484 643 OFFCURVE",
"547 609 OFFCURVE",
"587 537 CURVE",
"651 585 LINE",
"599 674 OFFCURVE",
"513 720 OFFCURVE",
"401 720 CURVE SMOOTH",
"197 720 OFFCURVE",
"57 566 OFFCURVE",
"57 342 CURVE SMOOTH",
"57 124 OFFCURVE",
"181 -8 OFFCURVE",
"384 -8 CURVE SMOOTH",
"502 -8 OFFCURVE",
"598 43 OFFCURVE",
"650 136 CURVE"
);
}
);
};
guideLines = (
{
angle = 90;
position = "{744, 356}";
},
{
angle = 90;
position = "{807, 356}";
}
);
layerId = "A3B50665-EA37-4AC6-885C-1233CA61B6BD";
paths = (
{
closed = 1;
nodes = (
"418 279 LINE",
"614 279 LINE",
"590 324 LINE",
"590 248 LINE SMOOTH",
"590 136 OFFCURVE",
"507 68 OFFCURVE",
"380 68 CURVE SMOOTH",
"232 68 OFFCURVE",
"142 166 OFFCURVE",
"142 342 CURVE SMOOTH",
"142 521 OFFCURVE",
"248 643 OFFCURVE",
"407 643 CURVE SMOOTH",
"496 643 OFFCURVE",
"560 608 OFFCURVE",
"599 537 CURVE",
"663 585 LINE",
"611 674 OFFCURVE",
"525 720 OFFCURVE",
"411 720 CURVE SMOOTH",
"197 720 OFFCURVE",
"57 566 OFFCURVE",
"57 342 CURVE SMOOTH",
"57 123 OFFCURVE",
"181 -8 OFFCURVE",
"374 -8 CURVE SMOOTH",
"487 -8 OFFCURVE",
"564 32 OFFCURVE",
"610 117 CURVE",
"592 117 LINE",
"605 0 LINE",
"669 0 LINE",
"669 347 LINE",
"418 347 LINE"
);
}
);
width = 730;
},
{
anchors = (
{
name = bottom;
position = "{392, 0}";
},
{
name = top;
position = "{392, 710}";
}
);
background = {
anchors = (
{
name = bottom;
position = "{1198, 0}";
},
{
name = top;
position = "{1198, 710}";
}
);
paths = (
{
closed = 1;
nodes = (
"1220 256 LINE",
"1398 256 LINE",
"1369 335 LINE",
"1368 264 LINE SMOOTH",
"1367 173 OFFCURVE",
"1275 131 OFFCURVE",
"1199 131 CURVE SMOOTH",
"1068 131 OFFCURVE",
"1000 208 OFFCURVE",
"1000 344 CURVE SMOOTH",
"1000 487 OFFCURVE",
"1091 579 OFFCURVE",
"1230 579 CURVE SMOOTH",
"1296 579 OFFCURVE",
"1360 552 OFFCURVE",
"1394 491 CURVE",
"1511 578 LINE",
"1449 673 OFFCURVE",
"1360 720 OFFCURVE",
"1231 720 CURVE SMOOTH",
"998 720 OFFCURVE",
"838 569 OFFCURVE",
"838 341 CURVE SMOOTH",
"838 122 OFFCURVE",
"963 -10 OFFCURVE",
"1181 -10 CURVE SMOOTH",
"1272 -10 OFFCURVE",
"1361 24 OFFCURVE",
"1402 95 CURVE",
"1380 95 LINE",
"1395 0 LINE",
"1518 0 LINE",
"1518 382 LINE",
"1220 382 LINE"
);
},
{
closed = 1;
nodes = (
"573 231 LINE",
"535 163 OFFCURVE",
"468 131 OFFCURVE",
"401 131 CURVE SMOOTH",
"275 131 OFFCURVE",
"200 208 OFFCURVE",
"200 344 CURVE SMOOTH",
"200 484 OFFCURVE",
"288 579 OFFCURVE",
"413 579 CURVE SMOOTH",
"476 579 OFFCURVE",
"537 552 OFFCURVE",
"571 489 CURVE",
"689 576 LINE",
"627 673 OFFCURVE",
"541 720 OFFCURVE",
"414 720 CURVE SMOOTH",
"191 720 OFFCURVE",
"38 566 OFFCURVE",
"38 341 CURVE SMOOTH",
"38 122 OFFCURVE",
"172 -10 OFFCURVE",
"399 -10 CURVE SMOOTH",
"523 -10 OFFCURVE",
"630 43 OFFCURVE",
"688 139 CURVE"
);
}
);
};
layerId = "014D4A40-7C7F-4023-B30E-1F55CE5EA091";
paths = (
{
closed = 1;
nodes = (
"420 256 LINE",
"598 256 LINE",
"568 335 LINE",
"568 264 LINE SMOOTH",
"568 173 OFFCURVE",
"475 130 OFFCURVE",
"399 130 CURVE SMOOTH",
"275 130 OFFCURVE",
"200 208 OFFCURVE",
"200 344 CURVE SMOOTH",
"200 484 OFFCURVE",
"288 579 OFFCURVE",
"430 579 CURVE SMOOTH",
"496 579 OFFCURVE",
"560 552 OFFCURVE",
"594 491 CURVE",
"713 578 LINE",
"651 673 OFFCURVE",
"562 720 OFFCURVE",
"431 720 CURVE SMOOTH",
"191 720 OFFCURVE",
"38 566 OFFCURVE",
"38 341 CURVE SMOOTH",
"38 122 OFFCURVE",
"172 -10 OFFCURVE",
"381 -10 CURVE SMOOTH",
"472 -10 OFFCURVE",
"557 17 OFFCURVE",
"602 93 CURVE",
"579 95 LINE",
"595 0 LINE",
"718 0 LINE",
"718 382 LINE",
"420 382 LINE"
);
}
);
width = 764;
}
);
leftKerningGroup = O;
leftMetricsKey = O;
rightKerningGroup = G;
unicode = 0047;
},
{
color = 4;
glyphname = H;
lastChange = "2019-04-15 12:36:04 +0000";
layers = (
{
anchors = (
{
name = bottom;
position = "{360, 0}";
},
{
name = center;
position = "{360, 570}";
},
{
name = top;
position = "{360, 710}";
},
{
name = topleft;
position = "{7, 710}";
}
);
background = {
anchors = (
{
name = bottom;
position = "{360, 0}";
},
{
name = center;
position = "{360, 570}";
},
{
name = top;
position = "{360, 710}";
},
{
name = topleft;
position = "{7, 710}";
}
);
paths = (
{
closed = 1;
nodes = (
"639 0 LINE",
"639 710 LINE",
"556 710 LINE",
"556 0 LINE"
);
},
{
closed = 1;
nodes = (
"164 0 LINE",
"164 710 LINE",
"81 710 LINE",
"81 0 LINE"
);
},
{
closed = 1;
nodes = (
"605 324 LINE",
"605 396 LINE",
"124 396 LINE",
"124 324 LINE"
);
}
);
};
layerId = "A3B50665-EA37-4AC6-885C-1233CA61B6BD";
paths = (
{
closed = 1;
nodes = (
"639 0 LINE",
"639 710 LINE",
"556 710 LINE",
"556 0 LINE"
);
},
{
closed = 1;
nodes = (
"164 0 LINE",
"164 710 LINE",
"81 710 LINE",
"81 0 LINE"
);
},
{
closed = 1;
nodes = (
"605 324 LINE",
"605 397 LINE",
"124 397 LINE",
"124 324 LINE"
);
}
);
width = 720;
},
{
anchors = (
{
name = bottom;
position = "{377, 0}";
},
{
name = center;
position = "{377, 570}";
},
{
name = top;
position = "{377, 710}";
},
{
name = topleft;
position = "{12, 710}";
}
);
background = {
anchors = (
{
name = bottom;
position = "{377, 0}";
},
{
name = center;
position = "{377, 570}";
},
{
name = top;
position = "{377, 710}";
},
{
name = topleft;
position = "{12, 710}";
}
);
paths = (
{
closed = 1;
nodes = (
"686 0 LINE",
"686 710 LINE",
"530 710 LINE",
"530 0 LINE"
);
},
{
closed = 1;
nodes = (
"224 0 LINE",
"224 710 LINE",
"68 710 LINE",
"68 0 LINE"
);
},
{
closed = 1;
nodes = (
"626 290 LINE",
"626 426 LINE",
"136 426 LINE",
"136 290 LINE"
);
}
);
};
layerId = "014D4A40-7C7F-4023-B30E-1F55CE5EA091";
paths = (
{
closed = 1;
nodes = (
"686 0 LINE",
"686 710 LINE",
"530 710 LINE",
"530 0 LINE"
);
},
{
closed = 1;
nodes = (
"224 0 LINE",
"224 710 LINE",
"68 710 LINE",
"68 0 LINE"
);
},
{
closed = 1;
nodes = (
"626 290 LINE",
"626 426 LINE",
"136 426 LINE",
"136 290 LINE"
);
}
);
width = 754;
}
);
leftKerningGroup = H;
rightKerningGroup = H;
rightMetricsKey = "=|";
unicode = 0048;
},
{
color = 4;
glyphname = I;
lastChange = "2019-04-15 13:25:13 +0000";
layers = (
{
anchors = (
{
name = bottom;
position = "{123, 0}";
},
{
name = ogonek;
position = "{164, 0}";
},
{
name = top;
position = "{123, 710}";
},
{
name = topleft;
position = "{7, 710}";
}
);
background = {
anchors = (
{
name = bottom;
position = "{123, 0}";
},
{
name = ogonek;
position = "{164, 0}";
},
{
name = top;
position = "{123, 710}";
},
{
name = topleft;
position = "{7, 710}";
}
);
paths = (
{
closed = 1;
nodes = (
"164 0 LINE",
"164 710 LINE",
"81 710 LINE",
"81 0 LINE"
);
}
);
};
layerId = "A3B50665-EA37-4AC6-885C-1233CA61B6BD";
paths = (
{
closed = 1;
nodes = (
"164 0 LINE",
"164 710 LINE",
"81 710 LINE",
"81 0 LINE"
);
}
);
width = 245;
},
{
anchors = (
{
name = bottom;
position = "{146, 0}";
},
{
name = ogonek;
position = "{224, 0}";
},
{
name = top;
position = "{146, 710}";
},
{
name = topleft;
position = "{12, 710}";
}
);
background = {
anchors = (
{
name = bottom;
position = "{146, 0}";
},
{
name = ogonek;
position = "{224, 0}";
},
{
name = top;
position = "{146, 710}";
},
{
name = topleft;
position = "{12, 710}";
}
);
paths = (
{
closed = 1;
nodes = (
"224 0 LINE",
"224 710 LINE",
"68 710 LINE",
"68 0 LINE"
);
}
);
};
layerId = "014D4A40-7C7F-4023-B30E-1F55CE5EA091";
paths = (
{
closed = 1;
nodes = (
"224 0 LINE",
"224 710 LINE",
"68 710 LINE",
"68 0 LINE"
);
}
);
width = 292;
}
);
leftKerningGroup = H;
leftMetricsKey = H;
rightKerningGroup = H;
rightMetricsKey = H;
unicode = 0049;
},
{
color = 4;
glyphname = I_J.loclNLD;
lastChange = "2019-04-15 14:15:25 +0000";
layers = (
{
anchors = (
{
name = top_1;
position = "{123, 710}";
},
{
name = top_2;
position = "{521, 710}";
}
);
background = {
anchors = (
{
name = top_1;
position = "{123, 710}";
},
{
name = top_2;
position = "{521, 710}";
}
);
paths = (
{
closed = 1;
nodes = (
"483 -8 OFFCURVE",
"562 98 OFFCURVE",
"562 259 CURVE SMOOTH",
"562 710 LINE",
"479 710 LINE",
"479 255 LINE SMOOTH",
"479 139 OFFCURVE",
"431 65 OFFCURVE",
"317 65 CURVE SMOOTH",
"224 65 OFFCURVE",
"166 104 OFFCURVE",
"140 179 CURVE",
"72 149 LINE",
"96 55 OFFCURVE",
"188 -8 OFFCURVE",
"313 -8 CURVE SMOOTH"
);
},
{
closed = 1;
nodes = (
"164 310 LINE",
"164 710 LINE",
"81 710 LINE",
"81 310 LINE"
);
}
);
};
layerId = "A3B50665-EA37-4AC6-885C-1233CA61B6BD";
paths = (
{
closed = 1;
nodes = (
"483 -8 OFFCURVE",
"562 98 OFFCURVE",
"562 259 CURVE SMOOTH",
"562 710 LINE",
"479 710 LINE",
"479 255 LINE SMOOTH",
"479 139 OFFCURVE",
"431 65 OFFCURVE",
"316 65 CURVE SMOOTH",
"224 65 OFFCURVE",
"166 104 OFFCURVE",
"140 179 CURVE",
"72 149 LINE",
"96 55 OFFCURVE",
"188 -8 OFFCURVE",
"314 -8 CURVE SMOOTH"
);
},
{
closed = 1;
nodes = (
"164 310 LINE",
"164 710 LINE",
"81 710 LINE",
"81 310 LINE"
);
}
);
width = 640;
},
{
anchors = (
{
name = top_1;
position = "{146, 710}";
},
{
name = top_2;
position = "{536, 710}";
}
);
background = {
anchors = (
{
name = top_1;
position = "{146, 710}";
},
{
name = top_2;
position = "{536, 710}";
}
);
paths = (
{
closed = 1;
nodes = (
"511 -10 OFFCURVE",
"614 97 OFFCURVE",
"614 278 CURVE SMOOTH",
"614 710 LINE",
"458 710 LINE",
"458 261 LINE SMOOTH",
"458 177 OFFCURVE",
"412 127 OFFCURVE",
"336 127 CURVE SMOOTH",
"269 127 OFFCURVE",
"226 150 OFFCURVE",
"194 212 CURVE",
"67 155 LINE",
"104 46 OFFCURVE",
"201 -10 OFFCURVE",
"336 -10 CURVE SMOOTH"
);
},
{
closed = 1;
nodes = (
"224 310 LINE",
"224 710 LINE",
"68 710 LINE",
"68 310 LINE"
);
}
);
};
layerId = "014D4A40-7C7F-4023-B30E-1F55CE5EA091";
paths = (
{
closed = 1;
nodes = (
"511 -10 OFFCURVE",
"614 97 OFFCURVE",
"614 278 CURVE SMOOTH",
"614 710 LINE",
"458 710 LINE",
"458 261 LINE SMOOTH",
"458 177 OFFCURVE",
"412 127 OFFCURVE",
"336 127 CURVE SMOOTH",
"270 127 OFFCURVE",
"227 150 OFFCURVE",
"195 212 CURVE",
"67 155 LINE",
"104 46 OFFCURVE",
"201 -10 OFFCURVE",
"336 -10 CURVE SMOOTH"
);
},
{
closed = 1;
nodes = (
"224 310 LINE",
"224 710 LINE",
"68 710 LINE",
"68 310 LINE"
);
}
);
width = 679;
}
);
leftKerningGroup = U;
rightKerningGroup = U;
rightMetricsKey = U;
},
{
color = 4;
glyphname = J;
lastChange = "2019-04-15 13:26:08 +0000";
layers = (
{
anchors = (
{
name = bottom;
position = "{224, 0}";
},
{
name = top;
position = "{331, 710}";
}
);
background = {
anchors = (
{
name = bottom;
position = "{224, 0}";
},
{
name = top;
position = "{331, 710}";
}
);
paths = (
{
closed = 1;
nodes = (
"309 -8 OFFCURVE",
"372 68 OFFCURVE",
"372 209 CURVE SMOOTH",
"372 710 LINE",
"289 710 LINE",
"289 205 LINE SMOOTH",
"289 109 OFFCURVE",
"255 65 OFFCURVE",
"180 65 CURVE SMOOTH",
"112 65 OFFCURVE",
"71 94 OFFCURVE",
"50 159 CURVE",
"-18 129 LINE",
"2 45 OFFCURVE",
"77 -8 OFFCURVE",
"177 -8 CURVE SMOOTH"
);
}
);
};
layerId = "A3B50665-EA37-4AC6-885C-1233CA61B6BD";
paths = (
{
closed = 1;
nodes = (
"309 -8 OFFCURVE",
"372 68 OFFCURVE",
"372 209 CURVE SMOOTH",
"372 710 LINE",
"289 710 LINE",
"289 205 LINE SMOOTH",
"289 109 OFFCURVE",
"255 65 OFFCURVE",
"180 65 CURVE SMOOTH",
"112 65 OFFCURVE",
"71 94 OFFCURVE",
"50 159 CURVE",
"-18 129 LINE",
"2 45 OFFCURVE",
"77 -8 OFFCURVE",
"177 -8 CURVE SMOOTH"
);
}
);
width = 451;
},
{
anchors = (
{
name = bottom;
position = "{247, 0}";
},
{
name = top;
position = "{352, 710}";
}
);
background = {
anchors = (
{
name = bottom;
position = "{247, 0}";
},
{
name = top;
position = "{352, 710}";
}
);
paths = (
{
closed = 1;
nodes = (
"347 -10 OFFCURVE",
"430 81 OFFCURVE",
"430 238 CURVE SMOOTH",
"430 710 LINE",
"274 710 LINE",
"274 221 LINE SMOOTH",
"274 157 OFFCURVE",
"245 127 OFFCURVE",
"196 127 CURVE SMOOTH",
"148 127 OFFCURVE",
"120 152 OFFCURVE",
"100 202 CURVE",
"-27 145 LINE",
"2 44 OFFCURVE",
"85 -10 OFFCURVE",
"198 -10 CURVE SMOOTH"
);
}
);
};
layerId = "014D4A40-7C7F-4023-B30E-1F55CE5EA091";
paths = (
{
closed = 1;
nodes = (
"347 -10 OFFCURVE",
"430 81 OFFCURVE",
"430 238 CURVE SMOOTH",
"430 710 LINE",
"274 710 LINE",
"274 221 LINE SMOOTH",
"274 157 OFFCURVE",
"245 127 OFFCURVE",
"196 127 CURVE SMOOTH",
"148 127 OFFCURVE",
"120 152 OFFCURVE",
"100 202 CURVE",
"-27 145 LINE",
"2 44 OFFCURVE",
"87 -10 OFFCURVE",
"198 -10 CURVE SMOOTH"
);
}
);
width = 496;
}
);
leftKerningGroup = J;
rightKerningGroup = J;
unicode = 004A;
},
{
color = 4;
glyphname = K;
lastChange = "2019-04-15 13:26:24 +0000";
layers = (
{
anchors = (
{
name = bottom;
position = "{298, 0}";
},
{
name = top;
position = "{298, 710}";
}
);
background = {
anchors = (
{
name = bottom;
position = "{288, 0}";
},
{
name = top;
position = "{288, 710}";
}
);
paths = (
{
closed = 1;
nodes = (
"164 0 LINE",
"164 710 LINE",
"81 710 LINE",
"81 0 LINE"
);
},
{
closed = 1;
nodes = (
"570 82 LINE",
"554 72 OFFCURVE",
"536 66 OFFCURVE",
"516 66 CURVE SMOOTH",
"471 66 OFFCURVE",
"452 79 OFFCURVE",
"415 134 CURVE SMOOTH",
"309 293 LINE SMOOTH",
"275 344 OFFCURVE",
"230 370 OFFCURVE",
"185 370 CURVE",
"221 338 LINE",
"590 710 LINE",
"488 710 LINE",
"137 353 LINE",
"137 319 LINE",
"182 319 OFFCURVE",
"207 301 OFFCURVE",
"225 275 CURVE SMOOTH",
"355 83 LINE SMOOTH",
"399 18 OFFCURVE",
"445 -6 OFFCURVE",
"503 -6 CURVE SMOOTH",
"538 -6 OFFCURVE",
"567 2 OFFCURVE",
"588 18 CURVE"
);
}
);
};
guideLines = (
{
angle = 225.5093;
position = "{254, 483}";
}
);
layerId = "A3B50665-EA37-4AC6-885C-1233CA61B6BD";
paths = (
{
closed = 1;
nodes = (
"164 0 LINE",
"164 710 LINE",
"81 710 LINE",
"81 0 LINE"
);
},
{
closed = 1;
nodes = (
"570 82 LINE",
"554 72 OFFCURVE",
"536 66 OFFCURVE",
"516 66 CURVE SMOOTH",
"471 66 OFFCURVE",
"452 79 OFFCURVE",
"415 134 CURVE SMOOTH",
"309 293 LINE SMOOTH",
"275 344 OFFCURVE",
"230 370 OFFCURVE",
"185 370 CURVE",
"221 338 LINE",
"590 710 LINE",
"488 710 LINE",
"137 353 LINE",
"137 319 LINE",
"182 319 OFFCURVE",
"207 301 OFFCURVE",
"225 275 CURVE SMOOTH",
"355 83 LINE SMOOTH",
"399 18 OFFCURVE",
"445 -6 OFFCURVE",
"503 -6 CURVE SMOOTH",
"538 -6 OFFCURVE",
"567 2 OFFCURVE",
"588 18 CURVE"
);
}
);
width = 569;
},
{
anchors = (
{
name = bottom;
position = "{335, 0}";
},
{
name = top;
position = "{335, 710}";
}
);
background = {
anchors = (
{
name = bottom;
position = "{335, 0}";
},
{
name = top;
position = "{335, 710}";
}
);
paths = (
{
closed = 1;
nodes = (
"224 0 LINE",
"224 710 LINE",
"68 710 LINE",
"68 0 LINE"
);
},
{
closed = 1;
nodes = (
"659 146 LINE",
"638 132 OFFCURVE",
"616 127 OFFCURVE",
"591 127 CURVE SMOOTH",
"554 127 OFFCURVE",
"529 140 OFFCURVE",
"506 177 CURVE SMOOTH",
"440 283 LINE SMOOTH",
"407 336 OFFCURVE",
"359 372 OFFCURVE",
"297 372 CURVE",
"342 329 LINE",
"691 710 LINE",
"504 710 LINE",
"179 351 LINE",
"179 290 LINE",
"241 290 OFFCURVE",
"266 278 OFFCURVE",
"294 234 CURVE SMOOTH",
"383 93 LINE SMOOTH",
"425 26 OFFCURVE",
"489 -10 OFFCURVE",
"572 -10 CURVE SMOOTH",
"619 -10 OFFCURVE",
"667 4 OFFCURVE",
"695 26 CURVE"
);
}
);
};
guideLines = (
{
angle = 46.6112;
position = "{214, 445}";
}
);
layerId = "014D4A40-7C7F-4023-B30E-1F55CE5EA091";
paths = (
{
closed = 1;
nodes = (
"224 0 LINE",
"224 710 LINE",
"68 710 LINE",
"68 0 LINE"
);
},
{
closed = 1;
nodes = (
"659 146 LINE",
"638 132 OFFCURVE",
"616 127 OFFCURVE",
"591 127 CURVE SMOOTH",
"554 127 OFFCURVE",
"529 140 OFFCURVE",
"506 177 CURVE SMOOTH",
"440 283 LINE SMOOTH",
"407 336 OFFCURVE",
"357 373 OFFCURVE",
"295 373 CURVE",
"342 329 LINE",
"691 710 LINE",
"504 710 LINE",
"179 351 LINE",
"179 290 LINE",
"241 290 OFFCURVE",
"264 278 OFFCURVE",
"292 234 CURVE SMOOTH",
"381 93 LINE SMOOTH",
"423 26 OFFCURVE",
"489 -10 OFFCURVE",
"572 -10 CURVE SMOOTH",
"619 -10 OFFCURVE",
"667 4 OFFCURVE",
"695 26 CURVE"
);
}
);
width = 663;
}
);
leftKerningGroup = H;
leftMetricsKey = H;
rightKerningGroup = K;
unicode = 004B;
},
{
color = 4;
glyphname = L;
lastChange = "2019-04-15 13:27:12 +0000";
layers = (
{
anchors = (
{
name = bottom;
position = "{284, 0}";
},
{
name = center;
position = "{123, 355}";
},
{
name = dotacc;
position = "{383, 401}";
},
{
name = top;
position = "{123, 710}";
},
{
name = topright;
position = "{264, 710}";
}
);
background = {
anchors = (
{
name = bottom;
position = "{284, 0}";
},
{
name = center;
position = "{123, 355}";
},
{
name = dotacc;
position = "{383, 401}";
},
{
name = top;
position = "{123, 710}";
},
{
name = topright;
position = "{264, 710}";
}
);
paths = (
{
closed = 1;
nodes = (
"487 0 LINE",
"497 72 LINE",
"164 72 LINE",
"164 710 LINE",
"81 710 LINE",
"81 0 LINE"
);
}
);
};
layerId = "A3B50665-EA37-4AC6-885C-1233CA61B6BD";
paths = (
{
closed = 1;
nodes = (
"487 0 LINE",
"494 72 LINE",
"164 72 LINE",
"164 710 LINE",
"81 710 LINE",
"81 0 LINE"
);
}
);
width = 487;
},
{
anchors = (
{
name = bottom;
position = "{296, 0}";
},
{
name = center;
position = "{146, 375}";
},
{
name = dotacc;
position = "{429, 433}";
},
{
name = top;
position = "{146, 710}";
},
{
name = topright;
position = "{324, 710}";
}
);
background = {
anchors = (
{
name = bottom;
position = "{296, 0}";
},
{
name = center;
position = "{146, 375}";
},
{
name = dotacc;
position = "{429, 433}";
},
{
name = top;
position = "{146, 710}";
},
{
name = topright;
position = "{324, 710}";
}
);
paths = (
{
closed = 1;
nodes = (
"523 0 LINE",
"533 136 LINE",
"224 136 LINE",
"224 710 LINE",
"68 710 LINE",
"68 0 LINE"
);
}
);
};
layerId = "014D4A40-7C7F-4023-B30E-1F55CE5EA091";
paths = (
{
closed = 1;
nodes = (
"523 0 LINE",
"533 136 LINE",
"224 136 LINE",
"224 710 LINE",
"68 710 LINE",
"68 0 LINE"
);
}
);
width = 528;
}
);
leftKerningGroup = H;
leftMetricsKey = H;
rightKerningGroup = L;
unicode = 004C;
},
{
color = 4;
glyphname = M;
lastChange = "2019-04-15 13:29:12 +0000";
layers = (
{
anchors = (
{
name = bottom;
position = "{457, 0}";
},
{
name = top;
position = "{457, 710}";
}
);
background = {
anchors = (
{
name = bottom;
position = "{457, 0}";
},
{
name = top;
position = "{457, 710}";
}
);
paths = (
{
closed = 1;
nodes = (
"151 0 LINE",
"180 650 LINE",
"134 646 LINE",
"421 0 LINE",
"491 0 LINE",
"785 645 LINE",
"737 650 LINE",
"762 0 LINE",
"841 0 LINE",
"816 710 LINE",
"736 710 LINE",
"433 44 LINE",
"485 44 LINE",
"188 710 LINE",
"106 710 LINE",
"75 0 LINE"
);
}
);
};
layerId = "A3B50665-EA37-4AC6-885C-1233CA61B6BD";
paths = (
{
closed = 1;
nodes = (
"151 0 LINE",
"180 650 LINE",
"146 613 LINE",
"422 0 LINE",
"491 0 LINE",
"774 623 LINE",
"737 650 LINE",
"762 0 LINE",
"840 0 LINE",
"814 710 LINE",
"735 710 LINE",
"434 44 LINE",
"485 44 LINE",
"184 710 LINE",
"105 710 LINE",
"74 0 LINE"
);
}
);
width = 916;
},
{
anchors = (
{
name = bottom;
position = "{468, 0}";
},
{
name = top;
position = "{468, 710}";
}
);
background = {
anchors = (
{
name = bottom;
position = "{471, 0}";
},
{
name = top;
position = "{471, 710}";
}
);
paths = (
{
closed = 1;
nodes = (
"210 0 LINE",
"232 611 LINE",
"148 540 LINE",
"413 0 LINE",
"527 0 LINE",
"796 553 LINE",
"709 611 LINE",
"725 0 LINE",
"875 0 LINE",
"855 710 LINE",
"723 710 LINE",
"431 102 LINE",
"521 102 LINE",
"224 710 LINE",
"91 710 LINE",
"66 0 LINE"
);
}
);
};
guideLines = (
{
angle = -88.391;
position = "{733, 356}";
},
{
angle = 88.391;
position = "{232, 356}";
}
);
layerId = "014D4A40-7C7F-4023-B30E-1F55CE5EA091";
paths = (
{
closed = 1;
nodes = (
"210 0 LINE",
"232 611 LINE",
"147 540 LINE",
"411 0 LINE",
"525 0 LINE",
"797 553 LINE",
"709 611 LINE",
"725 0 LINE",
"875 0 LINE",
"856 710 LINE",
"724 710 LINE",
"429 102 LINE",
"520 102 LINE",
"223 710 LINE",
"91 710 LINE",
"66 0 LINE"
);
}
);
width = 943;
}
);
leftKerningGroup = H;
rightKerningGroup = H;
unicode = 004D;
},
{
color = 4;
glyphname = N;
lastChange = "2019-04-15 13:29:15 +0000";
layers = (
{
anchors = (
{
name = bottom;
position = "{360, 0}";
},
{
name = top;
position = "{360, 710}";
}
);
background = {
anchors = (
{
name = bottom;
position = "{359, 0}";
},
{
name = top;
position = "{359, 712}";
}
);
paths = (
{
closed = 1;
nodes = (
"560 81 LINE",
"595 89 LINE",
"149 710 LINE",
"82 710 LINE",
"82 0 LINE",
"159 0 LINE",
"159 630 LINE",
"124 621 LINE",
"570 0 LINE",
"637 0 LINE",
"637 710 LINE",
"560 710 LINE"
);
}
);
};
layerId = "A3B50665-EA37-4AC6-885C-1233CA61B6BD";
paths = (
{
closed = 1;
nodes = (
"559 81 LINE",
"594 90 LINE",
"152 710 LINE",
"81 710 LINE",
"81 0 LINE",
"160 0 LINE",
"160 630 LINE",
"125 620 LINE",
"567 0 LINE",
"638 0 LINE",
"638 710 LINE",
"559 710 LINE"
);
}
);
width = 719;
},
{
anchors = (
{
name = bottom;
position = "{374, 0}";
},
{
name = top;
position = "{374, 712}";
}
);
background = {
anchors = (
{
name = bottom;
position = "{379, 0}";
},
{
name = top;
position = "{378, 712}";
}
);
paths = (
{
closed = 1;
nodes = (
"530 141 LINE",
"584 175 LINE",
"206 710 LINE",
"70 710 LINE",
"70 0 LINE",
"218 0 LINE",
"218 569 LINE",
"164 535 LINE",
"542 0 LINE",
"678 0 LINE",
"678 710 LINE",
"530 710 LINE"
);
}
);
};
layerId = "014D4A40-7C7F-4023-B30E-1F55CE5EA091";
paths = (
{
closed = 1;
nodes = (
"530 141 LINE",
"588 175 LINE",
"206 710 LINE",
"68 710 LINE",
"68 0 LINE",
"218 0 LINE",
"218 569 LINE",
"160 535 LINE",
"542 0 LINE",
"680 0 LINE",
"680 710 LINE",
"530 710 LINE"
);
}
);
width = 748;
}
);
leftKerningGroup = H;
leftMetricsKey = H;
rightKerningGroup = H;
rightMetricsKey = H;
unicode = 004E;
},
{
color = 4;
glyphname = Eng;
lastChange = "2019-04-15 13:29:17 +0000";
layers = (
{
background = {
paths = (
{
closed = 1;
nodes = (
"559 81 LINE",
"594 91 LINE",
"152 710 LINE",
"81 710 LINE",
"81 0 LINE",
"160 0 LINE",
"160 630 LINE",
"125 619 LINE",
"567 0 LINE",
"638 0 LINE",
"638 710 LINE",
"559 710 LINE"
);
}
);
};
layerId = "A3B50665-EA37-4AC6-885C-1233CA61B6BD";
paths = (
{
closed = 1;
nodes = (
"576 -208 OFFCURVE",
"638 -132 OFFCURVE",
"638 -1 CURVE SMOOTH",
"638 710 LINE",
"559 710 LINE",
"559 81 LINE",
"594 90 LINE",
"152 710 LINE",
"81 710 LINE",
"81 0 LINE",
"160 0 LINE",
"160 630 LINE",
"125 620 LINE",
"567 0 LINE",
"561 37 LINE",
"561 -25 LINE SMOOTH",
"561 -91 OFFCURVE",
"527 -136 OFFCURVE",
"462 -136 CURVE SMOOTH",
"404 -136 OFFCURVE",
"363 -106 OFFCURVE",
"352 -41 CURVE",
"284 -71 LINE",
"296 -155 OFFCURVE",
"370 -208 OFFCURVE",
"456 -208 CURVE SMOOTH"
);
}
);
width = 719;
},
{
background = {
paths = (
{
closed = 1;
nodes = (
"530 141 LINE",
"588 175 LINE",
"206 710 LINE",
"68 710 LINE",
"68 0 LINE",
"218 0 LINE",
"218 569 LINE",
"160 535 LINE",
"542 0 LINE",
"680 0 LINE",
"680 710 LINE",
"530 710 LINE"
);
}
);
};
layerId = "014D4A40-7C7F-4023-B30E-1F55CE5EA091";
paths = (
{
closed = 1;
nodes = (
"586 -210 OFFCURVE",
"680 -119 OFFCURVE",
"680 38 CURVE SMOOTH",
"680 710 LINE",
"530 710 LINE",
"530 141 LINE",
"588 175 LINE",
"206 710 LINE",
"68 710 LINE",
"68 0 LINE",
"218 0 LINE",
"218 569 LINE",
"160 535 LINE",
"542 0 LINE",
"532 63 LINE",
"532 1 LINE SMOOTH",
"532 -43 OFFCURVE",
"503 -73 OFFCURVE",
"464 -73 CURVE SMOOTH",
"426 -73 OFFCURVE",
"398 -48 OFFCURVE",
"388 2 CURVE",
"261 -55 LINE",
"281 -156 OFFCURVE",
"363 -210 OFFCURVE",
"462 -210 CURVE SMOOTH"
);
}
);
width = 748;
}
);
leftKerningGroup = H;
leftMetricsKey = N;
widthMetricsKey = N;
rightKerningGroup = H;
unicode = 014A;
},
{
color = 5;
glyphname = O;
lastChange = "2019-04-15 12:37:30 +0000";
layers = (
{
anchors = (
{
name = bottom;
position = "{385, 0}";
},
{
name = center;
position = "{385, 355}";
},
{
name = ogonek;
position = "{462, 0}";
},
{
name = top;
position = "{385, 710}";
},
{
name = topleft;
position = "{14, 710}";
},
{
name = topright;
position = "{584, 710}";
}
);
background = {
anchors = (
{
name = bottom;
position = "{385, 0}";
},
{
name = center;
position = "{385, 355}";
},
{
name = ogonek;
position = "{462, 0}";
},
{
name = top;
position = "{385, 710}";
},
{
name = topleft;
position = "{14, 710}";
},
{
name = topright;
position = "{584, 710}";
}
);
paths = (
{
closed = 1;
nodes = (
"572 -8 OFFCURVE",
"711 139 OFFCURVE",
"711 369 CURVE SMOOTH",
"711 580 OFFCURVE",
"586 720 OFFCURVE",
"399 720 CURVE SMOOTH",
"198 720 OFFCURVE",
"58 564 OFFCURVE",
"58 342 CURVE SMOOTH",
"58 120 OFFCURVE",
"181 -8 OFFCURVE",
"381 -8 CURVE SMOOTH"
);
},
{
closed = 1;
nodes = (
"232 68 OFFCURVE",
"141 166 OFFCURVE",
"141 342 CURVE SMOOTH",
"141 524 OFFCURVE",
"249 645 OFFCURVE",
"400 645 CURVE SMOOTH",
"540 645 OFFCURVE",
"629 538 OFFCURVE",
"629 371 CURVE SMOOTH",
"629 179 OFFCURVE",
"527 68 OFFCURVE",
"381 68 CURVE SMOOTH"
);
}
);
};
guideLines = (
{
angle = 90;
position = "{711, 369}";
}
);
layerId = "A3B50665-EA37-4AC6-885C-1233CA61B6BD";
paths = (
{
closed = 1;
nodes = (
"573 -8 OFFCURVE",
"713 139 OFFCURVE",
"713 369 CURVE SMOOTH",
"713 580 OFFCURVE",
"587 720 OFFCURVE",
"399 720 CURVE SMOOTH",
"197 720 OFFCURVE",
"57 564 OFFCURVE",
"57 342 CURVE SMOOTH",
"57 120 OFFCURVE",
"180 -8 OFFCURVE",
"381 -8 CURVE SMOOTH"
);
},
{
closed = 1;
nodes = (
"232 68 OFFCURVE",
"141 166 OFFCURVE",
"141 342 CURVE SMOOTH",
"141 524 OFFCURVE",
"249 644 OFFCURVE",
"400 644 CURVE SMOOTH",
"540 644 OFFCURVE",
"629 538 OFFCURVE",
"629 371 CURVE SMOOTH",
"629 179 OFFCURVE",
"527 68 OFFCURVE",
"381 68 CURVE SMOOTH"
);
}
);
width = 770;
},
{
anchors = (
{
name = bottom;
position = "{390, 0}";
},
{
name = center;
position = "{390, 355}";
},
{
name = ogonek;
position = "{487, 0}";
},
{
name = top;
position = "{390, 710}";
},
{
name = topleft;
position = "{18, 710}";
},
{
name = topright;
position = "{559, 710}";
}
);
background = {
anchors = (
{
name = bottom;
position = "{390, 0}";
},
{
name = center;
position = "{390, 355}";
},
{
name = ogonek;
position = "{487, 0}";
},
{
name = top;
position = "{390, 710}";
},
{
name = topleft;
position = "{18, 710}";
},
{
name = topright;
position = "{559, 710}";
}
);
paths = (
{
closed = 1;
nodes = (
"596 -8 OFFCURVE",
"742 139 OFFCURVE",
"742 369 CURVE SMOOTH",
"742 580 OFFCURVE",
"608 720 OFFCURVE",
"406 720 CURVE SMOOTH",
"178 720 OFFCURVE",
"37 564 OFFCURVE",
"37 342 CURVE SMOOTH",
"37 120 OFFCURVE",
"170 -12 OFFCURVE",
"393 -10 CURVE SMOOTH"
);
},
{
closed = 1;
nodes = (
"268 129 OFFCURVE",
"196 207 OFFCURVE",
"196 345 CURVE SMOOTH",
"196 486 OFFCURVE",
"282 582 OFFCURVE",
"402 582 CURVE SMOOTH",
"513 582 OFFCURVE",
"584 497 OFFCURVE",
"584 368 CURVE SMOOTH",
"584 217 OFFCURVE",
"503 129 OFFCURVE",
"387 129 CURVE SMOOTH"
);
}
);
};
guideLines = (
{
angle = 90;
position = "{742, 369}";
}
);
layerId = "014D4A40-7C7F-4023-B30E-1F55CE5EA091";
paths = (
{
closed = 1;
nodes = (
"595 -8 OFFCURVE",
"742 139 OFFCURVE",
"742 369 CURVE SMOOTH",
"742 580 OFFCURVE",
"607 720 OFFCURVE",
"406 720 CURVE SMOOTH",
"179 720 OFFCURVE",
"38 564 OFFCURVE",
"38 342 CURVE SMOOTH",
"38 120 OFFCURVE",
"171 -12 OFFCURVE",
"393 -10 CURVE SMOOTH"
);
},
{
closed = 1;
nodes = (
"268 129 OFFCURVE",
"196 207 OFFCURVE",
"196 345 CURVE SMOOTH",
"196 486 OFFCURVE",
"282 582 OFFCURVE",
"402 582 CURVE SMOOTH",
"513 582 OFFCURVE",
"584 497 OFFCURVE",
"584 368 CURVE SMOOTH",
"584 217 OFFCURVE",
"503 129 OFFCURVE",
"387 129 CURVE SMOOTH"
);
}
);
width = 780;
}
);
leftKerningGroup = O;
rightKerningGroup = O;
rightMetricsKey = "=|";
unicode = 004F;
},
{
color = 4;
glyphname = Oogonek;
lastChange = "2019-04-15 14:15:25 +0000";
layers = (
{
anchors = (
{
name = top;
position = "{385, 710}";
}
);
background = {
paths = (
{
closed = 1;
nodes = (
"573 -8 OFFCURVE",
"713 139 OFFCURVE",
"713 369 CURVE SMOOTH",
"713 580 OFFCURVE",
"587 720 OFFCURVE",
"399 720 CURVE SMOOTH",
"197 720 OFFCURVE",
"57 564 OFFCURVE",
"57 342 CURVE SMOOTH",
"57 120 OFFCURVE",
"180 -8 OFFCURVE",
"381 -8 CURVE SMOOTH"
);
},
{
closed = 1;
nodes = (
"232 68 OFFCURVE",
"141 166 OFFCURVE",
"141 342 CURVE SMOOTH",
"141 524 OFFCURVE",
"249 644 OFFCURVE",
"400 644 CURVE SMOOTH",
"540 644 OFFCURVE",
"629 538 OFFCURVE",
"629 371 CURVE SMOOTH",
"629 179 OFFCURVE",
"527 68 OFFCURVE",
"381 68 CURVE SMOOTH"
);
}
);
};
layerId = "A3B50665-EA37-4AC6-885C-1233CA61B6BD";
paths = (
{
closed = 1;
nodes = (
"444 -223 OFFCURVE",
"483 -203 OFFCURVE",
"503 -173 CURVE",
"473 -132 LINE",
"452 -158 OFFCURVE",
"432 -170 OFFCURVE",
"410 -170 CURVE SMOOTH",
"376 -170 OFFCURVE",
"357 -150 OFFCURVE",
"357 -118 CURVE SMOOTH",
"357 -75 OFFCURVE",
"397 -24 OFFCURVE",
"494 11 CURVE SMOOTH",
"623 57 OFFCURVE",
"713 184 OFFCURVE",
"713 369 CURVE SMOOTH",
"713 580 OFFCURVE",
"587 720 OFFCURVE",
"399 720 CURVE SMOOTH",
"197 720 OFFCURVE",
"57 564 OFFCURVE",
"57 342 CURVE SMOOTH",
"57 120 OFFCURVE",
"180 -8 OFFCURVE",
"381 -8 CURVE SMOOTH",
"405 -8 LINE",
"397 10 LINE",
"329 -21 OFFCURVE",
"290 -73 OFFCURVE",
"290 -126 CURVE SMOOTH",
"290 -184 OFFCURVE",
"333 -223 OFFCURVE",
"405 -223 CURVE SMOOTH"
);
},
{
closed = 1;
nodes = (
"232 68 OFFCURVE",
"141 166 OFFCURVE",
"141 342 CURVE SMOOTH",
"141 524 OFFCURVE",
"249 644 OFFCURVE",
"400 644 CURVE SMOOTH",
"540 644 OFFCURVE",
"629 538 OFFCURVE",
"629 371 CURVE SMOOTH",
"629 179 OFFCURVE",
"527 68 OFFCURVE",
"381 68 CURVE SMOOTH"
);
}
);
width = 770;
},
{
anchors = (
{
name = top;
position = "{391, 710}";
}
);
background = {
paths = (
{
closed = 1;
nodes = (
"595 -8 OFFCURVE",
"742 139 OFFCURVE",
"742 369 CURVE SMOOTH",
"742 580 OFFCURVE",
"607 720 OFFCURVE",
"406 720 CURVE SMOOTH",
"179 720 OFFCURVE",
"38 564 OFFCURVE",
"38 342 CURVE SMOOTH",
"38 120 OFFCURVE",
"171 -12 OFFCURVE",
"393 -10 CURVE SMOOTH"
);
},
{
closed = 1;
nodes = (
"268 129 OFFCURVE",
"196 207 OFFCURVE",
"196 345 CURVE SMOOTH",
"196 486 OFFCURVE",
"282 582 OFFCURVE",
"402 582 CURVE SMOOTH",
"513 582 OFFCURVE",
"584 497 OFFCURVE",
"584 368 CURVE SMOOTH",
"584 217 OFFCURVE",
"503 129 OFFCURVE",
"387 129 CURVE SMOOTH"
);
}
);
};
layerId = "014D4A40-7C7F-4023-B30E-1F55CE5EA091";
paths = (
{
closed = 1;
nodes = (
"475 -223 OFFCURVE",
"521 -204 OFFCURVE",
"544 -173 CURVE",
"495 -103 LINE",
"480 -122 OFFCURVE",
"458 -134 OFFCURVE",
"440 -134 CURVE SMOOTH",
"412 -134 OFFCURVE",
"396 -120 OFFCURVE",
"396 -96 CURVE SMOOTH",
"396 -62 OFFCURVE",
"417 -30 OFFCURVE",
"529 16 CURVE SMOOTH",
"658 69 OFFCURVE",
"742 195 OFFCURVE",
"742 369 CURVE SMOOTH",
"742 580 OFFCURVE",
"607 720 OFFCURVE",
"406 720 CURVE SMOOTH",
"179 720 OFFCURVE",
"38 564 OFFCURVE",
"38 342 CURVE SMOOTH",
"38 120 OFFCURVE",
"171 -12 OFFCURVE",
"394 -10 CURVE SMOOTH",
"424 -10 LINE",
"375 12 LINE",
"306 -18 OFFCURVE",
"274 -61 OFFCURVE",
"274 -112 CURVE SMOOTH",
"274 -178 OFFCURVE",
"336 -223 OFFCURVE",
"424 -223 CURVE SMOOTH"
);
},
{
closed = 1;
nodes = (
"268 129 OFFCURVE",
"196 207 OFFCURVE",
"196 345 CURVE SMOOTH",
"196 486 OFFCURVE",
"282 582 OFFCURVE",
"402 582 CURVE SMOOTH",
"513 582 OFFCURVE",
"584 497 OFFCURVE",
"584 368 CURVE SMOOTH",
"584 217 OFFCURVE",
"503 129 OFFCURVE",
"387 129 CURVE SMOOTH"
);
}
);
width = 780;
}
);
leftKerningGroup = O;
leftMetricsKey = O;
widthMetricsKey = O;
rightKerningGroup = O;
unicode = 01EA;
},
{
color = 4;
glyphname = OE;
lastChange = "2019-04-15 14:04:54 +0000";
layers = (
{
anchors = (
{
name = bottom;
position = "{581, 0}";
},
{
name = top;
position = "{581, 710}";
}
);
background = {
anchors = (
{
name = bottom;
position = "{581, 0}";
},
{
name = top;
position = "{581, 710}";
}
);
paths = (
{
closed = 1;
nodes = (
"621 325 LINE",
"936 325 LINE",
"936 395 LINE",
"621 395 LINE",
"621 640 LINE",
"946 640 LINE",
"946 710 LINE",
"600 710 LINE SMOOTH",
"564 710 OFFCURVE",
"497 715 OFFCURVE",
"451 715 CURVE SMOOTH",
"194 715 OFFCURVE",
"57 566 OFFCURVE",
"57 340 CURVE SMOOTH",
"57 117 OFFCURVE",
"186 -4 OFFCURVE",
"430 -4 CURVE SMOOTH",
"479 -4 OFFCURVE",
"529 0 OFFCURVE",
"588 0 CURVE SMOOTH",
"953 0 LINE",
"963 71 LINE",
"621 71 LINE"
);
},
{
closed = 1;
nodes = (
"506 68 OFFCURVE",
"471 67 OFFCURVE",
"437 67 CURVE SMOOTH",
"238 67 OFFCURVE",
"141 160 OFFCURVE",
"141 344 CURVE SMOOTH",
"141 541 OFFCURVE",
"259 645 OFFCURVE",
"451 645 CURVE SMOOTH",
"490 645 OFFCURVE",
"515 642 OFFCURVE",
"540 640 CURVE",
"540 71 LINE"
);
}
);
};
layerId = "A3B50665-EA37-4AC6-885C-1233CA61B6BD";
paths = (
{
closed = 1;
nodes = (
"621 325 LINE",
"936 325 LINE",
"936 396 LINE",
"621 396 LINE",
"621 639 LINE",
"946 639 LINE",
"946 710 LINE",
"600 710 LINE SMOOTH",
"564 710 OFFCURVE",
"497 715 OFFCURVE",
"451 715 CURVE SMOOTH",
"194 715 OFFCURVE",
"57 566 OFFCURVE",
"57 340 CURVE SMOOTH",
"57 117 OFFCURVE",
"186 -4 OFFCURVE",
"430 -4 CURVE SMOOTH",
"479 -4 OFFCURVE",
"529 0 OFFCURVE",
"588 0 CURVE SMOOTH",
"953 0 LINE",
"960 71 LINE",
"621 71 LINE"
);
},
{
closed = 1;
nodes = (
"506 68 OFFCURVE",
"471 67 OFFCURVE",
"437 67 CURVE SMOOTH",
"238 67 OFFCURVE",
"141 160 OFFCURVE",
"141 344 CURVE SMOOTH",
"141 541 OFFCURVE",
"259 644 OFFCURVE",
"451 644 CURVE SMOOTH",
"490 644 OFFCURVE",
"515 641 OFFCURVE",
"540 639 CURVE",
"540 71 LINE"
);
}
);
width = 993;
},
{
anchors = (
{
name = bottom;
position = "{588, 0}";
},
{
name = top;
position = "{588, 710}";
}
);
background = {
anchors = (
{
name = bottom;
position = "{588, 0}";
},
{
name = top;
position = "{588, 710}";
}
);
paths = (
{
closed = 1;
nodes = (
"665 290 LINE",
"961 290 LINE",
"961 426 LINE",
"665 426 LINE",
"665 574 LINE",
"981 574 LINE",
"981 710 LINE",
"632 710 LINE SMOOTH",
"587 710 OFFCURVE",
"504 716 OFFCURVE",
"452 716 CURVE SMOOTH",
"194 716 OFFCURVE",
"35 572 OFFCURVE",
"35 336 CURVE SMOOTH",
"35 119 OFFCURVE",
"173 -6 OFFCURVE",
"441 -6 CURVE SMOOTH",
"502 -6 OFFCURVE",
"553 0 OFFCURVE",
"622 0 CURVE SMOOTH",
"981 0 LINE",
"991 138 LINE",
"665 138 LINE"
);
},
{
closed = 1;
nodes = (
"484 132 OFFCURVE",
"458 130 OFFCURVE",
"431 130 CURVE SMOOTH",
"270 130 OFFCURVE",
"196 206 OFFCURVE",
"196 341 CURVE SMOOTH",
"196 495 OFFCURVE",
"285 580 OFFCURVE",
"441 580 CURVE SMOOTH",
"467 580 OFFCURVE",
"489 578 OFFCURVE",
"511 574 CURVE",
"511 136 LINE"
);
}
);
};
layerId = "014D4A40-7C7F-4023-B30E-1F55CE5EA091";
paths = (
{
closed = 1;
nodes = (
"665 292 LINE",
"961 292 LINE",
"961 424 LINE",
"665 424 LINE",
"665 578 LINE",
"981 578 LINE",
"981 710 LINE",
"622 710 LINE SMOOTH",
"557 710 OFFCURVE",
"507 716 OFFCURVE",
"445 716 CURVE SMOOTH",
"197 716 OFFCURVE",
"38 572 OFFCURVE",
"38 336 CURVE SMOOTH",
"38 119 OFFCURVE",
"176 -6 OFFCURVE",
"444 -6 CURVE SMOOTH",
"505 -6 OFFCURVE",
"553 0 OFFCURVE",
"612 0 CURVE SMOOTH",
"981 0 LINE",
"991 134 LINE",
"665 134 LINE"
);
},
{
closed = 1;
nodes = (
"484 130 OFFCURVE",
"458 128 OFFCURVE",
"431 128 CURVE SMOOTH",
"270 128 OFFCURVE",
"196 206 OFFCURVE",
"196 341 CURVE SMOOTH",
"196 495 OFFCURVE",
"285 582 OFFCURVE",
"441 582 CURVE SMOOTH",
"467 582 OFFCURVE",
"489 580 OFFCURVE",
"511 576 CURVE",
"511 134 LINE"
);
}
);
width = 1009;
}
);
leftKerningGroup = O;
leftMetricsKey = O;
rightKerningGroup = E;
rightMetricsKey = E;
unicode = 0152;
},
{
color = 4;
glyphname = P;
lastChange = "2019-04-15 14:05:02 +0000";
layers = (
{
anchors = (
{
name = bottom;
position = "{302, 0}";
},
{
name = top;
position = "{303, 710}";
}
);
background = {
anchors = (
{
name = bottom;
position = "{302, 0}";
},
{
name = top;
position = "{303, 710}";
}
);
paths = (
{
closed = 1;
nodes = (
"162 643 LINE",
"305 643 LINE SMOOTH",
"436 643 OFFCURVE",
"495 598 OFFCURVE",
"495 502 CURVE SMOOTH",
"495 405 OFFCURVE",
"438 354 OFFCURVE",
"291 354 CURVE SMOOTH",
"146 354 LINE",
"146 285 LINE",
"286 285 LINE SMOOTH",
"484 285 OFFCURVE",
"576 367 OFFCURVE",
"576 502 CURVE SMOOTH",
"576 638 OFFCURVE",
"479 711 OFFCURVE",
"313 711 CURVE SMOOTH",
"81 711 LINE",
"81 0 LINE",
"162 0 LINE"
);
}
);
};
layerId = "A3B50665-EA37-4AC6-885C-1233CA61B6BD";
paths = (
{
closed = 1;
nodes = (
"162 643 LINE",
"305 643 LINE SMOOTH",
"435 643 OFFCURVE",
"494 598 OFFCURVE",
"494 502 CURVE SMOOTH",
"494 405 OFFCURVE",
"437 354 OFFCURVE",
"291 354 CURVE SMOOTH",
"146 354 LINE",
"146 285 LINE",
"286 285 LINE SMOOTH",
"484 285 OFFCURVE",
"576 367 OFFCURVE",
"576 502 CURVE SMOOTH",
"576 638 OFFCURVE",
"479 711 OFFCURVE",
"313 711 CURVE SMOOTH",
"81 711 LINE",
"81 0 LINE",
"162 0 LINE"
);
}
);
width = 601;
},
{
anchors = (
{
name = bottom;
position = "{316, 0}";
},
{
name = top;
position = "{316, 710}";
}
);
background = {
anchors = (
{
name = bottom;
position = "{316, 0}";
},
{
name = top;
position = "{316, 710}";
}
);
paths = (
{
closed = 1;
nodes = (
"220 583 LINE",
"325 583 LINE SMOOTH",
"423 583 OFFCURVE",
"468 558 OFFCURVE",
"468 483 CURVE SMOOTH",
"468 410 OFFCURVE",
"418 380 OFFCURVE",
"312 380 CURVE SMOOTH",
"188 380 LINE",
"188 252 LINE",
"314 252 LINE SMOOTH",
"508 252 OFFCURVE",
"624 340 OFFCURVE",
"624 486 CURVE SMOOTH",
"624 632 OFFCURVE",
"523 710 OFFCURVE",
"338 710 CURVE SMOOTH",
"68 710 LINE",
"68 0 LINE",
"220 0 LINE"
);
}
);
};
layerId = "014D4A40-7C7F-4023-B30E-1F55CE5EA091";
paths = (
{
closed = 1;
nodes = (
"220 583 LINE",
"325 583 LINE SMOOTH",
"423 583 OFFCURVE",
"468 558 OFFCURVE",
"468 483 CURVE SMOOTH",
"468 410 OFFCURVE",
"418 380 OFFCURVE",
"312 380 CURVE SMOOTH",
"188 380 LINE",
"188 252 LINE",
"304 252 LINE SMOOTH",
"508 252 OFFCURVE",
"623 340 OFFCURVE",
"623 486 CURVE SMOOTH",
"623 632 OFFCURVE",
"523 710 OFFCURVE",
"328 710 CURVE SMOOTH",
"68 710 LINE",
"68 0 LINE",
"220 0 LINE"
);
}
);
width = 636;
}
);
leftKerningGroup = H;
leftMetricsKey = H;
rightKerningGroup = P;
unicode = 0050;
},
{
color = 4;
glyphname = Thorn;
lastChange = "2019-04-15 14:05:12 +0000";
layers = (
{
background = {
paths = (
{
closed = 1;
nodes = (
"162 525 LINE",
"305 525 LINE SMOOTH",
"435 525 OFFCURVE",
"494 480 OFFCURVE",
"494 384 CURVE SMOOTH",
"494 287 OFFCURVE",
"437 236 OFFCURVE",
"291 236 CURVE SMOOTH",
"146 236 LINE",
"146 167 LINE",
"286 167 LINE SMOOTH",
"484 167 OFFCURVE",
"576 249 OFFCURVE",
"576 384 CURVE SMOOTH",
"576 520 OFFCURVE",
"479 593 OFFCURVE",
"313 593 CURVE SMOOTH",
"81 593 LINE",
"81 -118 LINE",
"162 -118 LINE"
);
}
);
};
layerId = "A3B50665-EA37-4AC6-885C-1233CA61B6BD";
paths = (
{
closed = 1;
nodes = (
"145 525 LINE",
"305 525 LINE SMOOTH",
"435 525 OFFCURVE",
"494 480 OFFCURVE",
"494 384 CURVE SMOOTH",
"494 287 OFFCURVE",
"437 236 OFFCURVE",
"291 236 CURVE SMOOTH",
"145 236 LINE",
"145 167 LINE",
"286 167 LINE SMOOTH",
"484 167 OFFCURVE",
"576 249 OFFCURVE",
"576 384 CURVE SMOOTH",
"576 520 OFFCURVE",
"479 593 OFFCURVE",
"313 593 CURVE SMOOTH",
"145 593 LINE"
);
},
{
closed = 1;
nodes = (
"81 711 LINE",
"81 0 LINE",
"162 0 LINE",
"162 710 LINE"
);
}
);
width = 607;
},
{
background = {
paths = (
{
closed = 1;
nodes = (
"220 482 LINE",
"325 482 LINE SMOOTH",
"423 482 OFFCURVE",
"468 457 OFFCURVE",
"468 382 CURVE SMOOTH",
"468 309 OFFCURVE",
"418 279 OFFCURVE",
"312 279 CURVE SMOOTH",
"188 279 LINE",
"188 151 LINE",
"304 151 LINE SMOOTH",
"508 151 OFFCURVE",
"623 239 OFFCURVE",
"623 385 CURVE SMOOTH",
"623 531 OFFCURVE",
"523 609 OFFCURVE",
"328 609 CURVE SMOOTH",
"68 609 LINE",
"68 -101 LINE",
"220 -101 LINE"
);
}
);
};
layerId = "014D4A40-7C7F-4023-B30E-1F55CE5EA091";
paths = (
{
closed = 1;
nodes = (
"191 482 LINE",
"325 482 LINE SMOOTH",
"423 482 OFFCURVE",
"468 457 OFFCURVE",
"468 382 CURVE SMOOTH",
"468 309 OFFCURVE",
"418 279 OFFCURVE",
"312 279 CURVE SMOOTH",
"191 279 LINE",
"191 151 LINE",
"304 151 LINE SMOOTH",
"508 151 OFFCURVE",
"623 239 OFFCURVE",
"623 385 CURVE SMOOTH",
"623 531 OFFCURVE",
"523 609 OFFCURVE",
"328 609 CURVE SMOOTH",
"191 609 LINE"
);
},
{
closed = 1;
nodes = (
"68 710 LINE",
"68 0 LINE",
"220 0 LINE",
"220 710 LINE"
);
}
);
width = 638;
}
);
leftKerningGroup = H;
leftMetricsKey = H;
rightKerningGroup = P;
unicode = 00DE;
},
{
color = 4;
glyphname = Q;
lastChange = "2019-04-15 14:06:14 +0000";
layers = (
{
anchors = (
{
name = top;
position = "{384, 710}";
}
);
background = {
anchors = (
{
name = top;
position = "{384, 710}";
}
);
paths = (
{
closed = 1;
nodes = (
"571 -8 OFFCURVE",
"710 139 OFFCURVE",
"710 369 CURVE SMOOTH",
"710 580 OFFCURVE",
"585 720 OFFCURVE",
"398 720 CURVE SMOOTH",
"197 720 OFFCURVE",
"57 564 OFFCURVE",
"57 342 CURVE SMOOTH",
"57 120 OFFCURVE",
"180 -8 OFFCURVE",
"380 -8 CURVE SMOOTH"
);
},
{
closed = 1;
nodes = (
"231 68 OFFCURVE",
"140 166 OFFCURVE",
"140 342 CURVE SMOOTH",
"140 524 OFFCURVE",
"248 645 OFFCURVE",
"399 645 CURVE SMOOTH",
"539 645 OFFCURVE",
"628 538 OFFCURVE",
"628 371 CURVE SMOOTH",
"628 179 OFFCURVE",
"526 68 OFFCURVE",
"380 68 CURVE SMOOTH"
);
},
{
closed = 1;
nodes = (
"329 -10 LINE SMOOTH",
"329 -141 OFFCURVE",
"396 -208 OFFCURVE",
"514 -208 CURVE SMOOTH",
"602 -208 OFFCURVE",
"660 -160 OFFCURVE",
"672 -76 CURVE",
"606 -68 LINE",
"600 -112 OFFCURVE",
"566 -141 OFFCURVE",
"515 -141 CURVE SMOOTH",
"442 -141 OFFCURVE",
"409 -104 OFFCURVE",
"409 -12 CURVE SMOOTH",
"409 47 LINE",
"329 47 LINE"
);
}
);
};
guideLines = (
{
angle = 90;
position = "{739, 356}";
},
{
angle = 90;
position = "{802, 356}";
}
);
layerId = "A3B50665-EA37-4AC6-885C-1233CA61B6BD";
paths = (
{
closed = 1;
nodes = (
"329 -10 LINE SMOOTH",
"329 -141 OFFCURVE",
"396 -208 OFFCURVE",
"514 -208 CURVE SMOOTH",
"602 -208 OFFCURVE",
"660 -160 OFFCURVE",
"672 -76 CURVE",
"606 -68 LINE",
"600 -112 OFFCURVE",
"566 -141 OFFCURVE",
"515 -141 CURVE SMOOTH",
"442 -141 OFFCURVE",
"409 -104 OFFCURVE",
"409 -12 CURVE SMOOTH",
"409 47 LINE",
"329 47 LINE"
);
},
{
closed = 1;
nodes = (
"573 -8 OFFCURVE",
"713 139 OFFCURVE",
"713 369 CURVE SMOOTH",
"713 580 OFFCURVE",
"587 720 OFFCURVE",
"399 720 CURVE SMOOTH",
"197 720 OFFCURVE",
"57 564 OFFCURVE",
"57 342 CURVE SMOOTH",
"57 120 OFFCURVE",
"180 -8 OFFCURVE",
"381 -8 CURVE SMOOTH"
);
},
{
closed = 1;
nodes = (
"232 68 OFFCURVE",
"141 166 OFFCURVE",
"141 342 CURVE SMOOTH",
"141 524 OFFCURVE",
"249 644 OFFCURVE",
"400 644 CURVE SMOOTH",
"540 644 OFFCURVE",
"629 538 OFFCURVE",
"629 371 CURVE SMOOTH",
"629 179 OFFCURVE",
"527 68 OFFCURVE",
"381 68 CURVE SMOOTH"
);
}
);
width = 770;
},
{
anchors = (
{
name = top;
position = "{391, 710}";
}
);
background = {
anchors = (
{
name = top;
position = "{391, 710}";
}
);
paths = (
{
closed = 1;
nodes = (
"597 -8 OFFCURVE",
"743 139 OFFCURVE",
"743 369 CURVE SMOOTH",
"743 580 OFFCURVE",
"609 720 OFFCURVE",
"407 720 CURVE SMOOTH",
"179 720 OFFCURVE",
"38 564 OFFCURVE",
"38 342 CURVE SMOOTH",
"38 120 OFFCURVE",
"171 -12 OFFCURVE",
"394 -10 CURVE SMOOTH"
);
},
{
closed = 1;
nodes = (
"269 129 OFFCURVE",
"197 207 OFFCURVE",
"197 345 CURVE SMOOTH",
"197 486 OFFCURVE",
"283 582 OFFCURVE",
"403 582 CURVE SMOOTH",
"514 582 OFFCURVE",
"585 497 OFFCURVE",
"585 368 CURVE SMOOTH",
"585 217 OFFCURVE",
"504 129 OFFCURVE",
"388 129 CURVE SMOOTH"
);
},
{
closed = 1;
nodes = (
"311 5 LINE SMOOTH",
"311 -128 OFFCURVE",
"393 -210 OFFCURVE",
"530 -210 CURVE SMOOTH",
"630 -210 OFFCURVE",
"704 -161 OFFCURVE",
"716 -57 CURVE",
"590 -42 LINE",
"586 -71 OFFCURVE",
"563 -87 OFFCURVE",
"531 -87 CURVE SMOOTH",
"485 -87 OFFCURVE",
"463 -61 OFFCURVE",
"463 -4 CURVE SMOOTH",
"463 80 LINE",
"311 80 LINE"
);
}
);
};
layerId = "014D4A40-7C7F-4023-B30E-1F55CE5EA091";
paths = (
{
closed = 1;
nodes = (
"311 5 LINE SMOOTH",
"311 -128 OFFCURVE",
"393 -210 OFFCURVE",
"530 -210 CURVE SMOOTH",
"630 -210 OFFCURVE",
"704 -161 OFFCURVE",
"716 -57 CURVE",
"590 -42 LINE",
"586 -71 OFFCURVE",
"563 -87 OFFCURVE",
"531 -87 CURVE SMOOTH",
"485 -87 OFFCURVE",
"463 -61 OFFCURVE",
"463 -4 CURVE SMOOTH",
"463 80 LINE",
"311 80 LINE"
);
},
{
closed = 1;
nodes = (
"595 -8 OFFCURVE",
"742 139 OFFCURVE",
"742 369 CURVE SMOOTH",
"742 580 OFFCURVE",
"607 720 OFFCURVE",
"406 720 CURVE SMOOTH",
"179 720 OFFCURVE",
"38 564 OFFCURVE",
"38 342 CURVE SMOOTH",
"38 120 OFFCURVE",
"171 -12 OFFCURVE",
"393 -10 CURVE SMOOTH"
);
},
{
closed = 1;
nodes = (
"268 129 OFFCURVE",
"196 207 OFFCURVE",
"196 345 CURVE SMOOTH",
"196 486 OFFCURVE",
"282 582 OFFCURVE",
"402 582 CURVE SMOOTH",
"513 582 OFFCURVE",
"584 497 OFFCURVE",
"584 368 CURVE SMOOTH",
"584 217 OFFCURVE",
"503 129 OFFCURVE",
"387 129 CURVE SMOOTH"
);
}
);
width = 780;
}
);
leftKerningGroup = O;
leftMetricsKey = O;
widthMetricsKey = O;
rightKerningGroup = O;
unicode = 0051;
},
{
color = 4;
glyphname = R;
lastChange = "2019-04-15 14:06:34 +0000";
layers = (
{
anchors = (
{
name = bottom;
position = "{313, 0}";
},
{
name = top;
position = "{313, 710}";
}
);
background = {
anchors = (
{
name = bottom;
position = "{334, 0}";
},
{
name = top;
position = "{333, 710}";
}
);
paths = (
{
closed = 1;
nodes = (
"582 72 OFFCURVE",
"564 66 OFFCURVE",
"544 66 CURVE SMOOTH",
"499 66 OFFCURVE",
"481 79 OFFCURVE",
"443 134 CURVE SMOOTH",
"354 265 LINE SMOOTH",
"322 312 OFFCURVE",
"294 331 OFFCURVE",
"255 331 CURVE",
"249 321 LINE",
"298 321 LINE SMOOTH",
"425 321 OFFCURVE",
"531 386 OFFCURVE",
"531 516 CURVE SMOOTH",
"531 636 OFFCURVE",
"435 710 OFFCURVE",
"283 710 CURVE SMOOTH",
"81 710 LINE",
"81 0 LINE",
"162 0 LINE",
"162 642 LINE",
"277 642 LINE SMOOTH",
"387 642 OFFCURVE",
"450 594 OFFCURVE",
"450 514 CURVE SMOOTH",
"450 424 OFFCURVE",
"384 386 OFFCURVE",
"267 386 CURVE SMOOTH",
"146 386 LINE",
"146 319 LINE",
"186 319 LINE SMOOTH",
"210 319 OFFCURVE",
"235 301 OFFCURVE",
"253 275 CURVE SMOOTH",
"383 83 LINE SMOOTH",
"427 18 OFFCURVE",
"473 -6 OFFCURVE",
"531 -6 CURVE SMOOTH",
"566 -6 OFFCURVE",
"595 2 OFFCURVE",
"616 18 CURVE",
"598 82 LINE"
);
}
);
};
guideLines = (
{
angle = 124.1013;
position = "{422, 179}";
}
);
layerId = "A3B50665-EA37-4AC6-885C-1233CA61B6BD";
paths = (
{
closed = 1;
nodes = (
"582 72 OFFCURVE",
"564 66 OFFCURVE",
"544 66 CURVE SMOOTH",
"499 66 OFFCURVE",
"481 79 OFFCURVE",
"443 134 CURVE SMOOTH",
"354 265 LINE SMOOTH",
"322 312 OFFCURVE",
"294 331 OFFCURVE",
"255 331 CURVE",
"249 321 LINE",
"298 321 LINE SMOOTH",
"425 321 OFFCURVE",
"532 386 OFFCURVE",
"532 516 CURVE SMOOTH",
"532 636 OFFCURVE",
"444 710 OFFCURVE",
"283 710 CURVE SMOOTH",
"81 710 LINE",
"81 0 LINE",
"162 0 LINE",
"162 642 LINE",
"277 642 LINE SMOOTH",
"396 642 OFFCURVE",
"450 594 OFFCURVE",
"450 514 CURVE SMOOTH",
"450 424 OFFCURVE",
"384 385 OFFCURVE",
"267 385 CURVE SMOOTH",
"146 385 LINE",
"146 319 LINE",
"186 319 LINE SMOOTH",
"210 319 OFFCURVE",
"235 301 OFFCURVE",
"253 275 CURVE SMOOTH",
"383 83 LINE SMOOTH",
"427 18 OFFCURVE",
"473 -6 OFFCURVE",
"531 -6 CURVE SMOOTH",
"566 -6 OFFCURVE",
"595 2 OFFCURVE",
"616 18 CURVE",
"598 82 LINE"
);
}
);
width = 587;
},
{
anchors = (
{
name = bottom;
position = "{340, 0}";
},
{
name = top;
position = "{340, 710}";
}
);
background = {
anchors = (
{
name = bottom;
position = "{350, 0}";
},
{
name = top;
position = "{350, 710}";
}
);
paths = (
{
closed = 1;
nodes = (
"632 132 OFFCURVE",
"610 127 OFFCURVE",
"585 127 CURVE SMOOTH",
"548 127 OFFCURVE",
"524 141 OFFCURVE",
"500 177 CURVE SMOOTH",
"462 234 LINE SMOOTH",
"431 280 OFFCURVE",
"395 300 OFFCURVE",
"353 300 CURVE",
"309 282 LINE",
"336 282 LINE SMOOTH",
"483 282 OFFCURVE",
"589 357 OFFCURVE",
"589 491 CURVE SMOOTH",
"589 627 OFFCURVE",
"491 710 OFFCURVE",
"298 710 CURVE SMOOTH",
"68 710 LINE",
"68 0 LINE",
"221 0 LINE",
"221 583 LINE",
"290 583 LINE SMOOTH",
"381 583 OFFCURVE",
"433 555 OFFCURVE",
"433 492 CURVE SMOOTH",
"433 428 OFFCURVE",
"390 400 OFFCURVE",
"286 400 CURVE SMOOTH",
"188 400 LINE",
"188 279 LINE",
"215 279 LINE SMOOTH",
"243 279 OFFCURVE",
"265 270 OFFCURVE",
"288 234 CURVE SMOOTH",
"377 93 LINE SMOOTH",
"419 26 OFFCURVE",
"483 -10 OFFCURVE",
"566 -10 CURVE SMOOTH",
"613 -10 OFFCURVE",
"661 4 OFFCURVE",
"689 26 CURVE",
"653 146 LINE"
);
}
);
};
guideLines = (
{
angle = 122.1118;
position = "{513, 170}";
}
);
layerId = "014D4A40-7C7F-4023-B30E-1F55CE5EA091";
paths = (
{
closed = 1;
nodes = (
"632 132 OFFCURVE",
"610 127 OFFCURVE",
"585 127 CURVE SMOOTH",
"548 127 OFFCURVE",
"524 141 OFFCURVE",
"500 177 CURVE SMOOTH",
"462 234 LINE SMOOTH",
"431 280 OFFCURVE",
"395 300 OFFCURVE",
"353 300 CURVE",
"309 282 LINE",
"336 282 LINE SMOOTH",
"477 282 OFFCURVE",
"588 357 OFFCURVE",
"588 491 CURVE SMOOTH",
"588 627 OFFCURVE",
"491 710 OFFCURVE",
"300 710 CURVE SMOOTH",
"68 710 LINE",
"68 0 LINE",
"221 0 LINE",
"221 583 LINE",
"290 583 LINE SMOOTH",
"381 583 OFFCURVE",
"433 555 OFFCURVE",
"433 492 CURVE SMOOTH",
"433 428 OFFCURVE",
"390 400 OFFCURVE",
"286 400 CURVE SMOOTH",
"188 400 LINE",
"188 279 LINE",
"215 279 LINE SMOOTH",
"243 279 OFFCURVE",
"264 270 OFFCURVE",
"287 234 CURVE SMOOTH",
"376 93 LINE SMOOTH",
"418 26 OFFCURVE",
"483 -10 OFFCURVE",
"566 -10 CURVE SMOOTH",
"613 -10 OFFCURVE",
"661 4 OFFCURVE",
"689 26 CURVE",
"653 146 LINE"
);
}
);
width = 649;
}
);
leftKerningGroup = H;
leftMetricsKey = H;
rightKerningGroup = R;
unicode = 0052;
},
{
color = 4;
glyphname = S;
lastChange = "2019-04-15 14:06:48 +0000";
layers = (
{
anchors = (
{
name = bottom;
position = "{290, 0}";
},
{
name = top;
position = "{290, 710}";
}
);
background = {
anchors = (
{
name = bottom;
position = "{281, 0}";
},
{
name = top;
position = "{281, 710}";
}
);
paths = (
{
closed = 1;
nodes = (
"433 -8 OFFCURVE",
"532 72 OFFCURVE",
"532 188 CURVE SMOOTH",
"532 455 OFFCURVE",
"155 309 OFFCURVE",
"155 517 CURVE SMOOTH",
"155 596 OFFCURVE",
"213 648 OFFCURVE",
"301 648 CURVE SMOOTH",
"388 648 OFFCURVE",
"435 608 OFFCURVE",
"453 518 CURVE",
"525 530 LINE",
"510 649 OFFCURVE",
"428 720 OFFCURVE",
"303 720 CURVE SMOOTH",
"170 720 OFFCURVE",
"73 633 OFFCURVE",
"73 514 CURVE SMOOTH",
"73 234 OFFCURVE",
"450 377 OFFCURVE",
"450 187 CURVE SMOOTH",
"450 111 OFFCURVE",
"392 65 OFFCURVE",
"296 65 CURVE SMOOTH",
"181 65 OFFCURVE",
"125 111 OFFCURVE",
"106 221 CURVE",
"29 210 LINE",
"45 66 OFFCURVE",
"134 -8 OFFCURVE",
"290 -8 CURVE SMOOTH"
);
}
);
};
layerId = "A3B50665-EA37-4AC6-885C-1233CA61B6BD";
paths = (
{
closed = 1;
nodes = (
"433 -8 OFFCURVE",
"532 72 OFFCURVE",
"532 188 CURVE SMOOTH",
"532 455 OFFCURVE",
"155 309 OFFCURVE",
"155 517 CURVE SMOOTH",
"155 596 OFFCURVE",
"213 648 OFFCURVE",
"301 648 CURVE SMOOTH",
"388 648 OFFCURVE",
"435 608 OFFCURVE",
"453 518 CURVE",
"525 530 LINE",
"510 649 OFFCURVE",
"428 720 OFFCURVE",
"303 720 CURVE SMOOTH",
"170 720 OFFCURVE",
"73 633 OFFCURVE",
"73 514 CURVE SMOOTH",
"73 234 OFFCURVE",
"450 377 OFFCURVE",
"450 187 CURVE SMOOTH",
"450 111 OFFCURVE",
"392 64 OFFCURVE",
"296 64 CURVE SMOOTH",
"181 64 OFFCURVE",
"125 111 OFFCURVE",
"106 221 CURVE",
"29 210 LINE",
"45 66 OFFCURVE",
"134 -8 OFFCURVE",
"290 -8 CURVE SMOOTH"
);
}
);
width = 568;
},
{
anchors = (
{
name = bottom;
position = "{306, 0}";
},
{
name = top;
position = "{306, 710}";
}
);
background = {
anchors = (
{
name = bottom;
position = "{297, 0}";
},
{
name = top;
position = "{297, 710}";
}
);
paths = (
{
closed = 1;
nodes = (
"462 -9 OFFCURVE",
"574 80 OFFCURVE",
"574 210 CURVE SMOOTH",
"574 464 OFFCURVE",
"218 368 OFFCURVE",
"218 509 CURVE SMOOTH",
"218 558 OFFCURVE",
"257 590 OFFCURVE",
"317 590 CURVE SMOOTH",
"379 590 OFFCURVE",
"420 558 OFFCURVE",
"431 500 CURVE",
"567 523 LINE",
"553 645 OFFCURVE",
"460 720 OFFCURVE",
"324 720 CURVE SMOOTH",
"166 720 OFFCURVE",
"58 628 OFFCURVE",
"58 497 CURVE SMOOTH",
"58 234 OFFCURVE",
"414 325 OFFCURVE",
"414 197 CURVE SMOOTH",
"414 149 OFFCURVE",
"374 122 OFFCURVE",
"302 122 CURVE SMOOTH",
"217 122 OFFCURVE",
"168 160 OFFCURVE",
"159 233 CURVE",
"15 212 LINE",
"27 67 OFFCURVE",
"124 -9 OFFCURVE",
"296 -9 CURVE SMOOTH"
);
}
);
};
layerId = "014D4A40-7C7F-4023-B30E-1F55CE5EA091";
paths = (
{
closed = 1;
nodes = (
"462 -9 OFFCURVE",
"574 80 OFFCURVE",
"574 210 CURVE SMOOTH",
"574 464 OFFCURVE",
"215 368 OFFCURVE",
"215 509 CURVE SMOOTH",
"215 558 OFFCURVE",
"256 590 OFFCURVE",
"317 590 CURVE SMOOTH",
"379 590 OFFCURVE",
"420 558 OFFCURVE",
"431 500 CURVE",
"568 523 LINE",
"554 645 OFFCURVE",
"461 720 OFFCURVE",
"324 720 CURVE SMOOTH",
"166 720 OFFCURVE",
"58 628 OFFCURVE",
"58 497 CURVE SMOOTH",
"57 234 OFFCURVE",
"417 325 OFFCURVE",
"417 197 CURVE SMOOTH",
"417 149 OFFCURVE",
"375 121 OFFCURVE",
"302 121 CURVE SMOOTH",
"217 121 OFFCURVE",
"168 160 OFFCURVE",
"159 233 CURVE",
"14 212 LINE",
"26 67 OFFCURVE",
"123 -9 OFFCURVE",
"296 -9 CURVE SMOOTH"
);
}
);
width = 596;
}
);
leftKerningGroup = S;
note = s;
rightKerningGroup = S;
unicode = 0053;
},
{
color = 4;
glyphname = Germandbls;
lastChange = "2019-04-15 14:06:52 +0000";
layers = (
{
background = {
paths = (
{
closed = 1;
nodes = (
"188 720 OFFCURVE",
"81 617 OFFCURVE",
"81 432 CURVE SMOOTH",
"81 0 LINE",
"164 0 LINE",
"164 434 LINE SMOOTH",
"164 576 OFFCURVE",
"237 649 OFFCURVE",
"382 649 CURVE SMOOTH",
"485 649 OFFCURVE",
"547 599 OFFCURVE",
"547 517 CURVE SMOOTH",
"547 440 OFFCURVE",
"492 392 OFFCURVE",
"408 392 CURVE SMOOTH",
"354 392 LINE",
"354 323 LINE",
"409 323 LINE SMOOTH",
"512 323 OFFCURVE",
"571 273 OFFCURVE",
"571 183 CURVE SMOOTH",
"571 110 OFFCURVE",
"521 64 OFFCURVE",
"444 64 CURVE SMOOTH",
"358 64 OFFCURVE",
"307 107 OFFCURVE",
"291 194 CURVE",
"220 174 LINE",
"239 58 OFFCURVE",
"319 -8 OFFCURVE",
"444 -8 CURVE SMOOTH",
"569 -8 OFFCURVE",
"652 66 OFFCURVE",
"652 178 CURVE SMOOTH",
"652 280 OFFCURVE",
"589 351 OFFCURVE",
"483 370 CURVE",
"483 351 LINE",
"571 372 OFFCURVE",
"628 430 OFFCURVE",
"628 520 CURVE SMOOTH",
"628 641 OFFCURVE",
"532 720 OFFCURVE",
"382 720 CURVE SMOOTH"
);
}
);
};
layerId = "A3B50665-EA37-4AC6-885C-1233CA61B6BD";
paths = (
{
closed = 1;
nodes = (
"188 720 OFFCURVE",
"81 617 OFFCURVE",
"81 432 CURVE SMOOTH",
"81 0 LINE",
"164 0 LINE",
"164 434 LINE SMOOTH",
"164 576 OFFCURVE",
"237 649 OFFCURVE",
"382 649 CURVE SMOOTH",
"485 649 OFFCURVE",
"547 599 OFFCURVE",
"547 517 CURVE SMOOTH",
"547 440 OFFCURVE",
"492 392 OFFCURVE",
"408 392 CURVE SMOOTH",
"354 392 LINE",
"354 323 LINE",
"409 323 LINE SMOOTH",
"512 323 OFFCURVE",
"571 273 OFFCURVE",
"571 183 CURVE SMOOTH",
"571 110 OFFCURVE",
"521 63 OFFCURVE",
"444 63 CURVE SMOOTH",
"358 63 OFFCURVE",
"307 107 OFFCURVE",
"291 194 CURVE",
"220 174 LINE",
"239 58 OFFCURVE",
"319 -8 OFFCURVE",
"444 -8 CURVE SMOOTH",
"569 -8 OFFCURVE",
"653 66 OFFCURVE",
"653 178 CURVE SMOOTH",
"653 280 OFFCURVE",
"589 351 OFFCURVE",
"483 370 CURVE",
"483 351 LINE",
"571 372 OFFCURVE",
"629 430 OFFCURVE",
"629 520 CURVE SMOOTH",
"629 641 OFFCURVE",
"532 720 OFFCURVE",
"382 720 CURVE SMOOTH"
);
}
);
width = 701;
},
{
background = {
paths = (
{
closed = 1;
nodes = (
"188 720 OFFCURVE",
"68 606 OFFCURVE",
"68 396 CURVE SMOOTH",
"68 0 LINE",
"224 0 LINE",
"224 399 LINE SMOOTH",
"224 528 OFFCURVE",
"285 590 OFFCURVE",
"412 590 CURVE SMOOTH",
"489 590 OFFCURVE",
"540 558 OFFCURVE",
"540 503 CURVE SMOOTH",
"540 448 OFFCURVE",
"502 423 OFFCURVE",
"424 423 CURVE SMOOTH",
"373 423 LINE",
"373 294 LINE",
"443 294 LINE SMOOTH",
"525 294 OFFCURVE",
"566 264 OFFCURVE",
"566 203 CURVE SMOOTH",
"566 153 OFFCURVE",
"536 123 OFFCURVE",
"486 123 CURVE SMOOTH",
"433 123 OFFCURVE",
"397 157 OFFCURVE",
"390 214 CURVE",
"259 179 LINE",
"279 60 OFFCURVE",
"361 -10 OFFCURVE",
"489 -10 CURVE SMOOTH",
"626 -10 OFFCURVE",
"716 68 OFFCURVE",
"716 188 CURVE SMOOTH",
"716 282 OFFCURVE",
"658 350 OFFCURVE",
"556 375 CURVE",
"554 355 LINE",
"642 376 OFFCURVE",
"690 430 OFFCURVE",
"690 515 CURVE SMOOTH",
"690 641 OFFCURVE",
"581 720 OFFCURVE",
"413 720 CURVE SMOOTH"
);
}
);
};
layerId = "014D4A40-7C7F-4023-B30E-1F55CE5EA091";
paths = (
{
closed = 1;
nodes = (
"188 720 OFFCURVE",
"68 606 OFFCURVE",
"68 392 CURVE SMOOTH",
"68 0 LINE",
"224 0 LINE",
"224 399 LINE SMOOTH",
"224 528 OFFCURVE",
"285 589 OFFCURVE",
"412 589 CURVE SMOOTH",
"489 589 OFFCURVE",
"540 558 OFFCURVE",
"540 503 CURVE SMOOTH",
"540 448 OFFCURVE",
"502 423 OFFCURVE",
"424 423 CURVE SMOOTH",
"373 423 LINE",
"373 294 LINE",
"443 294 LINE SMOOTH",
"525 294 OFFCURVE",
"566 264 OFFCURVE",
"566 203 CURVE SMOOTH",
"566 153 OFFCURVE",
"536 123 OFFCURVE",
"486 123 CURVE SMOOTH",
"433 123 OFFCURVE",
"397 157 OFFCURVE",
"390 214 CURVE",
"257 179 LINE",
"277 60 OFFCURVE",
"359 -10 OFFCURVE",
"489 -10 CURVE SMOOTH",
"631 -10 OFFCURVE",
"721 68 OFFCURVE",
"721 188 CURVE SMOOTH",
"721 282 OFFCURVE",
"663 351 OFFCURVE",
"561 376 CURVE",
"559 356 LINE",
"647 377 OFFCURVE",
"695 430 OFFCURVE",
"695 515 CURVE SMOOTH",
"695 641 OFFCURVE",
"586 720 OFFCURVE",
"413 720 CURVE SMOOTH"
);
}
);
width = 746;
}
);
leftKerningGroup = H;
leftMetricsKey = H;
rightKerningGroup = B;
rightMetricsKey = B;
unicode = 1E9E;
},
{
color = 3;
glyphname = Schwa;
lastChange = "2019-04-15 14:06:55 +0000";
layers = (
{
background = {
paths = (
{
closed = 1;
nodes = (
"1357 -8 OFFCURVE",
"1497 139 OFFCURVE",
"1497 369 CURVE SMOOTH",
"1497 580 OFFCURVE",
"1371 720 OFFCURVE",
"1183 720 CURVE SMOOTH",
"981 720 OFFCURVE",
"841 564 OFFCURVE",
"841 342 CURVE SMOOTH",
"841 120 OFFCURVE",
"964 -8 OFFCURVE",
"1165 -8 CURVE SMOOTH"
);
},
{
closed = 1;
nodes = (
"1016 68 OFFCURVE",
"925 166 OFFCURVE",
"925 342 CURVE SMOOTH",
"925 524 OFFCURVE",
"1033 644 OFFCURVE",
"1184 644 CURVE SMOOTH",
"1324 644 OFFCURVE",
"1413 538 OFFCURVE",
"1413 371 CURVE SMOOTH",
"1413 179 OFFCURVE",
"1311 68 OFFCURVE",
"1165 68 CURVE SMOOTH"
);
},
{
closed = 1;
nodes = (
"168 528 LINE",
"209 604 OFFCURVE",
"279 644 OFFCURVE",
"371 644 CURVE SMOOTH",
"523 644 OFFCURVE",
"613 543 OFFCURVE",
"613 370 CURVE SMOOTH",
"613 191 OFFCURVE",
"507 68 OFFCURVE",
"356 68 CURVE SMOOTH",
"271 68 OFFCURVE",
"208 103 OFFCURVE",
"168 175 CURVE",
"104 127 LINE",
"156 38 OFFCURVE",
"242 -8 OFFCURVE",
"354 -8 CURVE SMOOTH",
"558 -8 OFFCURVE",
"697 146 OFFCURVE",
"697 370 CURVE SMOOTH",
"697 588 OFFCURVE",
"574 720 OFFCURVE",
"371 720 CURVE SMOOTH",
"253 720 OFFCURVE",
"157 669 OFFCURVE",
"105 576 CURVE"
);
},
{
closed = 1;
nodes = (
"246 720 OFFCURVE",
"146 671 OFFCURVE",
"85 576 CURVE",
"148 528 LINE",
"199 607 OFFCURVE",
"272 644 OFFCURVE",
"371 644 CURVE SMOOTH",
"520 644 OFFCURVE",
"614 551 OFFCURVE",
"614 372 CURVE SMOOTH",
"614 351 LINE SMOOTH",
"614 154 OFFCURVE",
"509 65 OFFCURVE",
"371 65 CURVE SMOOTH",
"215 65 OFFCURVE",
"132 169 OFFCURVE",
"146 334 CURVE",
"127 317 LINE",
"656 317 LINE",
"656 386 LINE",
"61 386 LINE",
"33 146 OFFCURVE",
"153 -8 OFFCURVE",
"371 -8 CURVE SMOOTH",
"561 -8 OFFCURVE",
"697 126 OFFCURVE",
"697 366 CURVE SMOOTH",
"697 587 OFFCURVE",
"572 720 OFFCURVE",
"371 720 CURVE SMOOTH"
);
}
);
};
layerId = "A3B50665-EA37-4AC6-885C-1233CA61B6BD";
paths = (
{
closed = 1;
nodes = (
"252 720 OFFCURVE",
"152 671 OFFCURVE",
"91 576 CURVE",
"154 528 LINE",
"205 607 OFFCURVE",
"278 644 OFFCURVE",
"374 644 CURVE SMOOTH",
"520 644 OFFCURVE",
"614 551 OFFCURVE",
"614 368 CURVE SMOOTH",
"614 347 LINE SMOOTH",
"614 154 OFFCURVE",
"509 65 OFFCURVE",
"371 65 CURVE SMOOTH",
"215 65 OFFCURVE",
"132 169 OFFCURVE",
"146 330 CURVE",
"127 313 LINE",
"656 313 LINE",
"656 382 LINE",
"61 382 LINE",
"33 146 OFFCURVE",
"152 -8 OFFCURVE",
"369 -8 CURVE SMOOTH",
"560 -8 OFFCURVE",
"697 126 OFFCURVE",
"697 366 CURVE SMOOTH",
"697 587 OFFCURVE",
"572 720 OFFCURVE",
"374 720 CURVE SMOOTH"
);
}
);
width = 754;
},
{
background = {
paths = (
{
closed = 1;
nodes = (
"204 481 LINE",
"242 549 OFFCURVE",
"309 581 OFFCURVE",
"376 581 CURVE SMOOTH",
"505 581 OFFCURVE",
"580 502 OFFCURVE",
"580 366 CURVE SMOOTH",
"580 226 OFFCURVE",
"492 129 OFFCURVE",
"364 129 CURVE SMOOTH",
"301 129 OFFCURVE",
"240 156 OFFCURVE",
"206 219 CURVE",
"87 134 LINE",
"149 37 OFFCURVE",
"235 -10 OFFCURVE",
"363 -10 CURVE SMOOTH",
"586 -10 OFFCURVE",
"739 144 OFFCURVE",
"739 369 CURVE SMOOTH",
"739 588 OFFCURVE",
"605 720 OFFCURVE",
"378 720 CURVE SMOOTH",
"253 720 OFFCURVE",
"146 667 OFFCURVE",
"88 571 CURVE"
);
},
{
closed = 1;
nodes = (
"-508 -8 OFFCURVE",
"-361 139 OFFCURVE",
"-361 369 CURVE SMOOTH",
"-361 580 OFFCURVE",
"-496 720 OFFCURVE",
"-697 720 CURVE SMOOTH",
"-924 720 OFFCURVE",
"-1065 564 OFFCURVE",
"-1065 342 CURVE SMOOTH",
"-1065 120 OFFCURVE",
"-932 -12 OFFCURVE",
"-710 -10 CURVE SMOOTH"
);
},
{
closed = 1;
nodes = (
"-835 129 OFFCURVE",
"-907 207 OFFCURVE",
"-907 345 CURVE SMOOTH",
"-907 486 OFFCURVE",
"-821 582 OFFCURVE",
"-701 582 CURVE SMOOTH",
"-590 582 OFFCURVE",
"-519 497 OFFCURVE",
"-519 368 CURVE SMOOTH",
"-519 217 OFFCURVE",
"-600 129 OFFCURVE",
"-716 129 CURVE SMOOTH"
);
},
{
closed = 1;
nodes = (
"244 720 OFFCURVE",
"133 661 OFFCURVE",
"68 571 CURVE",
"184 481 LINE",
"230 547 OFFCURVE",
"300 581 OFFCURVE",
"381 581 CURVE SMOOTH",
"506 581 OFFCURVE",
"580 505 OFFCURVE",
"580 383 CURVE SMOOTH",
"580 349 LINE SMOOTH",
"580 210 OFFCURVE",
"510 127 OFFCURVE",
"389 127 CURVE SMOOTH",
"265 127 OFFCURVE",
"207 186 OFFCURVE",
"210 304 CURVE",
"178 282 LINE",
"648 282 LINE",
"648 409 LINE",
"43 409 LINE",
"8 158 OFFCURVE",
"144 -10 OFFCURVE",
"383 -10 CURVE SMOOTH",
"591 -10 OFFCURVE",
"739 145 OFFCURVE",
"739 364 CURVE SMOOTH",
"739 584 OFFCURVE",
"604 720 OFFCURVE",
"380 720 CURVE SMOOTH"
);
}
);
};
layerId = "014D4A40-7C7F-4023-B30E-1F55CE5EA091";
paths = (
{
closed = 1;
nodes = (
"244 720 OFFCURVE",
"133 661 OFFCURVE",
"68 571 CURVE",
"184 481 LINE",
"230 547 OFFCURVE",
"300 581 OFFCURVE",
"381 581 CURVE SMOOTH",
"506 581 OFFCURVE",
"580 505 OFFCURVE",
"580 380 CURVE SMOOTH",
"580 346 LINE SMOOTH",
"580 210 OFFCURVE",
"510 127 OFFCURVE",
"389 127 CURVE SMOOTH",
"265 127 OFFCURVE",
"208 186 OFFCURVE",
"208 301 CURVE",
"178 279 LINE",
"648 279 LINE",
"648 406 LINE",
"43 406 LINE",
"8 158 OFFCURVE",
"144 -10 OFFCURVE",
"383 -10 CURVE SMOOTH",
"591 -10 OFFCURVE",
"739 145 OFFCURVE",
"739 364 CURVE SMOOTH",
"739 584 OFFCURVE",
"604 720 OFFCURVE",
"380 720 CURVE SMOOTH"
);
}
);
width = 777;
}
);
leftKerningGroup = O;
leftMetricsKey = O;
rightKerningGroup = O;
rightMetricsKey = O;
unicode = 018F;
},
{
color = 4;
glyphname = T;
lastChange = "2019-04-15 14:07:00 +0000";
layers = (
{
anchors = (
{
name = bottom;
position = "{275, 0}";
},
{
name = stroke;
position = "{275, 360}";
},
{
name = top;
position = "{275, 710}";
}
);
background = {
anchors = (
{
name = bottom;
position = "{275, 0}";
},
{
name = stroke;
position = "{275, 360}";
},
{
name = top;
position = "{275, 710}";
}
);
paths = (
{
closed = 1;
nodes = (
"1 710 LINE",
"1 639 LINE",
"233 639 LINE",
"233 0 LINE",
"316 0 LINE",
"316 639 LINE",
"543 639 LINE",
"553 710 LINE"
);
}
);
};
layerId = "A3B50665-EA37-4AC6-885C-1233CA61B6BD";
paths = (
{
closed = 1;
nodes = (
"1 710 LINE",
"1 638 LINE",
"233 638 LINE",
"233 0 LINE",
"316 0 LINE",
"316 638 LINE",
"543 638 LINE",
"550 710 LINE"
);
}
);
width = 549;
},
{
anchors = (
{
name = bottom;
position = "{294, 0}";
},
{
name = stroke;
position = "{294, 360}";
},
{
name = top;
position = "{294, 710}";
}
);
background = {
anchors = (
{
name = bottom;
position = "{294, 0}";
},
{
name = stroke;
position = "{294, 360}";
},
{
name = top;
position = "{294, 710}";
}
);
paths = (
{
closed = 1;
nodes = (
"-10 710 LINE",
"-10 576 LINE",
"216 576 LINE",
"216 0 LINE",
"372 0 LINE",
"372 576 LINE",
"588 576 LINE",
"608 710 LINE"
);
}
);
};
layerId = "014D4A40-7C7F-4023-B30E-1F55CE5EA091";
paths = (
{
closed = 1;
nodes = (
"-10 710 LINE",
"-10 574 LINE",
"216 574 LINE",
"216 0 LINE",
"372 0 LINE",
"372 574 LINE",
"588 574 LINE",
"608 710 LINE"
);
}
);
width = 588;
}
);
leftKerningGroup = T;
rightKerningGroup = T;
unicode = 0054;
},
{
color = 4;
glyphname = U;
lastChange = "2019-04-15 14:07:19 +0000";
layers = (
{
anchors = (
{
name = bottom;
position = "{363, 0}";
},
{
name = ogonek;
position = "{451, 0}";
},
{
name = top;
position = "{363, 710}";
},
{
name = topright;
position = "{665, 710}";
}
);
background = {
anchors = (
{
name = bottom;
position = "{362, 0}";
},
{
name = ogonek;
position = "{451, 0}";
},
{
name = top;
position = "{362, 710}";
},
{
name = topright;
position = "{665, 710}";
}
);
paths = (
{
closed = 1;
nodes = (
"564 342 LINE SMOOTH",
"565 155 OFFCURVE",
"503 68 OFFCURVE",
"358 68 CURVE SMOOTH",
"221 68 OFFCURVE",
"162 140 OFFCURVE",
"162 307 CURVE SMOOTH",
"162 710 LINE",
"78 710 LINE",
"78 303 LINE SMOOTH",
"78 88 OFFCURVE",
"170 -8 OFFCURVE",
"358 -8 CURVE SMOOTH",
"549 -8 OFFCURVE",
"647 115 OFFCURVE",
"646 340 CURVE SMOOTH",
"645 710 LINE",
"563 710 LINE"
);
}
);
};
guideLines = (
{
angle = 90;
position = "{740, 356}";
},
{
angle = 90;
position = "{803, 356}";
}
);
layerId = "A3B50665-EA37-4AC6-885C-1233CA61B6BD";
paths = (
{
closed = 1;
nodes = (
"564 342 LINE SMOOTH",
"565 155 OFFCURVE",
"503 68 OFFCURVE",
"358 68 CURVE SMOOTH",
"221 68 OFFCURVE",
"162 140 OFFCURVE",
"162 307 CURVE SMOOTH",
"162 710 LINE",
"78 710 LINE",
"78 303 LINE SMOOTH",
"78 88 OFFCURVE",
"170 -8 OFFCURVE",
"358 -8 CURVE SMOOTH",
"549 -8 OFFCURVE",
"647 115 OFFCURVE",
"646 340 CURVE SMOOTH",
"645 710 LINE",
"563 710 LINE"
);
}
);
width = 724;
},
{
anchors = (
{
name = bottom;
position = "{378, 0}";
},
{
name = ogonek;
position = "{480, 0}";
},
{
name = top;
position = "{378, 710}";
},
{
name = topright;
position = "{661, 710}";
}
);
background = {
anchors = (
{
name = bottom;
position = "{379, 0}";
},
{
name = ogonek;
position = "{480, 0}";
},
{
name = top;
position = "{379, 710}";
},
{
name = topright;
position = "{661, 710}";
}
);
paths = (
{
closed = 1;
nodes = (
"537 336 LINE SMOOTH",
"538 194 OFFCURVE",
"482 129 OFFCURVE",
"381 129 CURVE SMOOTH",
"278 129 OFFCURVE",
"221 183 OFFCURVE",
"221 313 CURVE SMOOTH",
"221 710 LINE",
"65 710 LINE",
"65 300 LINE SMOOTH",
"65 94 OFFCURVE",
"174 -12 OFFCURVE",
"384 -10 CURVE SMOOTH",
"573 -8 OFFCURVE",
"694 123 OFFCURVE",
"693 327 CURVE SMOOTH",
"691 710 LINE",
"535 710 LINE"
);
}
);
};
layerId = "014D4A40-7C7F-4023-B30E-1F55CE5EA091";
paths = (
{
closed = 1;
nodes = (
"537 336 LINE SMOOTH",
"538 194 OFFCURVE",
"482 129 OFFCURVE",
"381 129 CURVE SMOOTH",
"278 129 OFFCURVE",
"221 183 OFFCURVE",
"221 313 CURVE SMOOTH",
"221 710 LINE",
"65 710 LINE",
"65 300 LINE SMOOTH",
"65 94 OFFCURVE",
"174 -12 OFFCURVE",
"384 -10 CURVE SMOOTH",
"572 -8 OFFCURVE",
"692 123 OFFCURVE",
"691 327 CURVE SMOOTH",
"689 710 LINE",
"535 710 LINE"
);
}
);
width = 756;
}
);
leftKerningGroup = U;
rightKerningGroup = U;
rightMetricsKey = "=|";
unicode = 0055;
},
{
color = 4;
glyphname = Uogonek;
lastChange = "2019-04-15 14:07:31 +0000";
layers = (
{
anchors = (
{
name = top;
position = "{362, 710}";
}
);
background = {
paths = (
{
closed = 1;
nodes = (
"564 342 LINE SMOOTH",
"565 155 OFFCURVE",
"503 68 OFFCURVE",
"358 68 CURVE SMOOTH",
"221 68 OFFCURVE",
"162 140 OFFCURVE",
"162 307 CURVE SMOOTH",
"162 710 LINE",
"78 710 LINE",
"78 303 LINE SMOOTH",
"78 88 OFFCURVE",
"170 -8 OFFCURVE",
"358 -8 CURVE SMOOTH",
"549 -8 OFFCURVE",
"647 115 OFFCURVE",
"646 340 CURVE SMOOTH",
"645 710 LINE",
"563 710 LINE"
);
}
);
};
layerId = "A3B50665-EA37-4AC6-885C-1233CA61B6BD";
paths = (
{
closed = 1;
nodes = (
"433 -223 OFFCURVE",
"472 -203 OFFCURVE",
"492 -173 CURVE",
"462 -132 LINE",
"441 -158 OFFCURVE",
"421 -170 OFFCURVE",
"399 -170 CURVE SMOOTH",
"365 -170 OFFCURVE",
"346 -150 OFFCURVE",
"346 -118 CURVE SMOOTH",
"346 -74 OFFCURVE",
"382 -26 OFFCURVE",
"480 13 CURVE SMOOTH",
"589 57 OFFCURVE",
"647 168 OFFCURVE",
"646 340 CURVE SMOOTH",
"645 710 LINE",
"563 710 LINE",
"564 342 LINE SMOOTH",
"565 155 OFFCURVE",
"503 68 OFFCURVE",
"358 68 CURVE SMOOTH",
"221 68 OFFCURVE",
"162 140 OFFCURVE",
"162 307 CURVE SMOOTH",
"162 710 LINE",
"78 710 LINE",
"78 303 LINE SMOOTH",
"78 88 OFFCURVE",
"170 -8 OFFCURVE",
"358 -8 CURVE SMOOTH",
"383 -8 LINE",
"381 10 LINE",
"319 -20 OFFCURVE",
"279 -73 OFFCURVE",
"279 -126 CURVE SMOOTH",
"279 -184 OFFCURVE",
"322 -223 OFFCURVE",
"394 -223 CURVE SMOOTH"
);
}
);
width = 724;
},
{
anchors = (
{
name = top;
position = "{379, 710}";
}
);
background = {
paths = (
{
closed = 1;
nodes = (
"537 336 LINE SMOOTH",
"538 194 OFFCURVE",
"482 129 OFFCURVE",
"381 129 CURVE SMOOTH",
"278 129 OFFCURVE",
"221 183 OFFCURVE",
"221 313 CURVE SMOOTH",
"221 710 LINE",
"65 710 LINE",
"65 300 LINE SMOOTH",
"65 94 OFFCURVE",
"174 -12 OFFCURVE",
"384 -10 CURVE SMOOTH",
"572 -8 OFFCURVE",
"692 123 OFFCURVE",
"691 327 CURVE SMOOTH",
"689 710 LINE",
"535 710 LINE"
);
}
);
};
layerId = "014D4A40-7C7F-4023-B30E-1F55CE5EA091";
paths = (
{
closed = 1;
nodes = (
"467 -223 OFFCURVE",
"513 -204 OFFCURVE",
"536 -173 CURVE",
"487 -103 LINE",
"472 -122 OFFCURVE",
"450 -134 OFFCURVE",
"432 -134 CURVE SMOOTH",
"404 -134 OFFCURVE",
"388 -120 OFFCURVE",
"388 -96 CURVE SMOOTH",
"388 -62 OFFCURVE",
"409 -28 OFFCURVE",
"508 13 CURVE SMOOTH",
"624 61 OFFCURVE",
"692 172 OFFCURVE",
"691 327 CURVE SMOOTH",
"689 710 LINE",
"535 710 LINE",
"537 336 LINE SMOOTH",
"538 194 OFFCURVE",
"482 129 OFFCURVE",
"381 129 CURVE SMOOTH",
"278 129 OFFCURVE",
"221 183 OFFCURVE",
"221 313 CURVE SMOOTH",
"221 710 LINE",
"65 710 LINE",
"65 300 LINE SMOOTH",
"65 94 OFFCURVE",
"174 -12 OFFCURVE",
"384 -10 CURVE SMOOTH",
"404 -10 LINE",
"384 23 LINE",
"298 -10 OFFCURVE",
"266 -61 OFFCURVE",
"266 -112 CURVE SMOOTH",
"266 -178 OFFCURVE",
"328 -223 OFFCURVE",
"416 -223 CURVE SMOOTH"
);
}
);
width = 756;
}
);
leftKerningGroup = U;
leftMetricsKey = U;
widthMetricsKey = U;
rightKerningGroup = U;
unicode = 0172;
},
{
color = 4;
glyphname = Uhorn;
lastChange = "2019-04-15 14:07:33 +0000";
layers = (
{
anchors = (
{
name = bottom;
position = "{363, 0}";
},
{
name = top;
position = "{363, 710}";
}
);
background = {
paths = (
{
closed = 1;
nodes = (
"549 -8 OFFCURVE",
"647 115 OFFCURVE",
"646 340 CURVE SMOOTH",
"645 710 LINE",
"563 710 LINE",
"564 342 LINE SMOOTH",
"565 155 OFFCURVE",
"503 68 OFFCURVE",
"358 68 CURVE SMOOTH",
"221 68 OFFCURVE",
"162 140 OFFCURVE",
"162 307 CURVE SMOOTH",
"162 710 LINE",
"78 710 LINE",
"78 303 LINE SMOOTH",
"78 88 OFFCURVE",
"170 -8 OFFCURVE",
"358 -8 CURVE SMOOTH"
);
},
{
closed = 1;
nodes = (
"642 647 LINE SMOOTH",
"732 647 OFFCURVE",
"785 714 OFFCURVE",
"780 811 CURVE",
"714 817 LINE",
"712 732 OFFCURVE",
"690 710 OFFCURVE",
"617 710 CURVE",
"600 647 LINE"
);
}
);
};
layerId = "A3B50665-EA37-4AC6-885C-1233CA61B6BD";
paths = (
{
closed = 1;
nodes = (
"714 817 LINE",
"712 732 OFFCURVE",
"690 710 OFFCURVE",
"617 710 CURVE SMOOTH",
"563 710 LINE",
"564 342 LINE SMOOTH",
"565 155 OFFCURVE",
"503 68 OFFCURVE",
"358 68 CURVE SMOOTH",
"221 68 OFFCURVE",
"162 140 OFFCURVE",
"162 307 CURVE SMOOTH",
"162 710 LINE",
"78 710 LINE",
"78 303 LINE SMOOTH",
"78 88 OFFCURVE",
"170 -8 OFFCURVE",
"358 -8 CURVE SMOOTH",
"549 -8 OFFCURVE",
"647 115 OFFCURVE",
"646 340 CURVE SMOOTH",
"645 671 LINE",
"600 647 LINE",
"642 647 LINE SMOOTH",
"732 647 OFFCURVE",
"785 714 OFFCURVE",
"780 811 CURVE"
);
}
);
width = 724;
},
{
anchors = (
{
name = bottom;
position = "{378, 0}";
},
{
name = top;
position = "{378, 710}";
}
);
background = {
anchors = (
{
name = bottom;
position = "{379, 0}";
},
{
name = top;
position = "{379, 710}";
}
);
paths = (
{
closed = 1;
nodes = (
"537 336 LINE SMOOTH",
"538 194 OFFCURVE",
"482 129 OFFCURVE",
"381 129 CURVE SMOOTH",
"278 129 OFFCURVE",
"221 183 OFFCURVE",
"221 313 CURVE SMOOTH",
"221 710 LINE",
"65 710 LINE",
"65 300 LINE SMOOTH",
"65 94 OFFCURVE",
"174 -12 OFFCURVE",
"384 -10 CURVE SMOOTH",
"573 -8 OFFCURVE",
"694 123 OFFCURVE",
"693 327 CURVE SMOOTH",
"691 710 LINE",
"535 710 LINE"
);
},
{
closed = 1;
nodes = (
"616 596 LINE",
"670 596 LINE SMOOTH",
"786 596 OFFCURVE",
"855 690 OFFCURVE",
"848 811 CURVE",
"724 821 LINE",
"722 731 OFFCURVE",
"707 710 OFFCURVE",
"640 710 CURVE"
);
}
);
};
layerId = "014D4A40-7C7F-4023-B30E-1F55CE5EA091";
paths = (
{
closed = 1;
nodes = (
"724 821 LINE",
"722 731 OFFCURVE",
"707 710 OFFCURVE",
"640 710 CURVE SMOOTH",
"535 710 LINE",
"537 336 LINE SMOOTH",
"538 194 OFFCURVE",
"482 129 OFFCURVE",
"381 129 CURVE SMOOTH",
"278 129 OFFCURVE",
"221 183 OFFCURVE",
"221 313 CURVE SMOOTH",
"221 710 LINE",
"65 710 LINE",
"65 300 LINE SMOOTH",
"65 94 OFFCURVE",
"174 -12 OFFCURVE",
"384 -10 CURVE SMOOTH",
"572 -8 OFFCURVE",
"692 123 OFFCURVE",
"691 327 CURVE SMOOTH",
"690 639 LINE",
"616 596 LINE",
"670 596 LINE SMOOTH",
"786 596 OFFCURVE",
"855 690 OFFCURVE",
"848 811 CURVE"
);
}
);
width = 756;
}
);
leftKerningGroup = U;
leftMetricsKey = U;
widthMetricsKey = U;
rightKerningGroup = U;
unicode = 01AF;
},
{
color = 4;
glyphname = V;
lastChange = "2019-04-15 14:10:57 +0000";
layers = (
{
anchors = (
{
name = bottom;
position = "{288, 0}";
},
{
name = top;
position = "{288, 710}";
}
);
background = {
anchors = (
{
name = bottom;
position = "{296, 0}";
},
{
name = top;
position = "{296, 710}";
}
);
paths = (
{
closed = 1;
nodes = (
"274 24 LINE",
"301 23 LINE",
"94 710 LINE",
"9 710 LINE",
"229 0 LINE",
"340 0 LINE",
"606 710 LINE",
"524 710 LINE"
);
}
);
};
layerId = "A3B50665-EA37-4AC6-885C-1233CA61B6BD";
paths = (
{
closed = 1;
nodes = (
"273 24 LINE",
"302 23 LINE",
"95 710 LINE",
"9 710 LINE",
"229 0 LINE",
"340 0 LINE",
"606 710 LINE",
"523 710 LINE"
);
}
);
width = 590;
},
{
anchors = (
{
name = bottom;
position = "{325, 0}";
},
{
name = top;
position = "{325, 710}";
}
);
background = {
anchors = (
{
name = bottom;
position = "{325, 0}";
},
{
name = top;
position = "{325, 710}";
}
);
paths = (
{
closed = 1;
nodes = (
"290 33 LINE",
"354 33 LINE",
"160 710 LINE",
"-6 710 LINE",
"206 0 LINE",
"425 0 LINE",
"679 710 LINE",
"524 710 LINE"
);
}
);
};
guideLines = (
{
angle = 68.7799;
position = "{363, 235}";
}
);
layerId = "014D4A40-7C7F-4023-B30E-1F55CE5EA091";
paths = (
{
closed = 1;
nodes = (
"290 33 LINE",
"353 33 LINE",
"159 710 LINE",
"-6 710 LINE",
"206 0 LINE",
"425 0 LINE",
"679 710 LINE",
"524 710 LINE"
);
}
);
width = 649;
}
);
leftKerningGroup = V;
rightKerningGroup = V;
unicode = 0056;
},
{
color = 4;
glyphname = W;
lastChange = "2019-04-15 14:11:15 +0000";
layers = (
{
anchors = (
{
name = bottom;
position = "{464, 0}";
},
{
name = top;
position = "{482, 710}";
}
);
background = {
anchors = (
{
name = bottom;
position = "{471, 0}";
},
{
name = top;
position = "{471, 710}";
}
);
paths = (
{
closed = 1;
nodes = (
"652 24 LINE",
"693 23 LINE",
"526 710 LINE",
"438 710 LINE",
"240 24 LINE",
"280 23 LINE",
"116 710 LINE",
"32 710 LINE",
"208 0 LINE",
"304 0 LINE",
"489 640 LINE",
"466 640 LINE",
"623 0 LINE",
"719 0 LINE",
"925 710 LINE",
"844 710 LINE"
);
}
);
};
layerId = "A3B50665-EA37-4AC6-885C-1233CA61B6BD";
paths = (
{
closed = 1;
nodes = (
"663 59 LINE",
"685 59 LINE",
"527 710 LINE",
"437 710 LINE",
"249 59 LINE",
"270 59 LINE",
"115 710 LINE",
"32 710 LINE",
"208 0 LINE",
"304 0 LINE",
"490 640 LINE",
"466 640 LINE",
"623 0 LINE",
"719 0 LINE",
"925 710 LINE",
"845 710 LINE"
);
}
);
width = 940;
},
{
anchors = (
{
name = bottom;
position = "{499, 0}";
},
{
name = top;
position = "{520, 710}";
}
);
background = {
anchors = (
{
name = bottom;
position = "{504, 0}";
},
{
name = top;
position = "{504, 710}";
}
);
paths = (
{
closed = 1;
nodes = (
"693 67 LINE",
"759 66 LINE",
"612 710 LINE",
"428 710 LINE",
"251 67 LINE",
"321 66 LINE",
"170 710 LINE",
"13 710 LINE",
"190 0 LINE",
"367 0 LINE",
"518 541 LINE",
"504 541 LINE",
"630 0 LINE",
"807 0 LINE",
"1012 710 LINE",
"869 710 LINE"
);
}
);
};
layerId = "014D4A40-7C7F-4023-B30E-1F55CE5EA091";
paths = (
{
closed = 1;
nodes = (
"701 114 LINE",
"748 114 LINE",
"612 710 LINE",
"428 710 LINE",
"264 114 LINE",
"310 114 LINE",
"170 710 LINE",
"13 710 LINE",
"190 0 LINE",
"367 0 LINE",
"524 563 LINE",
"499 563 LINE",
"630 0 LINE",
"807 0 LINE",
"1012 710 LINE",
"865 710 LINE"
);
}
);
width = 1007;
}
);
leftKerningGroup = V;
rightKerningGroup = V;
unicode = 0057;
},
{
color = 4;
glyphname = X;
lastChange = "2019-04-15 14:13:23 +0000";
layers = (
{
anchors = (
{
name = bottom;
position = "{295, 0}";
},
{
name = top;
position = "{295, 710}";
}
);
background = {
anchors = (
{
name = bottom;
position = "{292, 0}";
},
{
name = top;
position = "{292, 710}";
}
);
paths = (
{
closed = 1;
nodes = (
"581 0 LINE",
"108 710 LINE",
"15 710 LINE",
"486 0 LINE"
);
},
{
closed = 1;
nodes = (
"573 710 LINE",
"483 710 LINE",
"-3 0 LINE",
"91 0 LINE"
);
},
{
closed = 1;
nodes = (
"1281 0 LINE",
"1036 365 LINE",
"994 428 LINE",
"808 710 LINE",
"715 710 LINE",
"946 361 LINE",
"990 296 LINE",
"1186 0 LINE"
);
},
{
closed = 1;
nodes = (
"990 296 LINE",
"1036 365 LINE",
"1270 710 LINE",
"1183 710 LINE",
"994 428 LINE",
"946 361 LINE",
"700 0 LINE",
"791 0 LINE"
);
}
);
};
layerId = "A3B50665-EA37-4AC6-885C-1233CA61B6BD";
paths = (
{
closed = 1;
nodes = (
"581 0 LINE",
"337 364 LINE",
"294 430 LINE",
"108 710 LINE",
"15 710 LINE",
"246 363 LINE",
"290 296 LINE",
"486 0 LINE"
);
},
{
closed = 1;
nodes = (
"290 296 LINE",
"337 364 LINE",
"571 710 LINE",
"482 710 LINE",
"294 430 LINE",
"246 363 LINE",
"-2 0 LINE",
"91 0 LINE"
);
}
);
width = 582;
},
{
anchors = (
{
name = bottom;
position = "{317, 0}";
},
{
name = top;
position = "{317, 710}";
}
);
background = {
anchors = (
{
name = bottom;
position = "{313, 0}";
},
{
name = top;
position = "{313, 710}";
}
);
paths = (
{
closed = 1;
nodes = (
"630 0 LINE",
"397 367 LINE",
"317 491 LINE",
"180 710 LINE",
"5 710 LINE",
"228 359 LINE",
"311 232 LINE",
"452 0 LINE"
);
},
{
closed = 1;
nodes = (
"311 232 LINE",
"397 367 LINE",
"620 710 LINE",
"454 710 LINE",
"317 491 LINE",
"228 359 LINE",
"-8 0 LINE",
"163 0 LINE"
);
}
);
};
layerId = "014D4A40-7C7F-4023-B30E-1F55CE5EA091";
paths = (
{
closed = 1;
nodes = (
"630 0 LINE",
"397 367 LINE",
"317 491 LINE",
"180 710 LINE",
"5 710 LINE",
"228 359 LINE",
"311 232 LINE",
"452 0 LINE"
);
},
{
closed = 1;
nodes = (
"311 232 LINE",
"397 367 LINE",
"620 710 LINE",
"454 710 LINE",
"317 491 LINE",
"228 359 LINE",
"-8 0 LINE",
"163 0 LINE"
);
}
);
width = 629;
}
);
leftKerningGroup = X;
rightKerningGroup = X;
unicode = 0058;
},
{
color = 4;
glyphname = Y;
lastChange = "2019-04-15 14:13:48 +0000";
layers = (
{
anchors = (
{
name = bottom;
position = "{277, 0}";
},
{
name = top;
position = "{278, 710}";
},
{
name = topleft;
position = "{2, 710}";
}
);
background = {
anchors = (
{
name = bottom;
position = "{277, 0}";
},
{
name = top;
position = "{277, 710}";
},
{
name = topleft;
position = "{2, 710}";
}
);
paths = (
{
closed = 1;
nodes = (
"280 392 LINE",
"70 710 LINE",
"-23 710 LINE",
"249 299 LINE",
"298 293 LINE",
"571 710 LINE",
"484 710 LINE"
);
},
{
closed = 1;
nodes = (
"318 0 LINE",
"318 370 LINE",
"235 370 LINE",
"235 0 LINE"
);
}
);
};
layerId = "A3B50665-EA37-4AC6-885C-1233CA61B6BD";
paths = (
{
closed = 1;
nodes = (
"486 710 LINE",
"264 368 LINE",
"294 371 LINE",
"70 710 LINE",
"-23 710 LINE",
"260 282 LINE",
"235 365 LINE",
"235 0 LINE",
"318 0 LINE",
"318 369 LINE",
"295 286 LINE",
"573 710 LINE"
);
}
);
width = 552;
},
{
anchors = (
{
name = bottom;
position = "{304, 0}";
},
{
name = top;
position = "{306, 710}";
},
{
name = topleft;
position = "{18, 710}";
}
);
background = {
anchors = (
{
name = bottom;
position = "{304, 0}";
},
{
name = top;
position = "{304, 710}";
},
{
name = topleft;
position = "{18, 710}";
}
);
paths = (
{
closed = 1;
nodes = (
"311 451 LINE",
"148 710 LINE",
"-27 710 LINE",
"253 269 LINE",
"347 259 LINE",
"624 710 LINE",
"458 710 LINE"
);
},
{
closed = 1;
nodes = (
"382 0 LINE",
"382 418 LINE",
"226 418 LINE",
"226 0 LINE"
);
}
);
};
layerId = "014D4A40-7C7F-4023-B30E-1F55CE5EA091";
paths = (
{
closed = 1;
nodes = (
"464 710 LINE",
"286 412 LINE",
"335 413 LINE",
"148 710 LINE",
"-27 710 LINE",
"250 274 LINE",
"226 357 LINE",
"226 0 LINE",
"382 0 LINE",
"382 361 LINE",
"358 278 LINE",
"627 710 LINE"
);
}
);
width = 605;
}
);
leftKerningGroup = Y;
rightKerningGroup = Y;
unicode = 0059;
},
{
color = 4;
glyphname = Z;
lastChange = "2019-04-15 14:14:03 +0000";
layers = (
{
anchors = (
{
name = bottom;
position = "{306, 0}";
},
{
name = center;
position = "{300, 355}";
},
{
name = top;
position = "{306, 710}";
}
);
background = {
anchors = (
{
name = bottom;
position = "{300, 0}";
},
{
name = center;
position = "{300, 355}";
},
{
name = top;
position = "{300, 710}";
}
);
paths = (
{
closed = 1;
nodes = (
"571 0 LINE",
"571 71 LINE",
"109 71 LINE",
"112 27 LINE",
"566 650 LINE",
"566 710 LINE",
"55 710 LINE",
"55 641 LINE",
"500 641 LINE",
"494 683 LINE",
"40 60 LINE",
"40 0 LINE"
);
}
);
};
layerId = "A3B50665-EA37-4AC6-885C-1233CA61B6BD";
paths = (
{
closed = 1;
nodes = (
"571 0 LINE",
"578 72 LINE",
"109 72 LINE",
"130 50 LINE",
"566 650 LINE",
"566 710 LINE",
"55 710 LINE",
"55 638 LINE",
"500 638 LINE",
"476 660 LINE",
"40 60 LINE",
"40 0 LINE"
);
}
);
width = 600;
},
{
anchors = (
{
name = bottom;
position = "{323, 0}";
},
{
name = center;
position = "{318, 355}";
},
{
name = top;
position = "{323, 710}";
}
);
background = {
anchors = (
{
name = bottom;
position = "{318, 0}";
},
{
name = center;
position = "{318, 355}";
},
{
name = top;
position = "{318, 710}";
}
);
paths = (
{
closed = 1;
nodes = (
"608 0 LINE",
"608 135 LINE",
"182 135 LINE",
"201 84 LINE",
"606 598 LINE",
"606 710 LINE",
"55 710 LINE",
"55 575 LINE",
"459 575 LINE",
"442 626 LINE",
"37 112 LINE",
"37 0 LINE"
);
}
);
};
layerId = "014D4A40-7C7F-4023-B30E-1F55CE5EA091";
paths = (
{
closed = 1;
nodes = (
"608 0 LINE",
"618 136 LINE",
"182 136 LINE",
"203 84 LINE",
"606 598 LINE",
"606 710 LINE",
"55 710 LINE",
"55 574 LINE",
"459 574 LINE",
"440 626 LINE",
"37 112 LINE",
"37 0 LINE"
);
}
);
width = 636;
}
);
leftKerningGroup = Z;
rightKerningGroup = Z;
unicode = 005A;
},
{
color = 4;
glyphname = a;
lastChange = "2019-04-17 15:12:56 +0000";
layers = (
{
anchors = (
{
name = bottom;
position = "{310, 0}";
},
{
name = ogonek;
position = "{505, 0}";
},
{
name = top;
position = "{310, 498}";
}
);
background = {
anchors = (
{
name = bottom;
position = "{290, 0}";
},
{
name = ogonek;
position = "{505, 0}";
},
{
name = top;
position = "{290, 498}";
}
);
paths = (
{
closed = 1;
nodes = (
"441 498 LINE",
"432 416 LINE",
"437 418 LINE",
"419 470 OFFCURVE",
"362 507 OFFCURVE",
"293 507 CURVE SMOOTH",
"150 507 OFFCURVE",
"52 391 OFFCURVE",
"52 225 CURVE SMOOTH",
"52 88 OFFCURVE",
"122 -8 OFFCURVE",
"248 -8 CURVE SMOOTH",
"344 -8 OFFCURVE",
"418 60 OFFCURVE",
"447 164 CURVE",
"431 178 LINE",
"426 0 LINE",
"505 0 LINE",
"505 498 LINE"
);
},
{
closed = 1;
nodes = (
"377 436 OFFCURVE",
"428 379 OFFCURVE",
"428 284 CURVE SMOOTH",
"428 155 OFFCURVE",
"356 64 OFFCURVE",
"259 64 CURVE SMOOTH",
"181 64 OFFCURVE",
"133 126 OFFCURVE",
"133 231 CURVE SMOOTH",
"133 355 OFFCURVE",
"197 436 OFFCURVE",
"295 436 CURVE SMOOTH"
);
}
);
};
layerId = "A3B50665-EA37-4AC6-885C-1233CA61B6BD";
paths = (
{
closed = 1;
nodes = (
"446 498 LINE",
"434 416 LINE",
"439 418 LINE",
"418 470 OFFCURVE",
"362 507 OFFCURVE",
"293 507 CURVE SMOOTH",
"150 507 OFFCURVE",
"52 391 OFFCURVE",
"52 225 CURVE SMOOTH",
"52 88 OFFCURVE",
"122 -8 OFFCURVE",
"248 -8 CURVE SMOOTH",
"344 -8 OFFCURVE",
"418 60 OFFCURVE",
"448 164 CURVE",
"430 178 LINE",
"425 0 LINE",
"505 0 LINE",
"505 498 LINE"
);
},
{
closed = 1;
nodes = (
"377 436 OFFCURVE",
"428 379 OFFCURVE",
"428 284 CURVE SMOOTH",
"428 155 OFFCURVE",
"356 63 OFFCURVE",
"259 63 CURVE SMOOTH",
"181 63 OFFCURVE",
"133 126 OFFCURVE",
"133 231 CURVE SMOOTH",
"133 355 OFFCURVE",
"197 436 OFFCURVE",
"295 436 CURVE SMOOTH"
);
}
);
width = 579;
},
{
anchors = (
{
name = bottom;
position = "{320, 0}";
},
{
name = ogonek;
position = "{554, 0}";
},
{
name = top;
position = "{320, 508}";
}
);
background = {
anchors = (
{
name = bottom;
position = "{304, 0}";
},
{
name = ogonek;
position = "{554, 0}";
},
{
name = top;
position = "{304, 508}";
}
);
hints = (
{
horizontal = 1;
place = "{-8, 129}";
type = Stem;
},
{
horizontal = 1;
place = "{386, 129}";
type = Stem;
},
{
horizontal = 1;
place = "{672, -20}";
target = down;
type = TopGhost;
},
{
place = "{46, 134}";
type = Stem;
},
{
place = "{366, 134}";
type = Stem;
},
{
horizontal = 1;
place = "{0, 21}";
target = up;
type = BottomGhost;
},
{
place = "{385, 115}";
type = Stem;
}
);
paths = (
{
closed = 1;
nodes = (
"449 506 LINE",
"431 422 LINE",
"441 442 LINE",
"416 485 OFFCURVE",
"360 516 OFFCURVE",
"291 516 CURVE SMOOTH",
"143 516 OFFCURVE",
"30 402 OFFCURVE",
"30 232 CURVE SMOOTH",
"30 92 OFFCURVE",
"105 -10 OFFCURVE",
"245 -10 CURVE SMOOTH",
"347 -10 OFFCURVE",
"418 49 OFFCURVE",
"446 155 CURVE",
"417 179 LINE",
"407 0 LINE",
"554 0 LINE",
"554 506 LINE"
);
},
{
closed = 1;
nodes = (
"369 389 OFFCURVE",
"408 346 OFFCURVE",
"408 276 CURVE SMOOTH",
"408 182 OFFCURVE",
"353 118 OFFCURVE",
"281 118 CURVE SMOOTH",
"223 118 OFFCURVE",
"185 161 OFFCURVE",
"185 237 CURVE SMOOTH",
"185 326 OFFCURVE",
"232 389 OFFCURVE",
"308 389 CURVE SMOOTH"
);
}
);
};
layerId = "014D4A40-7C7F-4023-B30E-1F55CE5EA091";
paths = (
{
closed = 1;
nodes = (
"449 506 LINE",
"431 422 LINE",
"441 435 LINE",
"416 484 OFFCURVE",
"363 516 OFFCURVE",
"295 516 CURVE SMOOTH",
"149 516 OFFCURVE",
"35 402 OFFCURVE",
"35 232 CURVE SMOOTH",
"35 92 OFFCURVE",
"110 -10 OFFCURVE",
"247 -10 CURVE SMOOTH",
"348 -10 OFFCURVE",
"417 49 OFFCURVE",
"445 155 CURVE",
"417 179 LINE",
"407 0 LINE",
"554 0 LINE",
"554 506 LINE"
);
},
{
closed = 1;
nodes = (
"369 389 OFFCURVE",
"408 346 OFFCURVE",
"408 276 CURVE SMOOTH",
"408 182 OFFCURVE",
"351 117 OFFCURVE",
"279 117 CURVE SMOOTH",
"221 117 OFFCURVE",
"185 161 OFFCURVE",
"185 237 CURVE SMOOTH",
"185 326 OFFCURVE",
"232 389 OFFCURVE",
"308 389 CURVE SMOOTH"
);
}
);
width = 614;
}
);
leftKerningGroup = o;
leftMetricsKey = o;
note = d;
rightKerningGroup = u;
rightMetricsKey = "=|n";
unicode = 0061;
},
{
color = 4;
glyphname = ae;
lastChange = "2019-04-17 15:13:06 +0000";
layers = (
{
anchors = (
{
name = bottom;
position = "{422, 0}";
},
{
name = top;
position = "{422, 498}";
}
);
background = {
anchors = (
{
name = bottom;
position = "{1322, 0}";
},
{
name = top;
position = "{1322, 498}";
}
);
paths = (
{
closed = 1;
nodes = (
"710 -8 OFFCURVE",
"773 24 OFFCURVE",
"819 89 CURVE",
"770 134 LINE",
"735 86 OFFCURVE",
"685 63 OFFCURVE",
"632 63 CURVE SMOOTH",
"521 63 OFFCURVE",
"459 123 OFFCURVE",
"459 231 CURVE SMOOTH",
"459 258 LINE SMOOTH",
"459 359 OFFCURVE",
"520 444 OFFCURVE",
"618 444 CURVE SMOOTH",
"699 444 OFFCURVE",
"756 394 OFFCURVE",
"746 272 CURVE",
"768 284 LINE",
"434 284 LINE",
"434 222 LINE",
"816 222 LINE",
"837 410 OFFCURVE",
"755 507 OFFCURVE",
"617 507 CURVE SMOOTH",
"481 507 OFFCURVE",
"379 397 OFFCURVE",
"379 242 CURVE SMOOTH",
"379 85 OFFCURVE",
"473 -8 OFFCURVE",
"627 -8 CURVE SMOOTH"
);
}
);
};
layerId = "A3B50665-EA37-4AC6-885C-1233CA61B6BD";
paths = (
{
closed = 1;
nodes = (
"326 -8 OFFCURVE",
"407 52 OFFCURVE",
"430 143 CURVE",
"408 140 LINE",
"439 44 OFFCURVE",
"516 -8 OFFCURVE",
"627 -8 CURVE SMOOTH",
"710 -8 OFFCURVE",
"773 24 OFFCURVE",
"819 89 CURVE",
"770 134 LINE",
"735 86 OFFCURVE",
"685 63 OFFCURVE",
"632 63 CURVE SMOOTH",
"524 63 OFFCURVE",
"462 123 OFFCURVE",
"462 229 CURVE SMOOTH",
"462 263 LINE SMOOTH",
"462 359 OFFCURVE",
"520 444 OFFCURVE",
"618 444 CURVE SMOOTH",
"699 444 OFFCURVE",
"756 394 OFFCURVE",
"746 272 CURVE",
"767 284 LINE",
"439 284 LINE",
"439 222 LINE",
"816 222 LINE",
"837 410 OFFCURVE",
"755 507 OFFCURVE",
"616 507 CURVE SMOOTH",
"537 507 OFFCURVE",
"458 458 OFFCURVE",
"426 377 CURVE",
"444 375 LINE",
"423 462 OFFCURVE",
"361 507 OFFCURVE",
"262 507 CURVE SMOOTH",
"143 507 OFFCURVE",
"71 433 OFFCURVE",
"56 347 CURVE",
"126 334 LINE",
"141 402 OFFCURVE",
"187 439 OFFCURVE",
"261 439 CURVE SMOOTH",
"342 439 OFFCURVE",
"381 394 OFFCURVE",
"381 306 CURVE SMOOTH",
"381 218 LINE SMOOTH",
"381 121 OFFCURVE",
"323 57 OFFCURVE",
"233 57 CURVE SMOOTH",
"167 57 OFFCURVE",
"124 90 OFFCURVE",
"124 139 CURVE SMOOTH",
"124 190 OFFCURVE",
"163 221 OFFCURVE",
"241 221 CURVE SMOOTH",
"408 221 LINE",
"408 284 LINE",
"241 284 LINE SMOOTH",
"114 284 OFFCURVE",
"44 227 OFFCURVE",
"44 136 CURVE SMOOTH",
"44 52 OFFCURVE",
"119 -8 OFFCURVE",
"225 -8 CURVE SMOOTH"
);
}
);
width = 863;
},
{
anchors = (
{
name = bottom;
position = "{417, 0}";
},
{
name = top;
position = "{417, 508}";
}
);
background = {
anchors = (
{
name = bottom;
position = "{1517, 0}";
},
{
name = top;
position = "{1517, 508}";
}
);
paths = (
{
closed = 1;
nodes = (
"711 -10 OFFCURVE",
"773 24 OFFCURVE",
"818 79 CURVE",
"735 164 LINE",
"706 132 OFFCURVE",
"661 115 OFFCURVE",
"624 115 CURVE SMOOTH",
"536 115 OFFCURVE",
"486 163 OFFCURVE",
"486 225 CURVE SMOOTH",
"486 266 LINE SMOOTH",
"486 356 OFFCURVE",
"529 409 OFFCURVE",
"599 409 CURVE SMOOTH",
"660 409 OFFCURVE",
"697 375 OFFCURVE",
"689 296 CURVE",
"720 313 LINE",
"449 313 LINE",
"449 210 LINE",
"814 210 LINE",
"838 396 OFFCURVE",
"762 516 OFFCURVE",
"597 516 CURVE SMOOTH",
"450 516 OFFCURVE",
"339 407 OFFCURVE",
"339 246 CURVE SMOOTH",
"339 89 OFFCURVE",
"445 -10 OFFCURVE",
"613 -10 CURVE SMOOTH"
);
}
);
};
hints = (
{
horizontal = 1;
place = "{0, 21}";
target = up;
type = BottomGhost;
},
{
horizontal = 1;
place = "{472, 148}";
type = Stem;
},
{
place = "{49, 151}";
type = Stem;
},
{
place = "{419, 161}";
type = Stem;
},
{
horizontal = 1;
place = "{-10, 148}";
type = Stem;
},
{
place = "{441, 139}";
type = Stem;
},
{
place = "{49, 170}";
type = Stem;
}
);
layerId = "014D4A40-7C7F-4023-B30E-1F55CE5EA091";
paths = (
{
closed = 1;
nodes = (
"329 -10 OFFCURVE",
"399 31 OFFCURVE",
"435 114 CURVE",
"401 109 LINE",
"444 28 OFFCURVE",
"510 -10 OFFCURVE",
"613 -10 CURVE SMOOTH",
"711 -10 OFFCURVE",
"773 24 OFFCURVE",
"818 79 CURVE",
"735 163 LINE",
"706 131 OFFCURVE",
"661 114 OFFCURVE",
"624 114 CURVE SMOOTH",
"536 114 OFFCURVE",
"491 163 OFFCURVE",
"491 223 CURVE SMOOTH",
"491 270 LINE SMOOTH",
"491 356 OFFCURVE",
"529 410 OFFCURVE",
"603 410 CURVE SMOOTH",
"660 410 OFFCURVE",
"697 375 OFFCURVE",
"689 296 CURVE",
"721 313 LINE",
"463 313 LINE",
"463 210 LINE",
"814 210 LINE",
"838 396 OFFCURVE",
"762 516 OFFCURVE",
"597 516 CURVE SMOOTH",
"533 516 OFFCURVE",
"451 475 OFFCURVE",
"419 406 CURVE",
"457 394 LINE",
"428 484 OFFCURVE",
"351 516 OFFCURVE",
"265 516 CURVE SMOOTH",
"146 516 OFFCURVE",
"64 451 OFFCURVE",
"37 359 CURVE",
"163 335 LINE",
"177 375 OFFCURVE",
"207 399 OFFCURVE",
"260 399 CURVE SMOOTH",
"312 399 OFFCURVE",
"343 371 OFFCURVE",
"343 318 CURVE SMOOTH",
"343 193 LINE SMOOTH",
"343 133 OFFCURVE",
"311 101 OFFCURVE",
"254 101 CURVE SMOOTH",
"207 101 OFFCURVE",
"175 122 OFFCURVE",
"175 156 CURVE SMOOTH",
"175 190 OFFCURVE",
"198 210 OFFCURVE",
"256 210 CURVE SMOOTH",
"387 210 LINE",
"387 313 LINE",
"244 313 LINE SMOOTH",
"104 313 OFFCURVE",
"32 244 OFFCURVE",
"32 150 CURVE SMOOTH",
"32 57 OFFCURVE",
"117 -10 OFFCURVE",
"234 -10 CURVE SMOOTH"
);
}
);
width = 850;
}
);
leftKerningGroup = ae;
note = A;
rightKerningGroup = e;
rightMetricsKey = e;
unicode = 00E6;
},
{
color = 4;
glyphname = b;
lastChange = "2019-04-17 08:56:04 +0000";
layers = (
{
anchors = (
{
name = bottom;
position = "{289, 0}";
},
{
name = top;
position = "{289, 740}";
}
);
background = {
anchors = (
{
name = bottom;
position = "{989, 0}";
},
{
name = top;
position = "{989, 740}";
}
);
paths = (
{
closed = 1;
nodes = (
"838 0 LINE",
"847 82 LINE",
"842 81 LINE",
"860 29 OFFCURVE",
"917 -8 OFFCURVE",
"986 -8 CURVE SMOOTH",
"1129 -8 OFFCURVE",
"1227 108 OFFCURVE",
"1227 274 CURVE SMOOTH",
"1227 411 OFFCURVE",
"1157 507 OFFCURVE",
"1031 507 CURVE SMOOTH",
"935 507 OFFCURVE",
"860 441 OFFCURVE",
"832 335 CURVE",
"847 321 LINE",
"852 499 LINE",
"852 740 LINE",
"774 740 LINE",
"774 0 LINE"
);
},
{
closed = 1;
nodes = (
"902 64 OFFCURVE",
"851 121 OFFCURVE",
"851 216 CURVE SMOOTH",
"851 345 OFFCURVE",
"924 436 OFFCURVE",
"1020 436 CURVE SMOOTH",
"1098 436 OFFCURVE",
"1146 374 OFFCURVE",
"1146 269 CURVE SMOOTH",
"1146 145 OFFCURVE",
"1082 64 OFFCURVE",
"984 64 CURVE SMOOTH"
);
},
{
closed = 1;
nodes = (
"138 1 LINE",
"147 83 LINE",
"142 81 LINE",
"160 29 OFFCURVE",
"217 -8 OFFCURVE",
"286 -8 CURVE SMOOTH",
"429 -8 OFFCURVE",
"527 108 OFFCURVE",
"527 274 CURVE SMOOTH",
"527 411 OFFCURVE",
"457 507 OFFCURVE",
"331 507 CURVE SMOOTH",
"235 507 OFFCURVE",
"161 439 OFFCURVE",
"132 335 CURVE",
"148 321 LINE",
"153 499 LINE",
"74 499 LINE",
"74 1 LINE"
);
},
{
closed = 1;
nodes = (
"202 64 OFFCURVE",
"151 121 OFFCURVE",
"151 216 CURVE SMOOTH",
"151 345 OFFCURVE",
"223 436 OFFCURVE",
"320 436 CURVE SMOOTH",
"398 436 OFFCURVE",
"446 374 OFFCURVE",
"446 269 CURVE SMOOTH",
"446 145 OFFCURVE",
"382 64 OFFCURVE",
"284 64 CURVE SMOOTH"
);
}
);
};
layerId = "A3B50665-EA37-4AC6-885C-1233CA61B6BD";
paths = (
{
closed = 1;
nodes = (
"133 0 LINE",
"145 82 LINE",
"141 81 LINE",
"161 29 OFFCURVE",
"217 -8 OFFCURVE",
"286 -8 CURVE SMOOTH",
"429 -8 OFFCURVE",
"527 108 OFFCURVE",
"527 274 CURVE SMOOTH",
"527 411 OFFCURVE",
"457 507 OFFCURVE",
"331 507 CURVE SMOOTH",
"233 507 OFFCURVE",
"161 439 OFFCURVE",
"131 335 CURVE",
"147 321 LINE",
"152 499 LINE",
"152 740 LINE",
"74 740 LINE",
"74 0 LINE"
);
},
{
closed = 1;
nodes = (
"202 63 OFFCURVE",
"151 121 OFFCURVE",
"151 216 CURVE SMOOTH",
"151 345 OFFCURVE",
"223 436 OFFCURVE",
"320 436 CURVE SMOOTH",
"398 436 OFFCURVE",
"446 374 OFFCURVE",
"446 269 CURVE SMOOTH",
"446 145 OFFCURVE",
"382 63 OFFCURVE",
"284 63 CURVE SMOOTH"
);
}
);
width = 579;
},
{
anchors = (
{
name = bottom;
position = "{310, 0}";
},
{
name = top;
position = "{310, 740}";
}
);
background = {
anchors = (
{
name = bottom;
position = "{910, 0}";
},
{
name = top;
position = "{910, 740}";
}
);
paths = (
{
closed = 1;
nodes = (
"765 0 LINE",
"783 84 LINE",
"773 64 LINE",
"798 21 OFFCURVE",
"854 -10 OFFCURVE",
"923 -10 CURVE SMOOTH",
"1071 -10 OFFCURVE",
"1184 104 OFFCURVE",
"1184 274 CURVE SMOOTH",
"1184 414 OFFCURVE",
"1109 516 OFFCURVE",
"969 516 CURVE SMOOTH",
"867 516 OFFCURVE",
"796 457 OFFCURVE",
"768 351 CURVE",
"797 329 LINE",
"806 508 LINE",
"806 740 LINE",
"660 740 LINE",
"660 0 LINE"
);
},
{
closed = 1;
nodes = (
"845 118 OFFCURVE",
"806 161 OFFCURVE",
"806 231 CURVE SMOOTH",
"806 325 OFFCURVE",
"861 389 OFFCURVE",
"933 389 CURVE SMOOTH",
"991 389 OFFCURVE",
"1029 346 OFFCURVE",
"1029 270 CURVE SMOOTH",
"1029 181 OFFCURVE",
"982 118 OFFCURVE",
"906 118 CURVE SMOOTH"
);
},
{
closed = 1;
nodes = (
"165 0 LINE",
"183 84 LINE",
"173 71 LINE",
"198 22 OFFCURVE",
"253 -10 OFFCURVE",
"321 -10 CURVE SMOOTH",
"467 -10 OFFCURVE",
"579 104 OFFCURVE",
"579 274 CURVE SMOOTH",
"579 414 OFFCURVE",
"504 516 OFFCURVE",
"367 516 CURVE SMOOTH",
"266 516 OFFCURVE",
"197 457 OFFCURVE",
"169 351 CURVE",
"197 327 LINE",
"207 506 LINE",
"60 506 LINE",
"60 0 LINE"
);
},
{
closed = 1;
nodes = (
"245 118 OFFCURVE",
"206 161 OFFCURVE",
"206 231 CURVE SMOOTH",
"206 325 OFFCURVE",
"261 389 OFFCURVE",
"333 389 CURVE SMOOTH",
"391 389 OFFCURVE",
"429 346 OFFCURVE",
"429 270 CURVE SMOOTH",
"429 181 OFFCURVE",
"382 118 OFFCURVE",
"306 118 CURVE SMOOTH"
);
}
);
};
layerId = "014D4A40-7C7F-4023-B30E-1F55CE5EA091";
paths = (
{
closed = 1;
nodes = (
"165 0 LINE",
"183 84 LINE",
"173 71 LINE",
"198 22 OFFCURVE",
"251 -10 OFFCURVE",
"319 -10 CURVE SMOOTH",
"465 -10 OFFCURVE",
"579 104 OFFCURVE",
"579 274 CURVE SMOOTH",
"579 414 OFFCURVE",
"504 516 OFFCURVE",
"367 516 CURVE SMOOTH",
"265 516 OFFCURVE",
"197 457 OFFCURVE",
"169 351 CURVE",
"197 329 LINE",
"206 508 LINE",
"206 740 LINE",
"60 740 LINE",
"60 0 LINE"
);
},
{
closed = 1;
nodes = (
"245 117 OFFCURVE",
"206 161 OFFCURVE",
"206 231 CURVE SMOOTH",
"206 325 OFFCURVE",
"263 389 OFFCURVE",
"335 389 CURVE SMOOTH",
"393 389 OFFCURVE",
"429 346 OFFCURVE",
"429 270 CURVE SMOOTH",
"429 181 OFFCURVE",
"382 117 OFFCURVE",
"306 117 CURVE SMOOTH"
);
}
);
width = 614;
}
);
leftKerningGroup = h;
leftMetricsKey = h;
note = b;
rightKerningGroup = o;
rightMetricsKey = o;
unicode = 0062;
},
{
color = 4;
glyphname = c;
lastChange = "2019-04-17 12:27:33 +0000";
layers = (
{
anchors = (
{
name = bottom;
position = "{279, 0}";
},
{
name = top;
position = "{285, 498}";
}
);
background = {
anchors = (
{
name = bottom;
position = "{277, 0}";
},
{
name = top;
position = "{283, 498}";
}
);
paths = (
{
closed = 1;
nodes = (
"371 -8 OFFCURVE",
"435 24 OFFCURVE",
"476 89 CURVE",
"419 134 LINE",
"389 86 OFFCURVE",
"343 65 OFFCURVE",
"290 65 CURVE SMOOTH",
"189 65 OFFCURVE",
"134 126 OFFCURVE",
"134 240 CURVE SMOOTH",
"134 358 OFFCURVE",
"199 435 OFFCURVE",
"297 435 CURVE SMOOTH",
"351 435 OFFCURVE",
"390 413 OFFCURVE",
"417 365 CURVE",
"476 410 LINE",
"438 475 OFFCURVE",
"380 507 OFFCURVE",
"299 507 CURVE SMOOTH",
"152 507 OFFCURVE",
"52 399 OFFCURVE",
"52 240 CURVE SMOOTH",
"52 84 OFFCURVE",
"140 -8 OFFCURVE",
"287 -8 CURVE SMOOTH"
);
}
);
};
guideLines = (
{
angle = 90;
position = "{477, 142}";
}
);
layerId = "A3B50665-EA37-4AC6-885C-1233CA61B6BD";
paths = (
{
closed = 1;
nodes = (
"371 -8 OFFCURVE",
"435 24 OFFCURVE",
"476 89 CURVE",
"419 134 LINE",
"389 86 OFFCURVE",
"343 64 OFFCURVE",
"290 64 CURVE SMOOTH",
"189 64 OFFCURVE",
"134 126 OFFCURVE",
"134 240 CURVE SMOOTH",
"134 358 OFFCURVE",
"199 435 OFFCURVE",
"297 435 CURVE SMOOTH",
"351 435 OFFCURVE",
"390 413 OFFCURVE",
"417 365 CURVE",
"476 410 LINE",
"438 475 OFFCURVE",
"380 507 OFFCURVE",
"299 507 CURVE SMOOTH",
"152 507 OFFCURVE",
"52 399 OFFCURVE",
"52 240 CURVE SMOOTH",
"52 84 OFFCURVE",
"140 -8 OFFCURVE",
"287 -8 CURVE SMOOTH"
);
}
);
width = 488;
},
{
anchors = (
{
name = bottom;
position = "{280, 0}";
},
{
name = top;
position = "{280, 508}";
}
);
background = {
anchors = (
{
name = bottom;
position = "{271, 0}";
},
{
name = top;
position = "{271, 508}";
}
);
paths = (
{
closed = 1;
nodes = (
"377 -10 OFFCURVE",
"454 18 OFFCURVE",
"500 95 CURVE",
"400 176 LINE",
"377 136 OFFCURVE",
"341 120 OFFCURVE",
"302 120 CURVE SMOOTH",
"227 120 OFFCURVE",
"187 164 OFFCURVE",
"187 246 CURVE SMOOTH",
"187 331 OFFCURVE",
"237 387 OFFCURVE",
"307 387 CURVE SMOOTH",
"348 387 OFFCURVE",
"377 368 OFFCURVE",
"398 332 CURVE",
"501 410 LINE",
"457 484 OFFCURVE",
"392 516 OFFCURVE",
"304 516 CURVE SMOOTH",
"144 516 OFFCURVE",
"35 406 OFFCURVE",
"35 244 CURVE SMOOTH",
"35 84 OFFCURVE",
"135 -10 OFFCURVE",
"291 -10 CURVE SMOOTH"
);
}
);
};
layerId = "014D4A40-7C7F-4023-B30E-1F55CE5EA091";
paths = (
{
closed = 1;
nodes = (
"377 -10 OFFCURVE",
"454 18 OFFCURVE",
"500 95 CURVE",
"400 176 LINE",
"377 136 OFFCURVE",
"341 118 OFFCURVE",
"302 118 CURVE SMOOTH",
"227 118 OFFCURVE",
"186 164 OFFCURVE",
"186 246 CURVE SMOOTH",
"186 331 OFFCURVE",
"236 388 OFFCURVE",
"304 388 CURVE SMOOTH",
"347 388 OFFCURVE",
"375 372 OFFCURVE",
"398 332 CURVE",
"501 410 LINE",
"459 484 OFFCURVE",
"391 516 OFFCURVE",
"304 516 CURVE SMOOTH",
"145 516 OFFCURVE",
"35 406 OFFCURVE",
"35 244 CURVE SMOOTH",
"35 84 OFFCURVE",
"136 -10 OFFCURVE",
"291 -10 CURVE SMOOTH"
);
}
);
width = 496;
}
);
leftKerningGroup = o;
leftMetricsKey = o;
rightKerningGroup = c;
unicode = 0063;
},
{
color = 4;
glyphname = d;
lastChange = "2019-04-17 15:05:15 +0000";
layers = (
{
anchors = (
{
name = bottom;
position = "{310, 0}";
},
{
name = center;
position = "{290, 249}";
},
{
name = stroke;
position = "{414, 624}";
},
{
name = top;
position = "{290, 740}";
},
{
name = topright;
position = "{555, 740}";
}
);
background = {
anchors = (
{
name = bottom;
position = "{890, 0}";
},
{
name = center;
position = "{890, 249}";
},
{
name = stroke;
position = "{1014, 624}";
},
{
name = top;
position = "{890, 740}";
},
{
name = topright;
position = "{1155, 740}";
}
);
paths = (
{
closed = 1;
nodes = (
"1027 740 LINE",
"1027 498 LINE",
"1029 407 LINE",
"1037 418 LINE",
"1019 470 OFFCURVE",
"962 507 OFFCURVE",
"893 507 CURVE SMOOTH",
"750 507 OFFCURVE",
"652 391 OFFCURVE",
"652 225 CURVE SMOOTH",
"652 88 OFFCURVE",
"722 -8 OFFCURVE",
"848 -8 CURVE SMOOTH",
"944 -8 OFFCURVE",
"1018 60 OFFCURVE",
"1047 164 CURVE",
"1031 178 LINE",
"1026 0 LINE",
"1105 0 LINE",
"1105 740 LINE"
);
},
{
closed = 1;
nodes = (
"977 436 OFFCURVE",
"1028 379 OFFCURVE",
"1028 284 CURVE SMOOTH",
"1028 155 OFFCURVE",
"955 64 OFFCURVE",
"859 64 CURVE SMOOTH",
"781 64 OFFCURVE",
"733 126 OFFCURVE",
"733 231 CURVE SMOOTH",
"733 355 OFFCURVE",
"797 436 OFFCURVE",
"895 436 CURVE SMOOTH"
);
},
{
closed = 1;
nodes = (
"446 498 LINE",
"434 416 LINE",
"439 418 LINE",
"418 470 OFFCURVE",
"362 507 OFFCURVE",
"293 507 CURVE SMOOTH",
"150 507 OFFCURVE",
"52 391 OFFCURVE",
"52 225 CURVE SMOOTH",
"52 88 OFFCURVE",
"122 -8 OFFCURVE",
"248 -8 CURVE SMOOTH",
"344 -8 OFFCURVE",
"418 60 OFFCURVE",
"448 164 CURVE",
"430 178 LINE",
"425 0 LINE",
"505 0 LINE",
"505 498 LINE"
);
},
{
closed = 1;
nodes = (
"377 436 OFFCURVE",
"428 379 OFFCURVE",
"428 284 CURVE SMOOTH",
"428 155 OFFCURVE",
"356 63 OFFCURVE",
"259 63 CURVE SMOOTH",
"181 63 OFFCURVE",
"133 126 OFFCURVE",
"133 231 CURVE SMOOTH",
"133 355 OFFCURVE",
"197 436 OFFCURVE",
"295 436 CURVE SMOOTH"
);
}
);
};
layerId = "A3B50665-EA37-4AC6-885C-1233CA61B6BD";
paths = (
{
closed = 1;
nodes = (
"427 740 LINE",
"427 498 LINE",
"429 407 LINE",
"439 418 LINE",
"418 470 OFFCURVE",
"362 507 OFFCURVE",
"293 507 CURVE SMOOTH",
"150 507 OFFCURVE",
"52 391 OFFCURVE",
"52 225 CURVE SMOOTH",
"52 88 OFFCURVE",
"122 -8 OFFCURVE",
"248 -8 CURVE SMOOTH",
"344 -8 OFFCURVE",
"418 60 OFFCURVE",
"448 164 CURVE",
"430 178 LINE",
"425 0 LINE",
"505 0 LINE",
"505 740 LINE"
);
},
{
closed = 1;
nodes = (
"377 436 OFFCURVE",
"428 379 OFFCURVE",
"428 284 CURVE SMOOTH",
"428 155 OFFCURVE",
"356 63 OFFCURVE",
"259 63 CURVE SMOOTH",
"181 63 OFFCURVE",
"133 126 OFFCURVE",
"133 231 CURVE SMOOTH",
"133 355 OFFCURVE",
"197 436 OFFCURVE",
"295 436 CURVE SMOOTH"
);
}
);
width = 579;
},
{
anchors = (
{
name = bottom;
position = "{320, 0}";
},
{
name = center;
position = "{304, 254}";
},
{
name = stroke;
position = "{424, 628}";
},
{
name = top;
position = "{304, 740}";
},
{
name = topright;
position = "{589, 740}";
}
);
background = {
anchors = (
{
name = bottom;
position = "{304, 0}";
},
{
name = center;
position = "{304, 254}";
},
{
name = stroke;
position = "{424, 628}";
},
{
name = top;
position = "{304, 740}";
},
{
name = topright;
position = "{589, 740}";
}
);
paths = (
{
closed = 1;
nodes = (
"1308 740 LINE",
"1308 508 LINE",
"1312 418 LINE",
"1341 442 LINE",
"1316 485 OFFCURVE",
"1260 516 OFFCURVE",
"1191 516 CURVE SMOOTH",
"1043 516 OFFCURVE",
"930 402 OFFCURVE",
"930 232 CURVE SMOOTH",
"930 92 OFFCURVE",
"1005 -10 OFFCURVE",
"1145 -10 CURVE SMOOTH",
"1247 -10 OFFCURVE",
"1318 49 OFFCURVE",
"1346 155 CURVE",
"1317 179 LINE",
"1307 0 LINE",
"1454 0 LINE",
"1454 740 LINE"
);
},
{
closed = 1;
nodes = (
"1269 389 OFFCURVE",
"1308 346 OFFCURVE",
"1308 276 CURVE SMOOTH",
"1308 182 OFFCURVE",
"1253 118 OFFCURVE",
"1181 118 CURVE SMOOTH",
"1123 118 OFFCURVE",
"1085 161 OFFCURVE",
"1085 237 CURVE SMOOTH",
"1085 326 OFFCURVE",
"1132 389 OFFCURVE",
"1208 389 CURVE SMOOTH"
);
},
{
closed = 1;
nodes = (
"449 506 LINE",
"431 422 LINE",
"441 435 LINE",
"416 484 OFFCURVE",
"363 516 OFFCURVE",
"295 516 CURVE SMOOTH",
"149 516 OFFCURVE",
"35 402 OFFCURVE",
"35 232 CURVE SMOOTH",
"35 92 OFFCURVE",
"110 -10 OFFCURVE",
"247 -10 CURVE SMOOTH",
"348 -10 OFFCURVE",
"417 49 OFFCURVE",
"445 155 CURVE",
"417 179 LINE",
"407 0 LINE",
"554 0 LINE",
"554 506 LINE"
);
},
{
closed = 1;
nodes = (
"369 389 OFFCURVE",
"408 346 OFFCURVE",
"408 276 CURVE SMOOTH",
"408 182 OFFCURVE",
"351 117 OFFCURVE",
"279 117 CURVE SMOOTH",
"221 117 OFFCURVE",
"185 161 OFFCURVE",
"185 237 CURVE SMOOTH",
"185 326 OFFCURVE",
"232 389 OFFCURVE",
"308 389 CURVE SMOOTH"
);
}
);
};
layerId = "014D4A40-7C7F-4023-B30E-1F55CE5EA091";
paths = (
{
closed = 1;
nodes = (
"408 740 LINE",
"408 508 LINE",
"412 418 LINE",
"441 435 LINE",
"416 484 OFFCURVE",
"363 516 OFFCURVE",
"295 516 CURVE SMOOTH",
"149 516 OFFCURVE",
"35 402 OFFCURVE",
"35 232 CURVE SMOOTH",
"35 92 OFFCURVE",
"110 -10 OFFCURVE",
"247 -10 CURVE SMOOTH",
"349 -10 OFFCURVE",
"417 49 OFFCURVE",
"445 155 CURVE",
"417 179 LINE",
"407 0 LINE",
"554 0 LINE",
"554 740 LINE"
);
},
{
closed = 1;
nodes = (
"369 389 OFFCURVE",
"408 346 OFFCURVE",
"408 276 CURVE SMOOTH",
"408 182 OFFCURVE",
"351 117 OFFCURVE",
"279 117 CURVE SMOOTH",
"221 117 OFFCURVE",
"185 161 OFFCURVE",
"185 237 CURVE SMOOTH",
"185 326 OFFCURVE",
"232 389 OFFCURVE",
"308 389 CURVE SMOOTH"
);
}
);
width = 614;
}
);
leftKerningGroup = o;
leftMetricsKey = o;
note = d;
rightKerningGroup = d;
rightMetricsKey = "=|h";
unicode = 0064;
},
{
color = 4;
glyphname = eth;
lastChange = "2019-04-15 12:14:03 +0000";
layers = (
{
background = {
paths = (
{
closed = 1;
nodes = (
"418 -8 OFFCURVE",
"509 117 OFFCURVE",
"509 293 CURVE SMOOTH",
"509 523 OFFCURVE",
"403 675 OFFCURVE",
"183 752 CURVE",
"157 691 LINE",
"334 629 OFFCURVE",
"423 508 OFFCURVE",
"431 334 CURVE",
"453 324 LINE",
"439 416 OFFCURVE",
"369 470 OFFCURVE",
"278 470 CURVE SMOOTH",
"152 470 OFFCURVE",
"51 364 OFFCURVE",
"51 218 CURVE SMOOTH",
"51 79 OFFCURVE",
"136 -8 OFFCURVE",
"270 -8 CURVE SMOOTH"
);
},
{
closed = 1;
nodes = (
"179 63 OFFCURVE",
"131 124 OFFCURVE",
"131 218 CURVE SMOOTH",
"131 329 OFFCURVE",
"200 401 OFFCURVE",
"288 401 CURVE SMOOTH",
"374 401 OFFCURVE",
"426 342 OFFCURVE",
"426 241 CURVE SMOOTH",
"426 138 OFFCURVE",
"360 63 OFFCURVE",
"275 63 CURVE SMOOTH"
);
},
{
closed = 1;
nodes = (
"491 653 LINE",
"472 702 LINE",
"138 574 LINE",
"157 525 LINE"
);
}
);
};
layerId = "A3B50665-EA37-4AC6-885C-1233CA61B6BD";
paths = (
{
closed = 1;
nodes = (
"418 -8 OFFCURVE",
"509 117 OFFCURVE",
"509 283 CURVE SMOOTH",
"509 523 OFFCURVE",
"403 675 OFFCURVE",
"183 752 CURVE",
"157 691 LINE",
"329 632 OFFCURVE",
"421 508 OFFCURVE",
"429 334 CURVE",
"453 324 LINE",
"439 416 OFFCURVE",
"369 470 OFFCURVE",
"278 470 CURVE SMOOTH",
"152 470 OFFCURVE",
"51 364 OFFCURVE",
"51 218 CURVE SMOOTH",
"51 79 OFFCURVE",
"136 -8 OFFCURVE",
"270 -8 CURVE SMOOTH"
);
},
{
closed = 1;
nodes = (
"179 63 OFFCURVE",
"131 124 OFFCURVE",
"131 218 CURVE SMOOTH",
"131 329 OFFCURVE",
"200 401 OFFCURVE",
"288 401 CURVE SMOOTH",
"374 401 OFFCURVE",
"426 342 OFFCURVE",
"426 241 CURVE SMOOTH",
"426 138 OFFCURVE",
"360 63 OFFCURVE",
"275 63 CURVE SMOOTH"
);
},
{
closed = 1;
nodes = (
"489 654 LINE",
"472 702 LINE",
"138 574 LINE",
"155 526 LINE"
);
}
);
width = 557;
},
{
background = {
paths = (
{
closed = 1;
nodes = (
"471 -10 OFFCURVE",
"575 125 OFFCURVE",
"575 307 CURVE SMOOTH",
"575 522 OFFCURVE",
"435 688 OFFCURVE",
"194 756 CURVE",
"147 648 LINE",
"311 603 OFFCURVE",
"414 494 OFFCURVE",
"428 356 CURVE",
"468 331 LINE",
"439 426 OFFCURVE",
"376 470 OFFCURVE",
"282 470 CURVE SMOOTH",
"140 470 OFFCURVE",
"35 367 OFFCURVE",
"35 223 CURVE SMOOTH",
"35 82 OFFCURVE",
"130 -10 OFFCURVE",
"290 -10 CURVE SMOOTH"
);
},
{
closed = 1;
nodes = (
"228 115 OFFCURVE",
"186 158 OFFCURVE",
"186 224 CURVE SMOOTH",
"186 301 OFFCURVE",
"235 350 OFFCURVE",
"307 350 CURVE SMOOTH",
"375 350 OFFCURVE",
"416 308 OFFCURVE",
"416 242 CURVE SMOOTH",
"416 174 OFFCURVE",
"368 115 OFFCURVE",
"296 115 CURVE SMOOTH"
);
},
{
closed = 1;
nodes = (
"561 600 LINE",
"541 680 LINE",
"141 571 LINE",
"161 491 LINE"
);
}
);
};
layerId = "014D4A40-7C7F-4023-B30E-1F55CE5EA091";
paths = (
{
closed = 1;
nodes = (
"461 -10 OFFCURVE",
"575 122 OFFCURVE",
"575 307 CURVE SMOOTH",
"575 522 OFFCURVE",
"435 688 OFFCURVE",
"194 756 CURVE",
"147 648 LINE",
"311 603 OFFCURVE",
"414 494 OFFCURVE",
"428 356 CURVE",
"473 331 LINE",
"444 426 OFFCURVE",
"376 470 OFFCURVE",
"282 470 CURVE SMOOTH",
"142 470 OFFCURVE",
"35 367 OFFCURVE",
"35 223 CURVE SMOOTH",
"35 82 OFFCURVE",
"133 -10 OFFCURVE",
"290 -10 CURVE SMOOTH"
);
},
{
closed = 1;
nodes = (
"228 117 OFFCURVE",
"186 158 OFFCURVE",
"186 224 CURVE SMOOTH",
"186 301 OFFCURVE",
"235 349 OFFCURVE",
"307 349 CURVE SMOOTH",
"377 349 OFFCURVE",
"418 308 OFFCURVE",
"418 242 CURVE SMOOTH",
"418 174 OFFCURVE",
"370 117 OFFCURVE",
"296 117 CURVE SMOOTH"
);
},
{
closed = 1;
nodes = (
"561 590 LINE",
"542 673 LINE",
"139 578 LINE",
"158 495 LINE"
);
}
);
width = 605;
}
);
leftKerningGroup = o;
rightKerningGroup = eth;
unicode = 00F0;
},
{
color = 4;
glyphname = e;
lastChange = "2019-04-17 11:15:37 +0000";
layers = (
{
anchors = (
{
name = bottom;
position = "{289, 0}";
},
{
name = ogonek;
position = "{407, 0}";
},
{
name = top;
position = "{289, 498}";
}
);
background = {
anchors = (
{
name = bottom;
position = "{268, 0}";
},
{
name = ogonek;
position = "{407, 0}";
},
{
name = top;
position = "{284, 498}";
}
);
paths = (
{
closed = 1;
nodes = (
"383 -8 OFFCURVE",
"447 24 OFFCURVE",
"492 89 CURVE",
"441 134 LINE",
"406 86 OFFCURVE",
"356 64 OFFCURVE",
"303 64 CURVE SMOOTH",
"195 64 OFFCURVE",
"132 123 OFFCURVE",
"131 231 CURVE SMOOTH",
"131 258 LINE SMOOTH",
"130 359 OFFCURVE",
"193 443 OFFCURVE",
"289 443 CURVE SMOOTH",
"372 443 OFFCURVE",
"431 391 OFFCURVE",
"421 272 CURVE",
"441 284 LINE",
"107 284 LINE",
"107 222 LINE",
"489 222 LINE",
"510 410 OFFCURVE",
"428 507 OFFCURVE",
"290 507 CURVE SMOOTH",
"152 507 OFFCURVE",
"52 400 OFFCURVE",
"52 242 CURVE SMOOTH",
"52 85 OFFCURVE",
"145 -8 OFFCURVE",
"300 -8 CURVE SMOOTH"
);
}
);
};
layerId = "A3B50665-EA37-4AC6-885C-1233CA61B6BD";
paths = (
{
closed = 1;
nodes = (
"383 -8 OFFCURVE",
"446 24 OFFCURVE",
"492 89 CURVE",
"443 134 LINE",
"408 86 OFFCURVE",
"358 63 OFFCURVE",
"305 63 CURVE SMOOTH",
"194 63 OFFCURVE",
"132 123 OFFCURVE",
"132 231 CURVE SMOOTH",
"132 258 LINE SMOOTH",
"132 359 OFFCURVE",
"193 444 OFFCURVE",
"291 444 CURVE SMOOTH",
"372 444 OFFCURVE",
"429 394 OFFCURVE",
"419 272 CURVE",
"441 284 LINE",
"107 284 LINE",
"107 222 LINE",
"489 222 LINE",
"510 410 OFFCURVE",
"428 507 OFFCURVE",
"290 507 CURVE SMOOTH",
"154 507 OFFCURVE",
"52 397 OFFCURVE",
"52 242 CURVE SMOOTH",
"52 85 OFFCURVE",
"146 -8 OFFCURVE",
"300 -8 CURVE SMOOTH"
);
}
);
width = 536;
},
{
anchors = (
{
name = bottom;
position = "{290, 0}";
},
{
name = ogonek;
position = "{432, 0}";
},
{
name = top;
position = "{290, 508}";
}
);
background = {
anchors = (
{
name = bottom;
position = "{274, 0}";
},
{
name = ogonek;
position = "{432, 0}";
},
{
name = top;
position = "{288, 508}";
}
);
paths = (
{
closed = 1;
nodes = (
"407 -10 OFFCURVE",
"469 24 OFFCURVE",
"514 79 CURVE",
"431 163 LINE",
"402 131 OFFCURVE",
"357 114 OFFCURVE",
"320 114 CURVE SMOOTH",
"232 114 OFFCURVE",
"184 163 OFFCURVE",
"183 225 CURVE SMOOTH",
"183 266 LINE SMOOTH",
"182 354 OFFCURVE",
"226 409 OFFCURVE",
"295 409 CURVE SMOOTH",
"356 409 OFFCURVE",
"393 375 OFFCURVE",
"384 294 CURVE",
"416 311 LINE",
"145 311 LINE",
"145 212 LINE",
"508 212 LINE",
"531 396 OFFCURVE",
"455 516 OFFCURVE",
"292 516 CURVE SMOOTH",
"145 516 OFFCURVE",
"35 407 OFFCURVE",
"35 246 CURVE SMOOTH",
"35 85 OFFCURVE",
"141 -10 OFFCURVE",
"309 -10 CURVE SMOOTH"
);
}
);
};
layerId = "014D4A40-7C7F-4023-B30E-1F55CE5EA091";
paths = (
{
closed = 1;
nodes = (
"407 -10 OFFCURVE",
"469 24 OFFCURVE",
"514 79 CURVE",
"431 164 LINE",
"402 132 OFFCURVE",
"357 115 OFFCURVE",
"320 115 CURVE SMOOTH",
"232 115 OFFCURVE",
"182 163 OFFCURVE",
"182 225 CURVE SMOOTH",
"182 266 LINE SMOOTH",
"182 356 OFFCURVE",
"225 409 OFFCURVE",
"295 409 CURVE SMOOTH",
"356 409 OFFCURVE",
"393 375 OFFCURVE",
"385 296 CURVE",
"416 313 LINE",
"145 313 LINE",
"145 210 LINE",
"510 210 LINE",
"534 396 OFFCURVE",
"458 516 OFFCURVE",
"293 516 CURVE SMOOTH",
"146 516 OFFCURVE",
"35 407 OFFCURVE",
"35 246 CURVE SMOOTH",
"35 89 OFFCURVE",
"141 -10 OFFCURVE",
"309 -10 CURVE SMOOTH"
);
}
);
width = 546;
}
);
leftKerningGroup = o;
leftMetricsKey = o;
note = e;
rightKerningGroup = e;
unicode = 0065;
},
{
color = 4;
glyphname = eogonek;
lastChange = "2019-04-15 12:14:25 +0000";
layers = (
{
anchors = (
{
name = top;
position = "{289, 498}";
}
);
background = {
anchors = (
{
name = top;
position = "{968, 498}";
}
);
paths = (
{
closed = 1;
nodes = (
"383 -8 OFFCURVE",
"446 24 OFFCURVE",
"492 89 CURVE",
"443 134 LINE",
"408 86 OFFCURVE",
"358 63 OFFCURVE",
"305 63 CURVE SMOOTH",
"194 63 OFFCURVE",
"132 123 OFFCURVE",
"132 231 CURVE SMOOTH",
"132 258 LINE SMOOTH",
"132 359 OFFCURVE",
"193 444 OFFCURVE",
"291 444 CURVE SMOOTH",
"372 444 OFFCURVE",
"429 394 OFFCURVE",
"419 272 CURVE",
"441 284 LINE",
"107 284 LINE",
"107 222 LINE",
"489 222 LINE",
"510 410 OFFCURVE",
"428 507 OFFCURVE",
"290 507 CURVE SMOOTH",
"154 507 OFFCURVE",
"52 397 OFFCURVE",
"52 242 CURVE SMOOTH",
"52 85 OFFCURVE",
"146 -8 OFFCURVE",
"300 -8 CURVE SMOOTH"
);
}
);
};
layerId = "A3B50665-EA37-4AC6-885C-1233CA61B6BD";
paths = (
{
closed = 1;
nodes = (
"389 -223 OFFCURVE",
"428 -203 OFFCURVE",
"448 -173 CURVE",
"418 -132 LINE",
"397 -158 OFFCURVE",
"377 -170 OFFCURVE",
"355 -170 CURVE SMOOTH",
"321 -170 OFFCURVE",
"302 -150 OFFCURVE",
"302 -118 CURVE SMOOTH",
"302 -75 OFFCURVE",
"336 -34 OFFCURVE",
"421 22 CURVE SMOOTH",
"447 39 OFFCURVE",
"473 60 OFFCURVE",
"492 89 CURVE",
"443 134 LINE",
"408 86 OFFCURVE",
"358 63 OFFCURVE",
"305 63 CURVE SMOOTH",
"194 63 OFFCURVE",
"132 123 OFFCURVE",
"132 231 CURVE SMOOTH",
"132 258 LINE SMOOTH",
"132 359 OFFCURVE",
"193 444 OFFCURVE",
"291 444 CURVE SMOOTH",
"372 444 OFFCURVE",
"429 394 OFFCURVE",
"419 272 CURVE",
"441 284 LINE",
"107 284 LINE",
"107 222 LINE",
"489 222 LINE",
"510 410 OFFCURVE",
"428 507 OFFCURVE",
"290 507 CURVE SMOOTH",
"154 507 OFFCURVE",
"52 397 OFFCURVE",
"52 242 CURVE SMOOTH",
"52 85 OFFCURVE",
"145 -8 OFFCURVE",
"300 -8 CURVE SMOOTH",
"339 -8 LINE",
"339 10 LINE",
"274 -21 OFFCURVE",
"235 -73 OFFCURVE",
"235 -126 CURVE SMOOTH",
"235 -184 OFFCURVE",
"278 -223 OFFCURVE",
"350 -223 CURVE SMOOTH"
);
}
);
width = 536;
},
{
anchors = (
{
name = top;
position = "{290, 508}";
}
);
background = {
anchors = (
{
name = top;
position = "{1074, 508}";
}
);
paths = (
{
closed = 1;
nodes = (
"1219 -223 OFFCURVE",
"1265 -204 OFFCURVE",
"1288 -173 CURVE",
"1239 -103 LINE",
"1224 -122 OFFCURVE",
"1202 -134 OFFCURVE",
"1184 -134 CURVE SMOOTH",
"1156 -134 OFFCURVE",
"1140 -120 OFFCURVE",
"1140 -96 CURVE SMOOTH",
"1140 -62 OFFCURVE",
"1162 -33 OFFCURVE",
"1246 22 CURVE SMOOTH",
"1272 39 OFFCURVE",
"1296 58 OFFCURVE",
"1314 83 CURVE",
"1231 163 LINE",
"1202 131 OFFCURVE",
"1157 114 OFFCURVE",
"1120 114 CURVE SMOOTH",
"1032 114 OFFCURVE",
"984 163 OFFCURVE",
"983 225 CURVE",
"983 266 LINE",
"982 354 OFFCURVE",
"1026 410 OFFCURVE",
"1095 410 CURVE SMOOTH",
"1156 410 OFFCURVE",
"1193 375 OFFCURVE",
"1184 294 CURVE",
"1216 309 LINE",
"945 309 LINE",
"945 212 LINE",
"1308 212 LINE",
"1331 396 OFFCURVE",
"1255 516 OFFCURVE",
"1092 516 CURVE SMOOTH",
"945 516 OFFCURVE",
"835 407 OFFCURVE",
"835 246 CURVE SMOOTH",
"835 85 OFFCURVE",
"941 -10 OFFCURVE",
"1109 -10 CURVE SMOOTH",
"1133 -10 LINE",
"1107 9 LINE",
"1049 -19 OFFCURVE",
"1018 -62 OFFCURVE",
"1018 -112 CURVE SMOOTH",
"1018 -178 OFFCURVE",
"1080 -223 OFFCURVE",
"1168 -223 CURVE SMOOTH"
);
},
{
closed = 1;
nodes = (
"407 -10 OFFCURVE",
"469 24 OFFCURVE",
"514 79 CURVE",
"431 163 LINE",
"402 131 OFFCURVE",
"357 114 OFFCURVE",
"320 114 CURVE SMOOTH",
"232 114 OFFCURVE",
"182 163 OFFCURVE",
"182 225 CURVE SMOOTH",
"182 266 LINE SMOOTH",
"182 356 OFFCURVE",
"225 410 OFFCURVE",
"295 410 CURVE SMOOTH",
"356 410 OFFCURVE",
"393 375 OFFCURVE",
"385 296 CURVE",
"416 313 LINE",
"145 313 LINE",
"145 210 LINE",
"510 210 LINE",
"534 396 OFFCURVE",
"458 516 OFFCURVE",
"293 516 CURVE SMOOTH",
"146 516 OFFCURVE",
"35 407 OFFCURVE",
"35 246 CURVE SMOOTH",
"35 89 OFFCURVE",
"141 -10 OFFCURVE",
"309 -10 CURVE SMOOTH"
);
}
);
};
layerId = "014D4A40-7C7F-4023-B30E-1F55CE5EA091";
paths = (
{
closed = 1;
nodes = (
"419 -223 OFFCURVE",
"465 -204 OFFCURVE",
"488 -173 CURVE",
"439 -103 LINE",
"424 -122 OFFCURVE",
"402 -134 OFFCURVE",
"384 -134 CURVE SMOOTH",
"356 -134 OFFCURVE",
"340 -120 OFFCURVE",
"340 -96 CURVE SMOOTH",
"340 -62 OFFCURVE",
"361 -32 OFFCURVE",
"446 22 CURVE SMOOTH",
"472 39 OFFCURVE",
"496 58 OFFCURVE",
"512 81 CURVE",
"431 163 LINE",
"402 131 OFFCURVE",
"357 114 OFFCURVE",
"320 114 CURVE SMOOTH",
"232 114 OFFCURVE",
"182 163 OFFCURVE",
"182 225 CURVE SMOOTH",
"182 266 LINE SMOOTH",
"182 356 OFFCURVE",
"226 410 OFFCURVE",
"295 410 CURVE SMOOTH",
"356 410 OFFCURVE",
"393 375 OFFCURVE",
"385 296 CURVE",
"416 313 LINE",
"145 313 LINE",
"145 210 LINE",
"510 210 LINE",
"534 396 OFFCURVE",
"458 516 OFFCURVE",
"293 516 CURVE SMOOTH",
"146 516 OFFCURVE",
"35 407 OFFCURVE",
"35 246 CURVE SMOOTH",
"35 89 OFFCURVE",
"141 -10 OFFCURVE",
"309 -10 CURVE SMOOTH",
"333 -10 LINE",
"307 9 LINE",
"249 -19 OFFCURVE",
"218 -62 OFFCURVE",
"218 -112 CURVE SMOOTH",
"218 -178 OFFCURVE",
"280 -223 OFFCURVE",
"368 -223 CURVE SMOOTH"
);
}
);
width = 546;
}
);
leftKerningGroup = o;
leftMetricsKey = e;
widthMetricsKey = e;
rightKerningGroup = e;
unicode = 0119;
},
{
color = 4;
glyphname = f;
lastChange = "2019-04-17 15:13:28 +0000";
layers = (
{
background = {
paths = (
{
closed = 1;
nodes = (
"173 0 LINE",
"173 454 LINE",
"172 489 LINE",
"172 540 LINE SMOOTH",
"172 636 OFFCURVE",
"213 683 OFFCURVE",
"281 683 CURVE SMOOTH",
"334 683 OFFCURVE",
"368 655 OFFCURVE",
"372 610 CURVE",
"437 618 LINE",
"430 702 OFFCURVE",
"375 750 OFFCURVE",
"282 750 CURVE SMOOTH",
"170 750 OFFCURVE",
"95 670 OFFCURVE",
"95 532 CURVE SMOOTH",
"95 0 LINE"
);
},
{
closed = 1;
nodes = (
"-4 432 LINE",
"340 432 LINE",
"340 498 LINE",
"-4 498 LINE"
);
}
);
};
layerId = "A3B50665-EA37-4AC6-885C-1233CA61B6BD";
paths = (
{
closed = 1;
nodes = (
"173 0 LINE",
"173 454 LINE",
"172 489 LINE",
"172 550 LINE SMOOTH",
"172 636 OFFCURVE",
"213 683 OFFCURVE",
"281 683 CURVE SMOOTH",
"334 683 OFFCURVE",
"366 658 OFFCURVE",
"372 610 CURVE",
"438 618 LINE",
"430 702 OFFCURVE",
"375 750 OFFCURVE",
"282 750 CURVE SMOOTH",
"170 750 OFFCURVE",
"95 670 OFFCURVE",
"95 542 CURVE SMOOTH",
"95 0 LINE"
);
},
{
closed = 1;
nodes = (
"-4 432 LINE",
"340 432 LINE",
"340 498 LINE",
"-4 498 LINE"
);
}
);
width = 339;
},
{
background = {
paths = (
{
closed = 1;
nodes = (
"234 0 LINE",
"234 419 LINE",
"232 487 LINE",
"232 539 LINE SMOOTH",
"232 596 OFFCURVE",
"262 627 OFFCURVE",
"310 627 CURVE SMOOTH",
"342 627 OFFCURVE",
"365 611 OFFCURVE",
"369 582 CURVE",
"495 597 LINE",
"480 701 OFFCURVE",
"418 750 OFFCURVE",
"312 750 CURVE SMOOTH",
"182 750 OFFCURVE",
"88 662 OFFCURVE",
"88 525 CURVE SMOOTH",
"88 0 LINE"
);
},
{
closed = 1;
nodes = (
"-7 387 LINE",
"372 387 LINE",
"372 508 LINE",
"-7 508 LINE"
);
}
);
};
layerId = "014D4A40-7C7F-4023-B30E-1F55CE5EA091";
paths = (
{
closed = 1;
nodes = (
"234 0 LINE",
"234 419 LINE",
"232 487 LINE",
"232 539 LINE SMOOTH",
"232 596 OFFCURVE",
"261 627 OFFCURVE",
"309 627 CURVE SMOOTH",
"342 627 OFFCURVE",
"365 611 OFFCURVE",
"369 582 CURVE",
"493 597 LINE",
"479 701 OFFCURVE",
"414 750 OFFCURVE",
"312 750 CURVE SMOOTH",
"184 750 OFFCURVE",
"88 662 OFFCURVE",
"88 527 CURVE SMOOTH",
"88 0 LINE"
);
},
{
closed = 1;
nodes = (
"-7 387 LINE",
"372 387 LINE",
"372 508 LINE",
"-7 508 LINE"
);
}
);
width = 375;
}
);
leftKerningGroup = f;
rightKerningGroup = f;
unicode = 0066;
},
{
color = 4;
glyphname = g;
lastChange = "2019-04-17 09:53:14 +0000";
layers = (
{
anchors = (
{
name = bottom;
position = "{292, -200}";
},
{
name = top;
position = "{310, 498}";
}
);
background = {
anchors = (
{
name = bottom;
position = "{892, -200}";
},
{
name = top;
position = "{892, 498}";
}
);
paths = (
{
closed = 1;
nodes = (
"421 -210 OFFCURVE",
"506 -117 OFFCURVE",
"506 69 CURVE SMOOTH",
"506 498 LINE",
"431 498 LINE",
"430 181 OFFCURVE",
"358 75 OFFCURVE",
"255 75 CURVE SMOOTH",
"186 75 OFFCURVE",
"156 124 OFFCURVE",
"157 209 CURVE SMOOTH",
"160 498 LINE",
"82 498 LINE",
"79 200 LINE SMOOTH",
"78 76 OFFCURVE",
"134 2 OFFCURVE",
"236 2 CURVE SMOOTH",
"345 2 OFFCURVE",
"428 83 OFFCURVE",
"454 257 CURVE",
"436 218 LINE",
"432 58 LINE SMOOTH",
"429 -80 OFFCURVE",
"381 -139 OFFCURVE",
"254 -139 CURVE SMOOTH",
"205 -139 OFFCURVE",
"152 -127 OFFCURVE",
"108 -105 CURVE",
"87 -175 LINE",
"130 -199 OFFCURVE",
"195 -210 OFFCURVE",
"252 -210 CURVE SMOOTH"
);
}
);
};
layerId = "A3B50665-EA37-4AC6-885C-1233CA61B6BD";
paths = (
{
closed = 1;
nodes = (
"421 -210 OFFCURVE",
"509 -115 OFFCURVE",
"509 70 CURVE SMOOTH",
"509 498 LINE",
"450 498 LINE",
"438 416 LINE",
"443 418 LINE",
"422 470 OFFCURVE",
"366 507 OFFCURVE",
"295 507 CURVE SMOOTH",
"151 507 OFFCURVE",
"52 391 OFFCURVE",
"52 231 CURVE SMOOTH",
"52 96 OFFCURVE",
"121 2 OFFCURVE",
"249 2 CURVE SMOOTH",
"347 2 OFFCURVE",
"420 69 OFFCURVE",
"452 174 CURVE",
"435 188 LINE",
"432 58 LINE SMOOTH",
"429 -79 OFFCURVE",
"381 -139 OFFCURVE",
"254 -139 CURVE SMOOTH",
"205 -139 OFFCURVE",
"152 -127 OFFCURVE",
"108 -105 CURVE",
"87 -175 LINE",
"130 -199 OFFCURVE",
"195 -210 OFFCURVE",
"252 -210 CURVE SMOOTH"
);
},
{
closed = 1;
nodes = (
"380 436 OFFCURVE",
"432 381 OFFCURVE",
"432 289 CURVE SMOOTH",
"432 166 OFFCURVE",
"358 73 OFFCURVE",
"261 73 CURVE SMOOTH",
"182 73 OFFCURVE",
"133 133 OFFCURVE",
"133 237 CURVE SMOOTH",
"133 354 OFFCURVE",
"198 436 OFFCURVE",
"297 436 CURVE SMOOTH"
);
}
);
width = 583;
},
{
anchors = (
{
name = bottom;
position = "{306, -200}";
},
{
name = top;
position = "{320, 508}";
}
);
background = {
anchors = (
{
name = bottom;
position = "{1006, -200}";
},
{
name = top;
position = "{1006, 508}";
}
);
paths = (
{
closed = 1;
nodes = (
"436 -210 OFFCURVE",
"553 -114 OFFCURVE",
"553 96 CURVE SMOOTH",
"553 508 LINE",
"412 508 LINE",
"409 232 OFFCURVE",
"355 145 OFFCURVE",
"270 145 CURVE SMOOTH",
"221 145 OFFCURVE",
"201 184 OFFCURVE",
"201 245 CURVE SMOOTH",
"203 508 LINE",
"57 508 LINE",
"55 234 LINE SMOOTH",
"54 93 OFFCURVE",
"113 9 OFFCURVE",
"232 9 CURVE SMOOTH",
"345 9 OFFCURVE",
"431 95 OFFCURVE",
"456 238 CURVE",
"422 208 LINE",
"414 79 LINE SMOOTH",
"407 -32 OFFCURVE",
"366 -82 OFFCURVE",
"253 -82 CURVE SMOOTH",
"189 -82 OFFCURVE",
"139 -67 OFFCURVE",
"94 -44 CURVE",
"59 -169 LINE",
"104 -198 OFFCURVE",
"184 -210 OFFCURVE",
"245 -210 CURVE SMOOTH"
);
}
);
};
layerId = "014D4A40-7C7F-4023-B30E-1F55CE5EA091";
paths = (
{
closed = 1;
nodes = (
"436 -210 OFFCURVE",
"558 -110 OFFCURVE",
"558 96 CURVE SMOOTH",
"558 506 LINE",
"453 506 LINE",
"435 422 LINE",
"445 435 LINE",
"420 484 OFFCURVE",
"367 516 OFFCURVE",
"296 516 CURVE SMOOTH",
"145 516 OFFCURVE",
"35 401 OFFCURVE",
"35 238 CURVE SMOOTH",
"35 105 OFFCURVE",
"112 9 OFFCURVE",
"254 9 CURVE SMOOTH",
"356 9 OFFCURVE",
"422 67 OFFCURVE",
"451 174 CURVE",
"421 198 LINE",
"414 79 LINE SMOOTH",
"407 -32 OFFCURVE",
"366 -82 OFFCURVE",
"253 -82 CURVE SMOOTH",
"189 -82 OFFCURVE",
"139 -67 OFFCURVE",
"94 -44 CURVE",
"59 -169 LINE",
"104 -198 OFFCURVE",
"184 -210 OFFCURVE",
"245 -210 CURVE SMOOTH"
);
},
{
closed = 1;
nodes = (
"372 389 OFFCURVE",
"412 349 OFFCURVE",
"412 284 CURVE SMOOTH",
"412 200 OFFCURVE",
"356 136 OFFCURVE",
"283 136 CURVE SMOOTH",
"223 136 OFFCURVE",
"185 177 OFFCURVE",
"185 248 CURVE SMOOTH",
"185 330 OFFCURVE",
"233 389 OFFCURVE",
"309 389 CURVE SMOOTH"
);
}
);
width = 618;
}
);
leftKerningGroup = o;
leftMetricsKey = o;
note = g;
rightKerningGroup = u;
rightMetricsKey = "=|n";
unicode = 0067;
},
{
color = 4;
glyphname = h;
lastChange = "2019-04-15 12:05:11 +0000";
layers = (
{
anchors = (
{
name = bottom;
position = "{289, 0}";
},
{
name = stroke;
position = "{165, 624}";
},
{
name = top;
position = "{289, 710}";
}
);
background = {
anchors = (
{
name = bottom;
position = "{288, 0}";
},
{
name = stroke;
position = "{165, 624}";
},
{
name = top;
position = "{288, 740}";
}
);
paths = (
{
closed = 1;
nodes = (
"151 0 LINE",
"152 328 OFFCURVE",
"226 434 OFFCURVE",
"328 434 CURVE SMOOTH",
"398 434 OFFCURVE",
"429 385 OFFCURVE",
"428 290 CURVE SMOOTH",
"426 0 LINE",
"504 0 LINE",
"506 299 LINE SMOOTH",
"507 433 OFFCURVE",
"450 507 OFFCURVE",
"347 507 CURVE SMOOTH",
"239 507 OFFCURVE",
"161 426 OFFCURVE",
"134 282 CURVE",
"145 290 LINE",
"153 498 LINE",
"152 740 LINE",
"74 740 LINE",
"74 0 LINE"
);
}
);
};
layerId = "A3B50665-EA37-4AC6-885C-1233CA61B6BD";
paths = (
{
closed = 1;
nodes = (
"151 0 LINE",
"152 328 OFFCURVE",
"226 434 OFFCURVE",
"328 434 CURVE SMOOTH",
"398 434 OFFCURVE",
"429 385 OFFCURVE",
"428 290 CURVE SMOOTH",
"426 0 LINE",
"504 0 LINE",
"506 299 LINE SMOOTH",
"507 433 OFFCURVE",
"450 507 OFFCURVE",
"347 507 CURVE SMOOTH",
"239 507 OFFCURVE",
"161 426 OFFCURVE",
"134 282 CURVE",
"145 290 LINE",
"153 498 LINE",
"152 740 LINE",
"74 740 LINE",
"74 0 LINE"
);
}
);
width = 574;
},
{
anchors = (
{
name = bottom;
position = "{312, 0}";
},
{
name = stroke;
position = "{190, 628}";
},
{
name = top;
position = "{312, 710}";
}
);
background = {
anchors = (
{
name = bottom;
position = "{310, 0}";
},
{
name = stroke;
position = "{190, 628}";
},
{
name = top;
position = "{310, 740}";
}
);
paths = (
{
closed = 1;
nodes = (
"205 0 LINE",
"209 297 OFFCURVE",
"267 381 OFFCURVE",
"350 381 CURVE SMOOTH",
"399 381 OFFCURVE",
"421 341 OFFCURVE",
"420 270 CURVE SMOOTH",
"418 0 LINE",
"564 0 LINE",
"566 281 LINE SMOOTH",
"567 432 OFFCURVE",
"507 516 OFFCURVE",
"388 516 CURVE SMOOTH",
"275 516 OFFCURVE",
"188 431 OFFCURVE",
"163 289 CURVE",
"194 309 LINE",
"207 508 LINE",
"206 740 LINE",
"60 740 LINE",
"60 0 LINE"
);
}
);
};
layerId = "014D4A40-7C7F-4023-B30E-1F55CE5EA091";
paths = (
{
closed = 1;
nodes = (
"205 0 LINE",
"209 297 OFFCURVE",
"267 381 OFFCURVE",
"350 381 CURVE SMOOTH",
"399 381 OFFCURVE",
"421 341 OFFCURVE",
"420 270 CURVE SMOOTH",
"418 0 LINE",
"564 0 LINE",
"566 281 LINE SMOOTH",
"567 432 OFFCURVE",
"507 516 OFFCURVE",
"388 516 CURVE SMOOTH",
"275 516 OFFCURVE",
"188 431 OFFCURVE",
"163 289 CURVE",
"194 309 LINE",
"207 508 LINE",
"206 740 LINE",
"60 740 LINE",
"60 0 LINE"
);
}
);
width = 618;
}
);
leftKerningGroup = h;
leftMetricsKey = n;
note = h;
rightKerningGroup = n;
rightMetricsKey = n;
unicode = 0068;
},
{
color = 4;
glyphname = idotless;
lastChange = "2019-04-17 15:06:28 +0000";
layers = (
{
anchors = (
{
name = bottom;
position = "{113, 0}";
},
{
name = ogonek;
position = "{151, 0}";
},
{
name = top;
position = "{113, 498}";
}
);
background = {
anchors = (
{
name = bottom;
position = "{113, 0}";
},
{
name = ogonek;
position = "{151, 0}";
},
{
name = top;
position = "{113, 498}";
}
);
paths = (
{
closed = 1;
nodes = (
"74 498 LINE",
"74 0 LINE",
"151 0 LINE",
"151 498 LINE"
);
}
);
};
layerId = "A3B50665-EA37-4AC6-885C-1233CA61B6BD";
paths = (
{
closed = 1;
nodes = (
"74 498 LINE",
"74 0 LINE",
"151 0 LINE",
"151 498 LINE"
);
}
);
width = 225;
},
{
anchors = (
{
name = bottom;
position = "{133, 0}";
},
{
name = ogonek;
position = "{206, 0}";
},
{
name = top;
position = "{133, 508}";
}
);
background = {
anchors = (
{
name = bottom;
position = "{133, 0}";
},
{
name = ogonek;
position = "{206, 0}";
},
{
name = top;
position = "{133, 508}";
}
);
paths = (
{
closed = 1;
nodes = (
"60 508 LINE",
"60 0 LINE",
"206 0 LINE",
"206 508 LINE"
);
}
);
};
layerId = "014D4A40-7C7F-4023-B30E-1F55CE5EA091";
paths = (
{
closed = 1;
nodes = (
"60 508 LINE",
"60 0 LINE",
"206 0 LINE",
"206 508 LINE"
);
}
);
width = 266;
}
);
leftKerningGroup = n;
leftMetricsKey = n;
rightKerningGroup = u;
rightMetricsKey = "=|";
unicode = 0131;
},
{
color = 4;
glyphname = jdotless;
lastChange = "2019-04-17 12:02:16 +0000";
layers = (
{
anchors = (
{
name = bottom;
position = "{127, -200}";
},
{
name = top;
position = "{127, 498}";
}
);
background = {
anchors = (
{
name = bottom;
position = "{127, -200}";
},
{
name = top;
position = "{127, 498}";
}
);
paths = (
{
closed = 1;
nodes = (
"91 -210 OFFCURVE",
"165 -134 OFFCURVE",
"165 -4 CURVE SMOOTH",
"165 498 LINE",
"88 498 LINE",
"88 0 LINE SMOOTH",
"88 -87 OFFCURVE",
"55 -140 OFFCURVE",
"-27 -140 CURVE SMOOTH",
"-54 -140 OFFCURVE",
"-81 -135 OFFCURVE",
"-106 -124 CURVE",
"-124 -190 LINE",
"-99 -204 OFFCURVE",
"-61 -210 OFFCURVE",
"-25 -210 CURVE SMOOTH"
);
}
);
};
layerId = "A3B50665-EA37-4AC6-885C-1233CA61B6BD";
paths = (
{
closed = 1;
nodes = (
"91 -210 OFFCURVE",
"166 -134 OFFCURVE",
"166 -4 CURVE SMOOTH",
"166 498 LINE",
"88 498 LINE",
"88 0 LINE SMOOTH",
"88 -87 OFFCURVE",
"55 -140 OFFCURVE",
"-27 -140 CURVE SMOOTH",
"-54 -140 OFFCURVE",
"-81 -135 OFFCURVE",
"-106 -124 CURVE",
"-124 -190 LINE",
"-99 -204 OFFCURVE",
"-61 -210 OFFCURVE",
"-25 -210 CURVE SMOOTH"
);
}
);
width = 240;
},
{
anchors = (
{
name = bottom;
position = "{144, -200}";
},
{
name = top;
position = "{144, 508}";
}
);
background = {
anchors = (
{
name = bottom;
position = "{144, -200}";
},
{
name = top;
position = "{144, 508}";
}
);
paths = (
{
closed = 1;
nodes = (
"124 -200 OFFCURVE",
"217 -119 OFFCURVE",
"217 27 CURVE SMOOTH",
"217 508 LINE",
"71 508 LINE",
"71 26 LINE SMOOTH",
"71 -44 OFFCURVE",
"43 -76 OFFCURVE",
"-20 -76 CURVE SMOOTH",
"-52 -76 OFFCURVE",
"-86 -69 OFFCURVE",
"-107 -63 CURVE",
"-128 -183 LINE",
"-99 -194 OFFCURVE",
"-58 -200 OFFCURVE",
"-15 -200 CURVE SMOOTH"
);
}
);
};
layerId = "014D4A40-7C7F-4023-B30E-1F55CE5EA091";
paths = (
{
closed = 1;
nodes = (
"124 -200 OFFCURVE",
"217 -119 OFFCURVE",
"217 27 CURVE SMOOTH",
"217 508 LINE",
"71 508 LINE",
"71 26 LINE SMOOTH",
"71 -44 OFFCURVE",
"43 -76 OFFCURVE",
"-20 -76 CURVE SMOOTH",
"-52 -76 OFFCURVE",
"-86 -69 OFFCURVE",
"-107 -63 CURVE",
"-128 -183 LINE",
"-99 -194 OFFCURVE",
"-58 -200 OFFCURVE",
"-15 -200 CURVE SMOOTH"
);
}
);
width = 277;
}
);
leftKerningGroup = j;
rightKerningGroup = u;
unicode = 0237;
},
{
color = 4;
glyphname = k;
lastChange = "2019-04-17 07:48:04 +0000";
layers = (
{
anchors = (
{
name = bottom;
position = "{268, 0}";
},
{
name = top;
position = "{241, 740}";
}
);
background = {
anchors = (
{
name = bottom;
position = "{241, 0}";
},
{
name = top;
position = "{241, 740}";
}
);
paths = (
{
closed = 1;
nodes = (
"473 74 LINE",
"459 66 OFFCURVE",
"442 61 OFFCURVE",
"425 61 CURVE SMOOTH",
"388 61 OFFCURVE",
"362 73 OFFCURVE",
"325 127 CURVE SMOOTH",
"277 196 LINE SMOOTH",
"234 258 OFFCURVE",
"203 275 OFFCURVE",
"170 275 CURVE",
"200 238 LINE",
"463 497 LINE",
"365 497 LINE",
"139 273 LINE",
"111 239 LINE",
"142 239 OFFCURVE",
"166 225 OFFCURVE",
"202 173 CURVE SMOOTH",
"274 70 LINE SMOOTH",
"311 17 OFFCURVE",
"353 -6 OFFCURVE",
"412 -6 CURVE SMOOTH",
"442 -6 OFFCURVE",
"468 0 OFFCURVE",
"492 15 CURVE"
);
},
{
closed = 1;
nodes = (
"152 0 LINE",
"152 740 LINE",
"74 740 LINE",
"74 0 LINE"
);
}
);
};
guideLines = (
{
angle = 128.8201;
position = "{345, 161}";
}
);
layerId = "A3B50665-EA37-4AC6-885C-1233CA61B6BD";
paths = (
{
closed = 1;
nodes = (
"473 74 LINE",
"459 66 OFFCURVE",
"442 61 OFFCURVE",
"425 61 CURVE SMOOTH",
"388 61 OFFCURVE",
"363 73 OFFCURVE",
"335 113 CURVE SMOOTH",
"263 217 LINE SMOOTH",
"234 258 OFFCURVE",
"203 275 OFFCURVE",
"170 275 CURVE",
"200 238 LINE",
"463 497 LINE",
"365 497 LINE",
"139 273 LINE",
"111 239 LINE",
"142 239 OFFCURVE",
"166 225 OFFCURVE",
"202 173 CURVE SMOOTH",
"274 70 LINE SMOOTH",
"311 17 OFFCURVE",
"353 -6 OFFCURVE",
"412 -6 CURVE SMOOTH",
"442 -6 OFFCURVE",
"468 0 OFFCURVE",
"492 15 CURVE"
);
},
{
closed = 1;
nodes = (
"152 0 LINE",
"152 740 LINE",
"74 740 LINE",
"74 0 LINE"
);
}
);
width = 468;
},
{
anchors = (
{
name = bottom;
position = "{323, 0}";
},
{
name = top;
position = "{289, 740}";
}
);
background = {
anchors = (
{
name = bottom;
position = "{289, 0}";
},
{
name = top;
position = "{289, 740}";
}
);
paths = (
{
closed = 1;
nodes = (
"564 126 LINE",
"547 117 OFFCURVE",
"529 112 OFFCURVE",
"508 112 CURVE SMOOTH",
"471 112 OFFCURVE",
"442 128 OFFCURVE",
"421 160 CURVE SMOOTH",
"383 218 LINE SMOOTH",
"352 266 OFFCURVE",
"311 288 OFFCURVE",
"251 288 CURVE",
"321 239 LINE",
"574 508 LINE",
"398 508 LINE",
"187 284 LINE",
"144 226 LINE",
"198 226 OFFCURVE",
"223 210 OFFCURVE",
"258 155 CURVE SMOOTH",
"300 90 LINE SMOOTH",
"345 19 OFFCURVE",
"396 -8 OFFCURVE",
"480 -10 CURVE SMOOTH",
"522 -11 OFFCURVE",
"560 -3 OFFCURVE",
"596 19 CURVE"
);
},
{
closed = 1;
nodes = (
"206 0 LINE",
"206 740 LINE",
"60 740 LINE",
"60 0 LINE"
);
}
);
};
guideLines = (
{
angle = 126.1496;
position = "{414, 166}";
}
);
layerId = "014D4A40-7C7F-4023-B30E-1F55CE5EA091";
paths = (
{
closed = 1;
nodes = (
"564 126 LINE",
"547 117 OFFCURVE",
"529 112 OFFCURVE",
"508 112 CURVE SMOOTH",
"471 112 OFFCURVE",
"442 128 OFFCURVE",
"421 160 CURVE SMOOTH",
"379 225 LINE SMOOTH",
"352 266 OFFCURVE",
"311 284 OFFCURVE",
"251 284 CURVE",
"318 239 LINE",
"572 508 LINE",
"398 508 LINE",
"187 284 LINE",
"144 226 LINE",
"198 226 OFFCURVE",
"223 210 OFFCURVE",
"258 155 CURVE SMOOTH",
"300 90 LINE SMOOTH",
"345 19 OFFCURVE",
"396 -8 OFFCURVE",
"480 -10 CURVE SMOOTH",
"522 -11 OFFCURVE",
"560 -3 OFFCURVE",
"596 19 CURVE"
);
},
{
closed = 1;
nodes = (
"206 0 LINE",
"206 740 LINE",
"60 740 LINE",
"60 0 LINE"
);
}
);
width = 558;
}
);
leftKerningGroup = h;
leftMetricsKey = h;
note = k;
rightKerningGroup = k;
unicode = 006B;
},
{
color = 4;
glyphname = kgreenlandic;
lastChange = "2019-04-15 12:17:13 +0000";
layers = (
{
background = {
paths = (
{
closed = 1;
nodes = (
"152 0 LINE",
"152 498 LINE",
"74 498 LINE",
"74 0 LINE"
);
},
{
closed = 1;
nodes = (
"473 74 LINE",
"459 66 OFFCURVE",
"442 61 OFFCURVE",
"425 61 CURVE SMOOTH",
"388 61 OFFCURVE",
"362 73 OFFCURVE",
"325 127 CURVE SMOOTH",
"277 196 LINE SMOOTH",
"234 258 OFFCURVE",
"203 275 OFFCURVE",
"170 275 CURVE",
"200 238 LINE",
"463 497 LINE",
"365 497 LINE",
"139 273 LINE",
"111 239 LINE",
"142 239 OFFCURVE",
"166 225 OFFCURVE",
"202 173 CURVE SMOOTH",
"274 70 LINE SMOOTH",
"311 17 OFFCURVE",
"356 -6 OFFCURVE",
"412 -6 CURVE SMOOTH",
"442 -6 OFFCURVE",
"468 0 OFFCURVE",
"492 15 CURVE"
);
}
);
};
layerId = "A3B50665-EA37-4AC6-885C-1233CA61B6BD";
paths = (
{
closed = 1;
nodes = (
"152 0 LINE",
"152 498 LINE",
"74 498 LINE",
"74 0 LINE"
);
},
{
closed = 1;
nodes = (
"473 74 LINE",
"459 66 OFFCURVE",
"442 61 OFFCURVE",
"425 61 CURVE SMOOTH",
"388 61 OFFCURVE",
"363 73 OFFCURVE",
"335 113 CURVE SMOOTH",
"263 217 LINE SMOOTH",
"234 258 OFFCURVE",
"203 275 OFFCURVE",
"170 275 CURVE",
"200 238 LINE",
"463 497 LINE",
"365 497 LINE",
"139 273 LINE",
"111 239 LINE",
"142 239 OFFCURVE",
"166 225 OFFCURVE",
"202 173 CURVE SMOOTH",
"274 70 LINE SMOOTH",
"311 17 OFFCURVE",
"353 -6 OFFCURVE",
"412 -6 CURVE SMOOTH",
"442 -6 OFFCURVE",
"468 0 OFFCURVE",
"492 15 CURVE"
);
}
);
width = 468;
},
{
background = {
paths = (
{
closed = 1;
nodes = (
"206 0 LINE",
"206 508 LINE",
"60 508 LINE",
"60 0 LINE"
);
},
{
closed = 1;
nodes = (
"564 126 LINE",
"547 117 OFFCURVE",
"529 112 OFFCURVE",
"508 112 CURVE SMOOTH",
"471 112 OFFCURVE",
"442 128 OFFCURVE",
"421 160 CURVE SMOOTH",
"383 218 LINE SMOOTH",
"352 266 OFFCURVE",
"311 288 OFFCURVE",
"251 288 CURVE",
"321 239 LINE",
"574 508 LINE",
"398 508 LINE",
"187 284 LINE",
"144 226 LINE",
"198 226 OFFCURVE",
"223 210 OFFCURVE",
"258 155 CURVE SMOOTH",
"300 90 LINE SMOOTH",
"345 19 OFFCURVE",
"396 -8 OFFCURVE",
"480 -10 CURVE SMOOTH",
"522 -11 OFFCURVE",
"560 -3 OFFCURVE",
"596 19 CURVE"
);
}
);
};
layerId = "014D4A40-7C7F-4023-B30E-1F55CE5EA091";
paths = (
{
closed = 1;
nodes = (
"206 0 LINE",
"206 508 LINE",
"60 508 LINE",
"60 0 LINE"
);
},
{
closed = 1;
nodes = (
"564 126 LINE",
"547 117 OFFCURVE",
"529 112 OFFCURVE",
"508 112 CURVE SMOOTH",
"471 112 OFFCURVE",
"442 128 OFFCURVE",
"421 160 CURVE SMOOTH",
"379 225 LINE SMOOTH",
"352 266 OFFCURVE",
"311 284 OFFCURVE",
"251 284 CURVE",
"318 239 LINE",
"572 508 LINE",
"398 508 LINE",
"187 284 LINE",
"144 226 LINE",
"198 226 OFFCURVE",
"223 210 OFFCURVE",
"258 155 CURVE SMOOTH",
"300 90 LINE SMOOTH",
"345 19 OFFCURVE",
"396 -8 OFFCURVE",
"480 -10 CURVE SMOOTH",
"522 -11 OFFCURVE",
"560 -3 OFFCURVE",
"596 19 CURVE"
);
}
);
width = 558;
}
);
leftKerningGroup = n;
leftMetricsKey = n;
widthMetricsKey = k;
rightKerningGroup = k;
unicode = 0138;
},
{
color = 4;
glyphname = l;
lastChange = "2019-04-17 08:15:51 +0000";
layers = (
{
anchors = (
{
name = bottom;
position = "{123, 0}";
},
{
name = center;
position = "{113, 380}";
},
{
name = dotacc;
position = "{263, 410}";
},
{
name = top;
position = "{113, 710}";
},
{
name = topright;
position = "{202, 740}";
}
);
background = {
anchors = (
{
name = bottom;
position = "{134, 0}";
},
{
name = center;
position = "{113, 380}";
},
{
name = dotacc;
position = "{263, 410}";
},
{
name = top;
position = "{113, 740}";
},
{
name = topright;
position = "{202, 740}";
}
);
paths = (
{
closed = 1;
nodes = (
"230 -8 OFFCURVE",
"264 2 OFFCURVE",
"282 22 CURVE",
"261 76 LINE",
"250 69 OFFCURVE",
"229 60 OFFCURVE",
"208 60 CURVE SMOOTH",
"173 60 OFFCURVE",
"152 85 OFFCURVE",
"152 124 CURVE SMOOTH",
"152 740 LINE",
"74 740 LINE",
"74 114 LINE SMOOTH",
"74 42 OFFCURVE",
"115 -8 OFFCURVE",
"199 -8 CURVE SMOOTH"
);
}
);
};
layerId = "A3B50665-EA37-4AC6-885C-1233CA61B6BD";
paths = (
{
closed = 1;
nodes = (
"230 -8 OFFCURVE",
"263 2 OFFCURVE",
"282 17 CURVE",
"261 76 LINE",
"250 69 OFFCURVE",
"231 62 OFFCURVE",
"211 62 CURVE SMOOTH",
"169 62 OFFCURVE",
"152 85 OFFCURVE",
"152 128 CURVE SMOOTH",
"152 740 LINE",
"74 740 LINE",
"74 118 LINE SMOOTH",
"74 42 OFFCURVE",
"115 -8 OFFCURVE",
"199 -8 CURVE SMOOTH"
);
}
);
width = 268;
},
{
anchors = (
{
name = bottom;
position = "{143, 0}";
},
{
name = center;
position = "{133, 380}";
},
{
name = dotacc;
position = "{342, 435}";
},
{
name = top;
position = "{133, 710}";
},
{
name = topright;
position = "{241, 740}";
}
);
background = {
anchors = (
{
name = bottom;
position = "{154, 0}";
},
{
name = center;
position = "{133, 380}";
},
{
name = dotacc;
position = "{342, 435}";
},
{
name = top;
position = "{133, 740}";
},
{
name = topright;
position = "{241, 740}";
}
);
paths = (
{
closed = 1;
nodes = (
"262 -10 OFFCURVE",
"304 4 OFFCURVE",
"326 27 CURVE",
"291 127 LINE",
"280 119 OFFCURVE",
"266 115 OFFCURVE",
"251 115 CURVE SMOOTH",
"222 115 OFFCURVE",
"206 132 OFFCURVE",
"206 162 CURVE SMOOTH",
"206 740 LINE",
"60 740 LINE",
"60 152 LINE SMOOTH",
"60 47 OFFCURVE",
"116 -10 OFFCURVE",
"217 -10 CURVE SMOOTH"
);
}
);
};
layerId = "014D4A40-7C7F-4023-B30E-1F55CE5EA091";
paths = (
{
closed = 1;
nodes = (
"262 -10 OFFCURVE",
"304 4 OFFCURVE",
"326 22 CURVE",
"291 127 LINE",
"280 119 OFFCURVE",
"266 115 OFFCURVE",
"251 115 CURVE SMOOTH",
"222 115 OFFCURVE",
"206 132 OFFCURVE",
"206 164 CURVE SMOOTH",
"206 740 LINE",
"60 740 LINE",
"60 154 LINE SMOOTH",
"60 47 OFFCURVE",
"116 -10 OFFCURVE",
"217 -10 CURVE SMOOTH"
);
}
);
width = 305;
}
);
leftKerningGroup = h;
leftMetricsKey = h;
note = l;
rightKerningGroup = l;
unicode = 006C;
},
{
color = 4;
glyphname = m;
lastChange = "2019-04-17 11:31:11 +0000";
layers = (
{
anchors = (
{
name = bottom;
position = "{459, 0}";
},
{
name = top;
position = "{459, 498}";
}
);
background = {
anchors = (
{
name = bottom;
position = "{458, 0}";
},
{
name = top;
position = "{458, 498}";
}
);
paths = (
{
closed = 1;
nodes = (
"151 0 LINE",
"152 338 OFFCURVE",
"234 434 OFFCURVE",
"323 434 CURVE SMOOTH",
"391 434 OFFCURVE",
"420 385 OFFCURVE",
"420 290 CURVE SMOOTH",
"420 0 LINE",
"497 0 LINE",
"498 338 OFFCURVE",
"579 434 OFFCURVE",
"668 434 CURVE SMOOTH",
"736 434 OFFCURVE",
"768 385 OFFCURVE",
"767 290 CURVE SMOOTH",
"765 0 LINE",
"843 0 LINE",
"845 299 LINE SMOOTH",
"846 433 OFFCURVE",
"790 507 OFFCURVE",
"687 507 CURVE SMOOTH",
"592 507 OFFCURVE",
"504 435 OFFCURVE",
"477 294 CURVE",
"497 318 LINE",
"492 443 OFFCURVE",
"434 507 OFFCURVE",
"339 507 CURVE SMOOTH",
"245 507 OFFCURVE",
"164 435 OFFCURVE",
"134 282 CURVE",
"145 290 LINE",
"153 498 LINE",
"74 498 LINE",
"74 0 LINE"
);
}
);
};
layerId = "A3B50665-EA37-4AC6-885C-1233CA61B6BD";
paths = (
{
closed = 1;
nodes = (
"151 0 LINE",
"152 338 OFFCURVE",
"234 434 OFFCURVE",
"323 434 CURVE SMOOTH",
"391 434 OFFCURVE",
"420 385 OFFCURVE",
"420 290 CURVE SMOOTH",
"420 0 LINE",
"497 0 LINE",
"498 338 OFFCURVE",
"579 434 OFFCURVE",
"668 434 CURVE SMOOTH",
"736 434 OFFCURVE",
"768 385 OFFCURVE",
"767 290 CURVE SMOOTH",
"765 0 LINE",
"843 0 LINE",
"845 299 LINE SMOOTH",
"846 433 OFFCURVE",
"790 507 OFFCURVE",
"687 507 CURVE SMOOTH",
"592 507 OFFCURVE",
"504 435 OFFCURVE",
"477 294 CURVE",
"497 318 LINE",
"492 443 OFFCURVE",
"434 507 OFFCURVE",
"339 507 CURVE SMOOTH",
"245 507 OFFCURVE",
"164 435 OFFCURVE",
"134 282 CURVE",
"145 290 LINE",
"153 498 LINE",
"74 498 LINE",
"74 0 LINE"
);
}
);
width = 913;
},
{
anchors = (
{
name = bottom;
position = "{485, 0}";
},
{
name = top;
position = "{485, 508}";
}
);
background = {
anchors = (
{
name = bottom;
position = "{483, 0}";
},
{
name = top;
position = "{483, 508}";
}
);
paths = (
{
closed = 1;
nodes = (
"205 0 LINE",
"209 299 OFFCURVE",
"268 381 OFFCURVE",
"342 381 CURVE SMOOTH",
"391 381 OFFCURVE",
"412 341 OFFCURVE",
"412 280 CURVE SMOOTH",
"412 0 LINE",
"557 0 LINE",
"560 299 OFFCURVE",
"619 381 OFFCURVE",
"693 381 CURVE SMOOTH",
"742 381 OFFCURVE",
"765 341 OFFCURVE",
"765 280 CURVE SMOOTH",
"763 0 LINE",
"909 0 LINE",
"911 281 LINE SMOOTH",
"912 431 OFFCURVE",
"853 516 OFFCURVE",
"735 516 CURVE SMOOTH",
"640 516 OFFCURVE",
"536 452 OFFCURVE",
"513 313 CURVE",
"556 327 LINE",
"545 460 OFFCURVE",
"475 516 OFFCURVE",
"386 516 CURVE SMOOTH",
"287 516 OFFCURVE",
"193 446 OFFCURVE",
"163 289 CURVE",
"194 309 LINE",
"205 508 LINE",
"60 508 LINE",
"60 0 LINE"
);
}
);
};
layerId = "014D4A40-7C7F-4023-B30E-1F55CE5EA091";
paths = (
{
closed = 1;
nodes = (
"205 0 LINE",
"209 299 OFFCURVE",
"268 381 OFFCURVE",
"342 381 CURVE SMOOTH",
"391 381 OFFCURVE",
"412 341 OFFCURVE",
"412 280 CURVE SMOOTH",
"412 0 LINE",
"557 0 LINE",
"560 299 OFFCURVE",
"619 381 OFFCURVE",
"693 381 CURVE SMOOTH",
"742 381 OFFCURVE",
"765 341 OFFCURVE",
"765 280 CURVE SMOOTH",
"763 0 LINE",
"909 0 LINE",
"911 281 LINE SMOOTH",
"912 431 OFFCURVE",
"852 516 OFFCURVE",
"734 516 CURVE SMOOTH",
"638 516 OFFCURVE",
"534 452 OFFCURVE",
"508 313 CURVE",
"556 327 LINE",
"545 460 OFFCURVE",
"472 516 OFFCURVE",
"383 516 CURVE SMOOTH",
"284 516 OFFCURVE",
"193 453 OFFCURVE",
"161 289 CURVE",
"194 309 LINE",
"205 508 LINE",
"60 508 LINE",
"60 0 LINE"
);
}
);
width = 963;
}
);
leftKerningGroup = n;
leftMetricsKey = n;
note = m;
rightKerningGroup = n;
rightMetricsKey = n;
unicode = 006D;
},
{
color = 4;
glyphname = n;
lastChange = "2019-04-17 15:07:18 +0000";
layers = (
{
anchors = (
{
name = bottom;
position = "{289, 0}";
},
{
name = top;
position = "{288, 498}";
}
);
background = {
anchors = (
{
name = bottom;
position = "{288, 0}";
},
{
name = top;
position = "{288, 498}";
}
);
paths = (
{
closed = 1;
nodes = (
"151 0 LINE",
"152 328 OFFCURVE",
"226 434 OFFCURVE",
"328 434 CURVE SMOOTH",
"398 434 OFFCURVE",
"429 385 OFFCURVE",
"428 290 CURVE SMOOTH",
"426 0 LINE",
"504 0 LINE",
"506 299 LINE SMOOTH",
"507 433 OFFCURVE",
"450 507 OFFCURVE",
"347 507 CURVE SMOOTH",
"239 507 OFFCURVE",
"161 426 OFFCURVE",
"134 282 CURVE",
"145 290 LINE",
"153 498 LINE",
"74 498 LINE",
"74 0 LINE"
);
}
);
};
layerId = "A3B50665-EA37-4AC6-885C-1233CA61B6BD";
paths = (
{
closed = 1;
nodes = (
"151 0 LINE",
"152 328 OFFCURVE",
"226 434 OFFCURVE",
"328 434 CURVE SMOOTH",
"398 434 OFFCURVE",
"429 385 OFFCURVE",
"428 290 CURVE SMOOTH",
"426 0 LINE",
"504 0 LINE",
"506 299 LINE SMOOTH",
"507 433 OFFCURVE",
"450 507 OFFCURVE",
"347 507 CURVE SMOOTH",
"239 507 OFFCURVE",
"161 426 OFFCURVE",
"134 282 CURVE",
"145 290 LINE",
"153 498 LINE",
"74 498 LINE",
"74 0 LINE"
);
}
);
width = 574;
},
{
anchors = (
{
name = bottom;
position = "{312, 0}";
},
{
name = top;
position = "{312, 508}";
}
);
background = {
anchors = (
{
name = bottom;
position = "{310, 0}";
},
{
name = top;
position = "{310, 508}";
}
);
paths = (
{
closed = 1;
nodes = (
"205 0 LINE",
"209 297 OFFCURVE",
"267 381 OFFCURVE",
"350 381 CURVE SMOOTH",
"399 381 OFFCURVE",
"421 341 OFFCURVE",
"420 270 CURVE SMOOTH",
"418 0 LINE",
"564 0 LINE",
"566 281 LINE SMOOTH",
"567 432 OFFCURVE",
"507 516 OFFCURVE",
"388 516 CURVE SMOOTH",
"275 516 OFFCURVE",
"188 431 OFFCURVE",
"163 289 CURVE",
"194 309 LINE",
"205 508 LINE",
"60 508 LINE",
"60 0 LINE"
);
}
);
};
layerId = "014D4A40-7C7F-4023-B30E-1F55CE5EA091";
paths = (
{
closed = 1;
nodes = (
"205 0 LINE",
"209 297 OFFCURVE",
"267 381 OFFCURVE",
"350 381 CURVE SMOOTH",
"399 381 OFFCURVE",
"421 341 OFFCURVE",
"420 270 CURVE SMOOTH",
"418 0 LINE",
"564 0 LINE",
"566 281 LINE SMOOTH",
"567 432 OFFCURVE",
"507 516 OFFCURVE",
"388 516 CURVE SMOOTH",
"275 516 OFFCURVE",
"188 431 OFFCURVE",
"163 289 CURVE",
"194 309 LINE",
"205 508 LINE",
"60 508 LINE",
"60 0 LINE"
);
}
);
width = 618;
}
);
leftKerningGroup = n;
note = n;
rightKerningGroup = n;
unicode = 006E;
},
{
color = 4;
glyphname = eng;
lastChange = "2019-04-15 12:18:19 +0000";
layers = (
{
background = {
paths = (
{
closed = 1;
nodes = (
"506 299 LINE SMOOTH",
"507 433 OFFCURVE",
"450 507 OFFCURVE",
"347 507 CURVE SMOOTH",
"239 507 OFFCURVE",
"161 426 OFFCURVE",
"134 282 CURVE",
"145 290 LINE",
"153 498 LINE",
"74 498 LINE",
"74 0 LINE",
"151 0 LINE",
"152 328 OFFCURVE",
"226 434 OFFCURVE",
"328 434 CURVE SMOOTH",
"398 434 OFFCURVE",
"429 385 OFFCURVE",
"428 290 CURVE SMOOTH",
"426 -10 LINE SMOOTH",
"425 -89 OFFCURVE",
"398 -142 OFFCURVE",
"318 -142 CURVE SMOOTH",
"291 -142 OFFCURVE",
"261 -137 OFFCURVE",
"236 -127 CURVE",
"218 -191 LINE",
"243 -204 OFFCURVE",
"284 -210 OFFCURVE",
"320 -210 CURVE SMOOTH",
"434 -210 OFFCURVE",
"504 -134 OFFCURVE",
"505 -14 CURVE SMOOTH"
);
}
);
};
layerId = "A3B50665-EA37-4AC6-885C-1233CA61B6BD";
paths = (
{
closed = 1;
nodes = (
"506 299 LINE SMOOTH",
"507 433 OFFCURVE",
"450 507 OFFCURVE",
"347 507 CURVE SMOOTH",
"239 507 OFFCURVE",
"161 426 OFFCURVE",
"134 282 CURVE",
"145 290 LINE",
"153 498 LINE",
"74 498 LINE",
"74 0 LINE",
"151 0 LINE",
"152 328 OFFCURVE",
"226 434 OFFCURVE",
"328 434 CURVE SMOOTH",
"398 434 OFFCURVE",
"429 385 OFFCURVE",
"428 290 CURVE SMOOTH",
"426 -10 LINE SMOOTH",
"425 -89 OFFCURVE",
"398 -142 OFFCURVE",
"318 -142 CURVE SMOOTH",
"291 -142 OFFCURVE",
"261 -137 OFFCURVE",
"236 -127 CURVE",
"218 -191 LINE",
"243 -204 OFFCURVE",
"284 -210 OFFCURVE",
"320 -210 CURVE SMOOTH",
"434 -210 OFFCURVE",
"504 -134 OFFCURVE",
"505 -14 CURVE SMOOTH"
);
}
);
width = 574;
},
{
background = {
paths = (
{
closed = 1;
nodes = (
"566 281 LINE SMOOTH",
"567 432 OFFCURVE",
"507 516 OFFCURVE",
"388 516 CURVE SMOOTH",
"275 516 OFFCURVE",
"188 431 OFFCURVE",
"163 289 CURVE",
"194 309 LINE",
"205 508 LINE",
"60 508 LINE",
"60 0 LINE",
"205 0 LINE",
"209 297 OFFCURVE",
"267 381 OFFCURVE",
"350 381 CURVE SMOOTH",
"399 381 OFFCURVE",
"421 341 OFFCURVE",
"420 270 CURVE SMOOTH",
"418 26 LINE SMOOTH",
"417 -44 OFFCURVE",
"391 -80 OFFCURVE",
"335 -80 CURVE SMOOTH",
"311 -80 OFFCURVE",
"287 -77 OFFCURVE",
"268 -70 CURVE",
"243 -184 LINE",
"270 -195 OFFCURVE",
"308 -200 OFFCURVE",
"343 -200 CURVE SMOOTH",
"475 -200 OFFCURVE",
"563 -116 OFFCURVE",
"564 27 CURVE SMOOTH"
);
}
);
};
layerId = "014D4A40-7C7F-4023-B30E-1F55CE5EA091";
paths = (
{
closed = 1;
nodes = (
"566 281 LINE SMOOTH",
"567 432 OFFCURVE",
"507 516 OFFCURVE",
"388 516 CURVE SMOOTH",
"275 516 OFFCURVE",
"188 431 OFFCURVE",
"163 289 CURVE",
"194 309 LINE",
"205 508 LINE",
"60 508 LINE",
"60 0 LINE",
"205 0 LINE",
"209 297 OFFCURVE",
"267 381 OFFCURVE",
"350 381 CURVE SMOOTH",
"399 381 OFFCURVE",
"421 341 OFFCURVE",
"420 270 CURVE SMOOTH",
"418 26 LINE SMOOTH",
"417 -44 OFFCURVE",
"391 -80 OFFCURVE",
"335 -80 CURVE SMOOTH",
"311 -80 OFFCURVE",
"287 -77 OFFCURVE",
"268 -70 CURVE",
"243 -184 LINE",
"270 -195 OFFCURVE",
"308 -200 OFFCURVE",
"343 -200 CURVE SMOOTH",
"475 -200 OFFCURVE",
"563 -116 OFFCURVE",
"564 27 CURVE SMOOTH"
);
}
);
width = 618;
}
);
leftKerningGroup = n;
leftMetricsKey = n;
widthMetricsKey = n;
rightKerningGroup = n;
unicode = 014B;
},
{
color = 4;
glyphname = o;
lastChange = "2019-04-17 15:07:27 +0000";
layers = (
{
anchors = (
{
name = bottom;
position = "{285, 0}";
},
{
name = center;
position = "{285, 249}";
},
{
name = ogonek;
position = "{362, 0}";
},
{
name = top;
position = "{285, 498}";
},
{
name = topright;
position = "{419, 498}";
}
);
background = {
anchors = (
{
name = bottom;
position = "{285, 0}";
},
{
name = center;
position = "{285, 249}";
},
{
name = ogonek;
position = "{362, 0}";
},
{
name = top;
position = "{285, 498}";
},
{
name = topright;
position = "{419, 498}";
}
);
paths = (
{
closed = 1;
nodes = (
"148 507 OFFCURVE",
"53 392 OFFCURVE",
"53 240 CURVE SMOOTH",
"53 87 OFFCURVE",
"138 -8 OFFCURVE",
"279 -8 CURVE SMOOTH",
"420 -8 OFFCURVE",
"516 107 OFFCURVE",
"516 259 CURVE SMOOTH",
"516 412 OFFCURVE",
"431 507 OFFCURVE",
"293 507 CURVE SMOOTH"
);
},
{
closed = 1;
nodes = (
"187 63 OFFCURVE",
"133 126 OFFCURVE",
"133 240 CURVE SMOOTH",
"133 356 OFFCURVE",
"196 436 OFFCURVE",
"294 436 CURVE SMOOTH",
"382 436 OFFCURVE",
"436 373 OFFCURVE",
"436 259 CURVE SMOOTH",
"436 142 OFFCURVE",
"373 63 OFFCURVE",
"279 63 CURVE SMOOTH"
);
}
);
};
guideLines = (
{
angle = 90;
position = "{536, 259}";
}
);
layerId = "A3B50665-EA37-4AC6-885C-1233CA61B6BD";
paths = (
{
closed = 1;
nodes = (
"147 507 OFFCURVE",
"52 392 OFFCURVE",
"52 240 CURVE SMOOTH",
"52 87 OFFCURVE",
"137 -8 OFFCURVE",
"279 -8 CURVE SMOOTH",
"421 -8 OFFCURVE",
"517 107 OFFCURVE",
"517 259 CURVE SMOOTH",
"517 412 OFFCURVE",
"432 507 OFFCURVE",
"293 507 CURVE SMOOTH"
);
},
{
closed = 1;
nodes = (
"187 63 OFFCURVE",
"133 126 OFFCURVE",
"133 240 CURVE SMOOTH",
"133 356 OFFCURVE",
"196 436 OFFCURVE",
"294 436 CURVE SMOOTH",
"382 436 OFFCURVE",
"436 373 OFFCURVE",
"436 259 CURVE SMOOTH",
"436 142 OFFCURVE",
"373 63 OFFCURVE",
"279 63 CURVE SMOOTH"
);
}
);
width = 569;
},
{
anchors = (
{
name = bottom;
position = "{297, 0}";
},
{
name = center;
position = "{297, 254}";
},
{
name = ogonek;
position = "{393, 0}";
},
{
name = top;
position = "{297, 508}";
},
{
name = topright;
position = "{416, 508}";
}
);
background = {
anchors = (
{
name = bottom;
position = "{297, 0}";
},
{
name = center;
position = "{297, 254}";
},
{
name = ogonek;
position = "{393, 0}";
},
{
name = top;
position = "{297, 508}";
},
{
name = topright;
position = "{416, 508}";
}
);
paths = (
{
closed = 1;
nodes = (
"142 516 OFFCURVE",
"35 399 OFFCURVE",
"35 241 CURVE SMOOTH",
"35 87 OFFCURVE",
"129 -10 OFFCURVE",
"285 -10 CURVE SMOOTH",
"450 -10 OFFCURVE",
"558 107 OFFCURVE",
"558 265 CURVE SMOOTH",
"558 419 OFFCURVE",
"463 516 OFFCURVE",
"307 516 CURVE SMOOTH"
);
},
{
closed = 1;
nodes = (
"224 117 OFFCURVE",
"185 163 OFFCURVE",
"185 241 CURVE SMOOTH",
"185 331 OFFCURVE",
"231 389 OFFCURVE",
"303 389 CURVE SMOOTH",
"368 389 OFFCURVE",
"408 343 OFFCURVE",
"408 265 CURVE SMOOTH",
"408 175 OFFCURVE",
"362 117 OFFCURVE",
"292 117 CURVE SMOOTH"
);
}
);
};
guideLines = (
{
angle = 90;
position = "{588, 265}";
}
);
layerId = "014D4A40-7C7F-4023-B30E-1F55CE5EA091";
paths = (
{
closed = 1;
nodes = (
"142 516 OFFCURVE",
"35 399 OFFCURVE",
"35 241 CURVE SMOOTH",
"35 87 OFFCURVE",
"129 -10 OFFCURVE",
"285 -10 CURVE SMOOTH",
"450 -10 OFFCURVE",
"558 107 OFFCURVE",
"558 265 CURVE SMOOTH",
"558 419 OFFCURVE",
"463 516 OFFCURVE",
"307 516 CURVE SMOOTH"
);
},
{
closed = 1;
nodes = (
"224 117 OFFCURVE",
"185 163 OFFCURVE",
"185 241 CURVE SMOOTH",
"185 331 OFFCURVE",
"231 389 OFFCURVE",
"303 389 CURVE SMOOTH",
"368 389 OFFCURVE",
"408 343 OFFCURVE",
"408 265 CURVE SMOOTH",
"408 175 OFFCURVE",
"362 117 OFFCURVE",
"292 117 CURVE SMOOTH"
);
}
);
width = 593;
}
);
leftKerningGroup = o;
note = o;
rightKerningGroup = o;
rightMetricsKey = "=|";
unicode = 006F;
},
{
color = 6;
glyphname = oogonek;
lastChange = "2019-04-15 12:18:21 +0000";
layers = (
{
anchors = (
{
name = top;
position = "{285, 498}";
}
);
background = {
anchors = (
{
name = top;
position = "{985, 498}";
}
);
paths = (
{
closed = 1;
nodes = (
"1165 61 OFFCURVE",
"1216 148 OFFCURVE",
"1216 259 CURVE SMOOTH",
"1216 412 OFFCURVE",
"1131 507 OFFCURVE",
"993 507 CURVE SMOOTH",
"848 507 OFFCURVE",
"753 392 OFFCURVE",
"753 240 CURVE SMOOTH",
"753 87 OFFCURVE",
"838 -8 OFFCURVE",
"979 -8 CURVE SMOOTH",
"1000 -8 LINE",
"994 10 LINE",
"929 -21 OFFCURVE",
"890 -73 OFFCURVE",
"890 -126 CURVE SMOOTH",
"890 -184 OFFCURVE",
"933 -223 OFFCURVE",
"1005 -223 CURVE SMOOTH",
"1044 -223 OFFCURVE",
"1083 -203 OFFCURVE",
"1103 -173 CURVE",
"1073 -132 LINE",
"1052 -158 OFFCURVE",
"1032 -170 OFFCURVE",
"1010 -170 CURVE SMOOTH",
"976 -170 OFFCURVE",
"957 -150 OFFCURVE",
"957 -118 CURVE SMOOTH",
"957 -74 OFFCURVE",
"994 -34 OFFCURVE",
"1091 20 CURVE SMOOTH"
);
},
{
closed = 1;
nodes = (
"833 356 OFFCURVE",
"896 436 OFFCURVE",
"994 436 CURVE SMOOTH",
"1082 436 OFFCURVE",
"1136 373 OFFCURVE",
"1136 259 CURVE SMOOTH",
"1136 142 OFFCURVE",
"1073 63 OFFCURVE",
"979 63 CURVE SMOOTH",
"887 63 OFFCURVE",
"833 126 OFFCURVE",
"833 240 CURVE SMOOTH"
);
},
{
closed = 1;
nodes = (
"147 507 OFFCURVE",
"52 392 OFFCURVE",
"52 240 CURVE SMOOTH",
"52 87 OFFCURVE",
"137 -8 OFFCURVE",
"279 -8 CURVE SMOOTH",
"421 -8 OFFCURVE",
"517 107 OFFCURVE",
"517 259 CURVE SMOOTH",
"517 412 OFFCURVE",
"432 507 OFFCURVE",
"293 507 CURVE SMOOTH"
);
},
{
closed = 1;
nodes = (
"187 63 OFFCURVE",
"133 126 OFFCURVE",
"133 240 CURVE SMOOTH",
"133 356 OFFCURVE",
"196 436 OFFCURVE",
"294 436 CURVE SMOOTH",
"382 436 OFFCURVE",
"436 373 OFFCURVE",
"436 259 CURVE SMOOTH",
"436 142 OFFCURVE",
"373 63 OFFCURVE",
"279 63 CURVE SMOOTH"
);
}
);
};
layerId = "A3B50665-EA37-4AC6-885C-1233CA61B6BD";
paths = (
{
closed = 1;
nodes = (
"465 61 OFFCURVE",
"517 148 OFFCURVE",
"517 259 CURVE SMOOTH",
"517 412 OFFCURVE",
"432 507 OFFCURVE",
"293 507 CURVE SMOOTH",
"147 507 OFFCURVE",
"52 392 OFFCURVE",
"52 240 CURVE SMOOTH",
"52 87 OFFCURVE",
"137 -8 OFFCURVE",
"279 -8 CURVE SMOOTH",
"300 -8 LINE",
"294 10 LINE",
"229 -21 OFFCURVE",
"190 -73 OFFCURVE",
"190 -126 CURVE SMOOTH",
"190 -184 OFFCURVE",
"233 -223 OFFCURVE",
"305 -223 CURVE SMOOTH",
"344 -223 OFFCURVE",
"383 -203 OFFCURVE",
"403 -173 CURVE",
"373 -132 LINE",
"352 -158 OFFCURVE",
"332 -170 OFFCURVE",
"310 -170 CURVE SMOOTH",
"276 -170 OFFCURVE",
"257 -150 OFFCURVE",
"257 -118 CURVE SMOOTH",
"257 -74 OFFCURVE",
"294 -33 OFFCURVE",
"391 20 CURVE SMOOTH"
);
},
{
closed = 1;
nodes = (
"133 356 OFFCURVE",
"196 436 OFFCURVE",
"294 436 CURVE SMOOTH",
"382 436 OFFCURVE",
"436 373 OFFCURVE",
"436 259 CURVE SMOOTH",
"436 142 OFFCURVE",
"373 63 OFFCURVE",
"279 63 CURVE SMOOTH",
"187 63 OFFCURVE",
"133 126 OFFCURVE",
"133 240 CURVE SMOOTH"
);
}
);
width = 569;
},
{
anchors = (
{
name = top;
position = "{297, 508}";
}
);
background = {
anchors = (
{
name = top;
position = "{297, 508}";
}
);
paths = (
{
closed = 1;
nodes = (
"504 63 OFFCURVE",
"558 154 OFFCURVE",
"558 265 CURVE SMOOTH",
"558 419 OFFCURVE",
"463 516 OFFCURVE",
"307 516 CURVE SMOOTH",
"142 516 OFFCURVE",
"35 399 OFFCURVE",
"35 241 CURVE SMOOTH",
"35 87 OFFCURVE",
"129 -10 OFFCURVE",
"285 -10 CURVE SMOOTH",
"303 -10 LINE",
"272 12 LINE",
"211 -18 OFFCURVE",
"179 -61 OFFCURVE",
"179 -112 CURVE SMOOTH",
"179 -178 OFFCURVE",
"241 -223 OFFCURVE",
"329 -223 CURVE SMOOTH",
"380 -223 OFFCURVE",
"426 -204 OFFCURVE",
"449 -173 CURVE",
"400 -103 LINE",
"385 -122 OFFCURVE",
"363 -134 OFFCURVE",
"345 -134 CURVE SMOOTH",
"317 -134 OFFCURVE",
"301 -120 OFFCURVE",
"301 -96 CURVE SMOOTH",
"301 -63 OFFCURVE",
"321 -28 OFFCURVE",
"416 19 CURVE SMOOTH"
);
},
{
closed = 1;
nodes = (
"185 331 OFFCURVE",
"231 389 OFFCURVE",
"303 389 CURVE SMOOTH",
"368 389 OFFCURVE",
"408 343 OFFCURVE",
"408 265 CURVE SMOOTH",
"408 175 OFFCURVE",
"362 117 OFFCURVE",
"292 117 CURVE SMOOTH",
"224 117 OFFCURVE",
"185 163 OFFCURVE",
"185 241 CURVE SMOOTH"
);
}
);
};
layerId = "014D4A40-7C7F-4023-B30E-1F55CE5EA091";
paths = (
{
closed = 1;
nodes = (
"504 63 OFFCURVE",
"558 154 OFFCURVE",
"558 265 CURVE SMOOTH",
"558 419 OFFCURVE",
"463 516 OFFCURVE",
"307 516 CURVE SMOOTH",
"142 516 OFFCURVE",
"35 399 OFFCURVE",
"35 241 CURVE SMOOTH",
"35 87 OFFCURVE",
"129 -10 OFFCURVE",
"285 -10 CURVE SMOOTH",
"303 -10 LINE",
"272 12 LINE",
"211 -18 OFFCURVE",
"179 -61 OFFCURVE",
"179 -112 CURVE SMOOTH",
"179 -178 OFFCURVE",
"241 -223 OFFCURVE",
"329 -223 CURVE SMOOTH",
"380 -223 OFFCURVE",
"426 -204 OFFCURVE",
"449 -173 CURVE",
"400 -103 LINE",
"385 -122 OFFCURVE",
"363 -134 OFFCURVE",
"345 -134 CURVE SMOOTH",
"317 -134 OFFCURVE",
"301 -120 OFFCURVE",
"301 -96 CURVE SMOOTH",
"301 -63 OFFCURVE",
"321 -28 OFFCURVE",
"416 19 CURVE SMOOTH"
);
},
{
closed = 1;
nodes = (
"185 331 OFFCURVE",
"231 389 OFFCURVE",
"303 389 CURVE SMOOTH",
"368 389 OFFCURVE",
"408 343 OFFCURVE",
"408 265 CURVE SMOOTH",
"408 175 OFFCURVE",
"362 117 OFFCURVE",
"292 117 CURVE SMOOTH",
"224 117 OFFCURVE",
"185 163 OFFCURVE",
"185 241 CURVE SMOOTH"
);
}
);
width = 593;
}
);
leftKerningGroup = o;
leftMetricsKey = o;
widthMetricsKey = o;
rightKerningGroup = o;
unicode = 01EB;
},
{
color = 4;
glyphname = oe;
lastChange = "2019-04-15 12:18:26 +0000";
layers = (
{
anchors = (
{
name = bottom;
position = "{476, 0}";
},
{
name = top;
position = "{476, 498}";
}
);
background = {
anchors = (
{
name = bottom;
position = "{1576, 0}";
},
{
name = top;
position = "{1576, 498}";
}
);
paths = (
{
closed = 1;
nodes = (
"764 -8 OFFCURVE",
"827 24 OFFCURVE",
"873 89 CURVE",
"824 134 LINE",
"789 86 OFFCURVE",
"739 63 OFFCURVE",
"686 63 CURVE SMOOTH",
"575 63 OFFCURVE",
"513 123 OFFCURVE",
"513 231 CURVE SMOOTH",
"513 258 LINE SMOOTH",
"513 359 OFFCURVE",
"574 444 OFFCURVE",
"672 444 CURVE SMOOTH",
"753 444 OFFCURVE",
"810 394 OFFCURVE",
"800 272 CURVE",
"822 284 LINE",
"488 284 LINE",
"488 222 LINE",
"870 222 LINE",
"891 410 OFFCURVE",
"809 507 OFFCURVE",
"671 507 CURVE SMOOTH",
"535 507 OFFCURVE",
"433 397 OFFCURVE",
"433 242 CURVE SMOOTH",
"433 85 OFFCURVE",
"527 -8 OFFCURVE",
"681 -8 CURVE SMOOTH"
);
}
);
};
layerId = "A3B50665-EA37-4AC6-885C-1233CA61B6BD";
paths = (
{
closed = 1;
nodes = (
"147 507 OFFCURVE",
"52 392 OFFCURVE",
"52 240 CURVE SMOOTH",
"52 87 OFFCURVE",
"137 -8 OFFCURVE",
"279 -8 CURVE SMOOTH",
"416 -8 OFFCURVE",
"506 107 OFFCURVE",
"506 259 CURVE SMOOTH",
"506 412 OFFCURVE",
"427 507 OFFCURVE",
"290 507 CURVE SMOOTH"
);
},
{
closed = 1;
nodes = (
"187 63 OFFCURVE",
"133 126 OFFCURVE",
"133 240 CURVE SMOOTH",
"133 356 OFFCURVE",
"196 436 OFFCURVE",
"294 436 CURVE SMOOTH",
"382 436 OFFCURVE",
"436 373 OFFCURVE",
"436 259 CURVE SMOOTH",
"436 142 OFFCURVE",
"373 63 OFFCURVE",
"279 63 CURVE SMOOTH"
);
},
{
closed = 1;
nodes = (
"764 -8 OFFCURVE",
"827 24 OFFCURVE",
"873 89 CURVE",
"824 134 LINE",
"789 86 OFFCURVE",
"739 63 OFFCURVE",
"686 63 CURVE SMOOTH",
"578 63 OFFCURVE",
"516 123 OFFCURVE",
"516 231 CURVE SMOOTH",
"516 263 LINE SMOOTH",
"516 359 OFFCURVE",
"574 444 OFFCURVE",
"672 444 CURVE SMOOTH",
"753 444 OFFCURVE",
"810 394 OFFCURVE",
"800 272 CURVE",
"821 284 LINE",
"493 284 LINE",
"493 222 LINE",
"870 222 LINE",
"891 410 OFFCURVE",
"809 507 OFFCURVE",
"670 507 CURVE SMOOTH",
"548 507 OFFCURVE",
"448 400 OFFCURVE",
"448 242 CURVE SMOOTH",
"448 85 OFFCURVE",
"532 -8 OFFCURVE",
"681 -8 CURVE SMOOTH"
);
}
);
width = 917;
},
{
anchors = (
{
name = bottom;
position = "{483, 0}";
},
{
name = top;
position = "{483, 508}";
}
);
background = {
anchors = (
{
name = bottom;
position = "{1483, 0}";
},
{
name = top;
position = "{1483, 508}";
}
);
paths = (
{
closed = 1;
nodes = (
"1142 516 OFFCURVE",
"1035 399 OFFCURVE",
"1035 241 CURVE SMOOTH",
"1035 87 OFFCURVE",
"1129 -10 OFFCURVE",
"1282 -10 CURVE SMOOTH",
"1440 -10 OFFCURVE",
"1528 107 OFFCURVE",
"1528 265 CURVE SMOOTH",
"1528 419 OFFCURVE",
"1453 516 OFFCURVE",
"1297 516 CURVE SMOOTH"
);
},
{
closed = 1;
nodes = (
"1224 117 OFFCURVE",
"1185 163 OFFCURVE",
"1185 241 CURVE SMOOTH",
"1185 331 OFFCURVE",
"1231 389 OFFCURVE",
"1303 389 CURVE SMOOTH",
"1368 389 OFFCURVE",
"1408 343 OFFCURVE",
"1408 265 CURVE SMOOTH",
"1408 175 OFFCURVE",
"1362 117 OFFCURVE",
"1292 117 CURVE SMOOTH"
);
},
{
closed = 1;
nodes = (
"1781 -10 OFFCURVE",
"1843 24 OFFCURVE",
"1888 83 CURVE",
"1805 163 LINE",
"1776 131 OFFCURVE",
"1731 114 OFFCURVE",
"1694 114 CURVE SMOOTH",
"1606 114 OFFCURVE",
"1557 163 OFFCURVE",
"1557 225 CURVE SMOOTH",
"1557 266 LINE SMOOTH",
"1557 354 OFFCURVE",
"1600 410 OFFCURVE",
"1669 410 CURVE SMOOTH",
"1730 410 OFFCURVE",
"1767 375 OFFCURVE",
"1758 294 CURVE",
"1790 309 LINE",
"1519 309 LINE",
"1519 212 LINE",
"1882 212 LINE",
"1905 396 OFFCURVE",
"1829 516 OFFCURVE",
"1666 516 CURVE SMOOTH",
"1523 516 OFFCURVE",
"1434 407 OFFCURVE",
"1434 246 CURVE SMOOTH",
"1434 85 OFFCURVE",
"1519 -10 OFFCURVE",
"1683 -10 CURVE SMOOTH"
);
},
{
closed = 1;
nodes = (
"395 -10 OFFCURVE",
"465 31 OFFCURVE",
"501 114 CURVE",
"467 109 LINE",
"510 28 OFFCURVE",
"576 -10 OFFCURVE",
"679 -10 CURVE SMOOTH",
"777 -10 OFFCURVE",
"839 24 OFFCURVE",
"884 79 CURVE",
"801 163 LINE",
"772 131 OFFCURVE",
"727 114 OFFCURVE",
"690 114 CURVE SMOOTH",
"602 114 OFFCURVE",
"557 163 OFFCURVE",
"557 223 CURVE SMOOTH",
"557 270 LINE SMOOTH",
"557 356 OFFCURVE",
"595 410 OFFCURVE",
"669 410 CURVE SMOOTH",
"726 410 OFFCURVE",
"763 375 OFFCURVE",
"755 296 CURVE",
"787 313 LINE",
"529 313 LINE",
"529 210 LINE",
"880 210 LINE",
"904 396 OFFCURVE",
"828 516 OFFCURVE",
"663 516 CURVE SMOOTH",
"599 516 OFFCURVE",
"517 475 OFFCURVE",
"485 406 CURVE",
"523 394 LINE",
"494 484 OFFCURVE",
"417 516 OFFCURVE",
"331 516 CURVE SMOOTH",
"212 516 OFFCURVE",
"130 451 OFFCURVE",
"103 359 CURVE",
"229 335 LINE",
"243 375 OFFCURVE",
"273 399 OFFCURVE",
"326 399 CURVE SMOOTH",
"378 399 OFFCURVE",
"409 371 OFFCURVE",
"409 318 CURVE SMOOTH",
"409 193 LINE SMOOTH",
"409 133 OFFCURVE",
"377 101 OFFCURVE",
"320 101 CURVE SMOOTH",
"273 101 OFFCURVE",
"241 122 OFFCURVE",
"241 156 CURVE SMOOTH",
"241 190 OFFCURVE",
"264 210 OFFCURVE",
"322 210 CURVE SMOOTH",
"453 210 LINE",
"453 313 LINE",
"310 313 LINE SMOOTH",
"170 313 OFFCURVE",
"98 244 OFFCURVE",
"98 150 CURVE SMOOTH",
"98 57 OFFCURVE",
"183 -10 OFFCURVE",
"300 -10 CURVE SMOOTH"
);
}
);
};
layerId = "014D4A40-7C7F-4023-B30E-1F55CE5EA091";
paths = (
{
closed = 1;
nodes = (
"142 516 OFFCURVE",
"35 399 OFFCURVE",
"35 241 CURVE SMOOTH",
"35 87 OFFCURVE",
"129 -10 OFFCURVE",
"282 -10 CURVE SMOOTH",
"440 -10 OFFCURVE",
"530 107 OFFCURVE",
"530 265 CURVE SMOOTH",
"530 419 OFFCURVE",
"453 516 OFFCURVE",
"297 516 CURVE SMOOTH"
);
},
{
closed = 1;
nodes = (
"224 117 OFFCURVE",
"185 163 OFFCURVE",
"185 241 CURVE SMOOTH",
"185 331 OFFCURVE",
"231 389 OFFCURVE",
"303 389 CURVE SMOOTH",
"368 389 OFFCURVE",
"408 343 OFFCURVE",
"408 265 CURVE SMOOTH",
"408 175 OFFCURVE",
"362 117 OFFCURVE",
"292 117 CURVE SMOOTH"
);
},
{
closed = 1;
nodes = (
"777 -10 OFFCURVE",
"839 24 OFFCURVE",
"884 79 CURVE",
"801 163 LINE",
"772 131 OFFCURVE",
"727 114 OFFCURVE",
"690 114 CURVE SMOOTH",
"602 114 OFFCURVE",
"557 163 OFFCURVE",
"557 223 CURVE SMOOTH",
"557 270 LINE SMOOTH",
"557 356 OFFCURVE",
"595 410 OFFCURVE",
"669 410 CURVE SMOOTH",
"726 410 OFFCURVE",
"763 375 OFFCURVE",
"755 296 CURVE",
"787 313 LINE",
"529 313 LINE",
"529 210 LINE",
"880 210 LINE",
"904 396 OFFCURVE",
"828 516 OFFCURVE",
"663 516 CURVE SMOOTH",
"545 516 OFFCURVE",
"438 407 OFFCURVE",
"438 246 CURVE SMOOTH",
"438 85 OFFCURVE",
"525 -10 OFFCURVE",
"679 -10 CURVE SMOOTH"
);
}
);
width = 916;
}
);
leftKerningGroup = o;
leftMetricsKey = o;
rightKerningGroup = e;
rightMetricsKey = e;
unicode = 0153;
},
{
color = 4;
glyphname = p;
lastChange = "2019-04-15 12:07:53 +0000";
layers = (
{
anchors = (
{
name = bottom;
position = "{289, 0}";
},
{
name = top;
position = "{289, 498}";
}
);
background = {
anchors = (
{
name = bottom;
position = "{889, 0}";
},
{
name = top;
position = "{889, 498}";
}
);
paths = (
{
closed = 1;
nodes = (
"752 -200 LINE",
"752 0 LINE",
"750 90 LINE",
"742 81 LINE",
"760 29 OFFCURVE",
"817 -8 OFFCURVE",
"886 -8 CURVE SMOOTH",
"1029 -8 OFFCURVE",
"1127 108 OFFCURVE",
"1127 274 CURVE SMOOTH",
"1127 411 OFFCURVE",
"1057 507 OFFCURVE",
"931 507 CURVE SMOOTH",
"835 507 OFFCURVE",
"760 441 OFFCURVE",
"732 335 CURVE",
"748 320 LINE",
"753 498 LINE",
"674 498 LINE",
"674 -200 LINE"
);
},
{
closed = 1;
nodes = (
"802 64 OFFCURVE",
"751 121 OFFCURVE",
"751 216 CURVE SMOOTH",
"751 345 OFFCURVE",
"824 436 OFFCURVE",
"920 436 CURVE SMOOTH",
"998 436 OFFCURVE",
"1046 374 OFFCURVE",
"1046 269 CURVE SMOOTH",
"1046 145 OFFCURVE",
"982 64 OFFCURVE",
"884 64 CURVE SMOOTH"
);
},
{
closed = 1;
nodes = (
"133 0 LINE",
"145 82 LINE",
"141 81 LINE",
"161 29 OFFCURVE",
"217 -8 OFFCURVE",
"286 -8 CURVE SMOOTH",
"429 -8 OFFCURVE",
"527 108 OFFCURVE",
"527 274 CURVE SMOOTH",
"527 411 OFFCURVE",
"457 507 OFFCURVE",
"331 507 CURVE SMOOTH",
"233 507 OFFCURVE",
"161 439 OFFCURVE",
"131 335 CURVE",
"147 321 LINE",
"152 499 LINE",
"152 740 LINE",
"74 740 LINE",
"74 0 LINE"
);
},
{
closed = 1;
nodes = (
"202 63 OFFCURVE",
"151 121 OFFCURVE",
"151 216 CURVE SMOOTH",
"151 345 OFFCURVE",
"223 436 OFFCURVE",
"320 436 CURVE SMOOTH",
"398 436 OFFCURVE",
"446 374 OFFCURVE",
"446 269 CURVE SMOOTH",
"446 145 OFFCURVE",
"382 63 OFFCURVE",
"284 63 CURVE SMOOTH"
);
}
);
};
layerId = "A3B50665-EA37-4AC6-885C-1233CA61B6BD";
paths = (
{
closed = 1;
nodes = (
"152 -200 LINE",
"152 0 LINE",
"150 90 LINE",
"141 81 LINE",
"161 29 OFFCURVE",
"217 -8 OFFCURVE",
"286 -8 CURVE SMOOTH",
"429 -8 OFFCURVE",
"527 108 OFFCURVE",
"527 274 CURVE SMOOTH",
"527 411 OFFCURVE",
"457 507 OFFCURVE",
"331 507 CURVE SMOOTH",
"233 507 OFFCURVE",
"161 439 OFFCURVE",
"131 335 CURVE",
"148 320 LINE",
"153 498 LINE",
"74 498 LINE",
"74 -200 LINE"
);
},
{
closed = 1;
nodes = (
"202 63 OFFCURVE",
"151 121 OFFCURVE",
"151 216 CURVE SMOOTH",
"151 345 OFFCURVE",
"223 436 OFFCURVE",
"320 436 CURVE SMOOTH",
"398 436 OFFCURVE",
"446 374 OFFCURVE",
"446 269 CURVE SMOOTH",
"446 145 OFFCURVE",
"382 63 OFFCURVE",
"284 63 CURVE SMOOTH"
);
}
);
width = 579;
},
{
anchors = (
{
name = bottom;
position = "{310, 0}";
},
{
name = top;
position = "{310, 508}";
}
);
background = {
anchors = (
{
name = bottom;
position = "{1010, 0}";
},
{
name = top;
position = "{1010, 508}";
}
);
paths = (
{
closed = 1;
nodes = (
"906 -200 LINE",
"906 0 LINE",
"902 90 LINE",
"885 47 LINE",
"905 21 OFFCURVE",
"954 -10 OFFCURVE",
"1023 -10 CURVE SMOOTH",
"1171 -10 OFFCURVE",
"1284 104 OFFCURVE",
"1284 274 CURVE SMOOTH",
"1284 414 OFFCURVE",
"1209 516 OFFCURVE",
"1069 516 CURVE SMOOTH",
"967 516 OFFCURVE",
"896 457 OFFCURVE",
"868 351 CURVE",
"897 329 LINE",
"907 508 LINE",
"760 508 LINE",
"760 -200 LINE"
);
},
{
closed = 1;
nodes = (
"945 118 OFFCURVE",
"906 161 OFFCURVE",
"906 231 CURVE SMOOTH",
"906 325 OFFCURVE",
"961 389 OFFCURVE",
"1033 389 CURVE SMOOTH",
"1091 389 OFFCURVE",
"1129 346 OFFCURVE",
"1129 270 CURVE SMOOTH",
"1129 181 OFFCURVE",
"1082 118 OFFCURVE",
"1006 118 CURVE SMOOTH"
);
},
{
closed = 1;
nodes = (
"165 0 LINE",
"183 84 LINE",
"173 71 LINE",
"198 22 OFFCURVE",
"251 -10 OFFCURVE",
"319 -10 CURVE SMOOTH",
"465 -10 OFFCURVE",
"579 104 OFFCURVE",
"579 274 CURVE SMOOTH",
"579 414 OFFCURVE",
"504 516 OFFCURVE",
"367 516 CURVE SMOOTH",
"265 516 OFFCURVE",
"197 457 OFFCURVE",
"169 351 CURVE",
"197 329 LINE",
"206 508 LINE",
"206 740 LINE",
"60 740 LINE",
"60 0 LINE"
);
},
{
closed = 1;
nodes = (
"245 118 OFFCURVE",
"206 161 OFFCURVE",
"206 231 CURVE SMOOTH",
"206 325 OFFCURVE",
"261 389 OFFCURVE",
"333 389 CURVE SMOOTH",
"391 389 OFFCURVE",
"429 346 OFFCURVE",
"429 270 CURVE SMOOTH",
"429 181 OFFCURVE",
"382 118 OFFCURVE",
"306 118 CURVE SMOOTH"
);
}
);
};
layerId = "014D4A40-7C7F-4023-B30E-1F55CE5EA091";
paths = (
{
closed = 1;
nodes = (
"206 -200 LINE",
"206 0 LINE",
"202 90 LINE",
"173 71 LINE",
"198 22 OFFCURVE",
"251 -10 OFFCURVE",
"319 -10 CURVE SMOOTH",
"465 -10 OFFCURVE",
"579 104 OFFCURVE",
"579 274 CURVE SMOOTH",
"579 414 OFFCURVE",
"504 516 OFFCURVE",
"367 516 CURVE SMOOTH",
"265 516 OFFCURVE",
"197 457 OFFCURVE",
"169 351 CURVE",
"197 329 LINE",
"207 508 LINE",
"60 508 LINE",
"60 -200 LINE"
);
},
{
closed = 1;
nodes = (
"245 117 OFFCURVE",
"206 161 OFFCURVE",
"206 231 CURVE SMOOTH",
"206 325 OFFCURVE",
"263 389 OFFCURVE",
"335 389 CURVE SMOOTH",
"393 389 OFFCURVE",
"429 346 OFFCURVE",
"429 270 CURVE SMOOTH",
"429 181 OFFCURVE",
"382 117 OFFCURVE",
"306 117 CURVE SMOOTH"
);
}
);
width = 614;
}
);
leftKerningGroup = n;
leftMetricsKey = n;
note = p;
rightKerningGroup = o;
rightMetricsKey = o;
unicode = 0070;
},
{
color = 4;
glyphname = thorn;
lastChange = "2019-04-15 12:18:43 +0000";
layers = (
{
background = {
paths = (
{
closed = 1;
nodes = (
"152 -200 LINE",
"152 0 LINE",
"150 90 LINE",
"141 81 LINE",
"161 29 OFFCURVE",
"217 -8 OFFCURVE",
"286 -8 CURVE SMOOTH",
"429 -8 OFFCURVE",
"527 108 OFFCURVE",
"527 274 CURVE SMOOTH",
"527 411 OFFCURVE",
"457 507 OFFCURVE",
"331 507 CURVE SMOOTH",
"233 507 OFFCURVE",
"161 439 OFFCURVE",
"131 335 CURVE",
"148 320 LINE",
"153 498 LINE",
"74 498 LINE",
"74 -200 LINE"
);
},
{
closed = 1;
nodes = (
"202 63 OFFCURVE",
"151 121 OFFCURVE",
"151 216 CURVE SMOOTH",
"151 345 OFFCURVE",
"223 436 OFFCURVE",
"320 436 CURVE SMOOTH",
"398 436 OFFCURVE",
"446 374 OFFCURVE",
"446 269 CURVE SMOOTH",
"446 145 OFFCURVE",
"382 63 OFFCURVE",
"284 63 CURVE SMOOTH"
);
}
);
};
layerId = "A3B50665-EA37-4AC6-885C-1233CA61B6BD";
paths = (
{
closed = 1;
nodes = (
"152 -200 LINE",
"152 0 LINE",
"150 90 LINE",
"141 81 LINE",
"161 29 OFFCURVE",
"217 -8 OFFCURVE",
"286 -8 CURVE SMOOTH",
"429 -8 OFFCURVE",
"527 108 OFFCURVE",
"527 274 CURVE SMOOTH",
"527 411 OFFCURVE",
"457 507 OFFCURVE",
"331 507 CURVE SMOOTH",
"233 507 OFFCURVE",
"161 439 OFFCURVE",
"131 335 CURVE",
"148 320 LINE",
"152 499 LINE",
"152 740 LINE",
"74 740 LINE",
"74 -200 LINE"
);
},
{
closed = 1;
nodes = (
"202 63 OFFCURVE",
"151 121 OFFCURVE",
"151 216 CURVE SMOOTH",
"151 345 OFFCURVE",
"223 436 OFFCURVE",
"320 436 CURVE SMOOTH",
"398 436 OFFCURVE",
"446 374 OFFCURVE",
"446 269 CURVE SMOOTH",
"446 145 OFFCURVE",
"382 63 OFFCURVE",
"284 63 CURVE SMOOTH"
);
}
);
width = 579;
},
{
background = {
paths = (
{
closed = 1;
nodes = (
"206 -200 LINE",
"206 0 LINE",
"202 90 LINE",
"173 71 LINE",
"198 22 OFFCURVE",
"251 -10 OFFCURVE",
"319 -10 CURVE SMOOTH",
"465 -10 OFFCURVE",
"579 104 OFFCURVE",
"579 274 CURVE SMOOTH",
"579 414 OFFCURVE",
"504 516 OFFCURVE",
"367 516 CURVE SMOOTH",
"265 516 OFFCURVE",
"197 457 OFFCURVE",
"169 351 CURVE",
"197 329 LINE",
"207 508 LINE",
"60 508 LINE",
"60 -200 LINE"
);
},
{
closed = 1;
nodes = (
"245 117 OFFCURVE",
"206 161 OFFCURVE",
"206 231 CURVE SMOOTH",
"206 325 OFFCURVE",
"263 389 OFFCURVE",
"335 389 CURVE SMOOTH",
"393 389 OFFCURVE",
"429 346 OFFCURVE",
"429 270 CURVE SMOOTH",
"429 181 OFFCURVE",
"382 117 OFFCURVE",
"306 117 CURVE SMOOTH"
);
}
);
};
layerId = "014D4A40-7C7F-4023-B30E-1F55CE5EA091";
paths = (
{
closed = 1;
nodes = (
"206 -200 LINE",
"206 0 LINE",
"202 90 LINE",
"173 71 LINE",
"198 22 OFFCURVE",
"251 -10 OFFCURVE",
"319 -10 CURVE SMOOTH",
"465 -10 OFFCURVE",
"579 104 OFFCURVE",
"579 274 CURVE SMOOTH",
"579 414 OFFCURVE",
"504 516 OFFCURVE",
"367 516 CURVE SMOOTH",
"265 516 OFFCURVE",
"197 457 OFFCURVE",
"169 351 CURVE",
"197 329 LINE",
"206 508 LINE",
"206 740 LINE",
"60 740 LINE",
"60 -200 LINE"
);
},
{
closed = 1;
nodes = (
"245 117 OFFCURVE",
"206 161 OFFCURVE",
"206 231 CURVE SMOOTH",
"206 325 OFFCURVE",
"263 389 OFFCURVE",
"335 389 CURVE SMOOTH",
"393 389 OFFCURVE",
"429 346 OFFCURVE",
"429 270 CURVE SMOOTH",
"429 181 OFFCURVE",
"382 117 OFFCURVE",
"306 117 CURVE SMOOTH"
);
}
);
width = 614;
}
);
leftKerningGroup = h;
leftMetricsKey = n;
widthMetricsKey = p;
rightKerningGroup = o;
unicode = 00FE;
},
{
color = 4;
glyphname = q;
lastChange = "2019-04-15 12:07:51 +0000";
layers = (
{
anchors = (
{
name = bottom;
position = "{250, 0}";
},
{
name = top;
position = "{310, 498}";
}
);
background = {
paths = (
{
closed = 1;
nodes = (
"446 498 LINE",
"434 416 LINE",
"439 418 LINE",
"418 470 OFFCURVE",
"362 507 OFFCURVE",
"293 507 CURVE SMOOTH",
"150 507 OFFCURVE",
"52 391 OFFCURVE",
"52 225 CURVE SMOOTH",
"52 88 OFFCURVE",
"122 -8 OFFCURVE",
"248 -8 CURVE SMOOTH",
"344 -8 OFFCURVE",
"418 60 OFFCURVE",
"448 164 CURVE",
"430 178 LINE",
"425 0 LINE",
"505 0 LINE",
"505 498 LINE"
);
},
{
closed = 1;
nodes = (
"377 436 OFFCURVE",
"428 379 OFFCURVE",
"428 284 CURVE SMOOTH",
"428 155 OFFCURVE",
"356 63 OFFCURVE",
"259 63 CURVE SMOOTH",
"181 63 OFFCURVE",
"133 126 OFFCURVE",
"133 231 CURVE SMOOTH",
"133 355 OFFCURVE",
"197 436 OFFCURVE",
"295 436 CURVE SMOOTH"
);
}
);
};
layerId = "A3B50665-EA37-4AC6-885C-1233CA61B6BD";
paths = (
{
closed = 1;
nodes = (
"446 498 LINE",
"434 416 LINE",
"439 418 LINE",
"418 470 OFFCURVE",
"362 507 OFFCURVE",
"293 507 CURVE SMOOTH",
"150 507 OFFCURVE",
"52 391 OFFCURVE",
"52 225 CURVE SMOOTH",
"52 88 OFFCURVE",
"122 -8 OFFCURVE",
"248 -8 CURVE SMOOTH",
"344 -8 OFFCURVE",
"418 60 OFFCURVE",
"448 164 CURVE",
"432 178 LINE",
"427 0 LINE",
"427 -200 LINE",
"505 -200 LINE",
"505 498 LINE"
);
},
{
closed = 1;
nodes = (
"377 436 OFFCURVE",
"428 379 OFFCURVE",
"428 284 CURVE SMOOTH",
"428 155 OFFCURVE",
"356 63 OFFCURVE",
"259 63 CURVE SMOOTH",
"181 63 OFFCURVE",
"133 126 OFFCURVE",
"133 231 CURVE SMOOTH",
"133 355 OFFCURVE",
"197 436 OFFCURVE",
"295 436 CURVE SMOOTH"
);
}
);
width = 579;
},
{
anchors = (
{
name = bottom;
position = "{247, 0}";
},
{
name = top;
position = "{320, 508}";
}
);
background = {
paths = (
{
closed = 1;
nodes = (
"449 506 LINE",
"431 422 LINE",
"441 435 LINE",
"416 484 OFFCURVE",
"363 516 OFFCURVE",
"295 516 CURVE SMOOTH",
"149 516 OFFCURVE",
"35 402 OFFCURVE",
"35 232 CURVE SMOOTH",
"35 92 OFFCURVE",
"110 -10 OFFCURVE",
"247 -10 CURVE SMOOTH",
"348 -10 OFFCURVE",
"417 49 OFFCURVE",
"445 155 CURVE",
"417 179 LINE",
"407 0 LINE",
"554 0 LINE",
"554 506 LINE"
);
},
{
closed = 1;
nodes = (
"369 389 OFFCURVE",
"408 346 OFFCURVE",
"408 276 CURVE SMOOTH",
"408 182 OFFCURVE",
"351 117 OFFCURVE",
"279 117 CURVE SMOOTH",
"221 117 OFFCURVE",
"185 161 OFFCURVE",
"185 237 CURVE SMOOTH",
"185 326 OFFCURVE",
"232 389 OFFCURVE",
"308 389 CURVE SMOOTH"
);
}
);
};
layerId = "014D4A40-7C7F-4023-B30E-1F55CE5EA091";
paths = (
{
closed = 1;
nodes = (
"449 506 LINE",
"431 424 LINE",
"441 435 LINE",
"416 484 OFFCURVE",
"363 516 OFFCURVE",
"295 516 CURVE SMOOTH",
"149 516 OFFCURVE",
"35 402 OFFCURVE",
"35 232 CURVE SMOOTH",
"35 92 OFFCURVE",
"110 -10 OFFCURVE",
"247 -10 CURVE SMOOTH",
"348 -10 OFFCURVE",
"417 49 OFFCURVE",
"445 155 CURVE",
"417 179 LINE",
"408 0 LINE",
"408 -200 LINE",
"554 -200 LINE",
"554 506 LINE"
);
},
{
closed = 1;
nodes = (
"369 389 OFFCURVE",
"408 346 OFFCURVE",
"408 276 CURVE SMOOTH",
"408 182 OFFCURVE",
"351 117 OFFCURVE",
"279 117 CURVE SMOOTH",
"221 117 OFFCURVE",
"185 161 OFFCURVE",
"185 237 CURVE SMOOTH",
"185 326 OFFCURVE",
"232 389 OFFCURVE",
"308 389 CURVE SMOOTH"
);
}
);
width = 614;
}
);
leftKerningGroup = o;
leftMetricsKey = o;
note = q;
rightKerningGroup = u;
rightMetricsKey = "=|n";
unicode = 0071;
},
{
color = 4;
glyphname = r;
lastChange = "2019-04-17 07:51:15 +0000";
layers = (
{
anchors = (
{
name = bottom;
position = "{114, 0}";
},
{
name = top;
position = "{223, 498}";
}
);
background = {
anchors = (
{
name = bottom;
position = "{114, 0}";
},
{
name = top;
position = "{223, 498}";
}
);
paths = (
{
closed = 1;
nodes = (
"371 500 LINE",
"360 505 OFFCURVE",
"342 507 OFFCURVE",
"322 507 CURVE SMOOTH",
"238 507 OFFCURVE",
"158 440 OFFCURVE",
"137 274 CURVE",
"146 290 LINE",
"152 498 LINE",
"74 498 LINE",
"75 320 LINE",
"75 0 LINE",
"152 0 LINE",
"152 302 OFFCURVE",
"202 429 OFFCURVE",
"319 429 CURVE SMOOTH",
"334 429 OFFCURVE",
"346 428 OFFCURVE",
"360 424 CURVE"
);
}
);
};
layerId = "A3B50665-EA37-4AC6-885C-1233CA61B6BD";
paths = (
{
closed = 1;
nodes = (
"372 500 LINE",
"361 505 OFFCURVE",
"343 507 OFFCURVE",
"322 507 CURVE SMOOTH",
"240 507 OFFCURVE",
"163 444 OFFCURVE",
"137 274 CURVE",
"146 290 LINE",
"152 498 LINE",
"74 498 LINE",
"75 320 LINE",
"75 0 LINE",
"152 0 LINE",
"152 302 OFFCURVE",
"202 429 OFFCURVE",
"318 429 CURVE SMOOTH",
"335 429 OFFCURVE",
"347 428 OFFCURVE",
"361 424 CURVE"
);
}
);
width = 364;
},
{
anchors = (
{
name = bottom;
position = "{134, 0}";
},
{
name = top;
position = "{245, 508}";
}
);
background = {
anchors = (
{
name = bottom;
position = "{134, 0}";
},
{
name = top;
position = "{245, 508}";
}
);
paths = (
{
closed = 1;
nodes = (
"429 508 LINE",
"412 515 OFFCURVE",
"393 516 OFFCURVE",
"374 516 CURVE SMOOTH",
"290 516 OFFCURVE",
"202 455 OFFCURVE",
"176 279 CURVE",
"195 289 LINE",
"205 508 LINE",
"60 508 LINE",
"61 329 LINE",
"61 0 LINE",
"206 0 LINE",
"206 273 OFFCURVE",
"246 375 OFFCURVE",
"354 375 CURVE SMOOTH",
"373 375 OFFCURVE",
"391 372 OFFCURVE",
"404 366 CURVE"
);
}
);
};
layerId = "014D4A40-7C7F-4023-B30E-1F55CE5EA091";
paths = (
{
closed = 1;
nodes = (
"429 507 LINE",
"410 514 OFFCURVE",
"391 516 OFFCURVE",
"369 516 CURVE SMOOTH",
"279 516 OFFCURVE",
"196 453 OFFCURVE",
"176 279 CURVE",
"195 289 LINE",
"205 508 LINE",
"60 508 LINE",
"61 329 LINE",
"61 0 LINE",
"206 0 LINE",
"206 273 OFFCURVE",
"246 375 OFFCURVE",
"349 375 CURVE SMOOTH",
"373 375 OFFCURVE",
"391 372 OFFCURVE",
"404 367 CURVE"
);
}
);
width = 400;
}
);
leftKerningGroup = n;
leftMetricsKey = n;
note = r;
rightKerningGroup = r;
unicode = 0072;
},
{
color = 9;
glyphname = s;
lastChange = "2019-04-17 15:14:07 +0000";
layers = (
{
anchors = (
{
name = bottom;
position = "{235, 0}";
},
{
name = top;
position = "{235, 498}";
}
);
background = {
paths = (
{
closed = 1;
nodes = (
"347 -8 OFFCURVE",
"423 55 OFFCURVE",
"422 140 CURVE SMOOTH",
"420 322 OFFCURVE",
"136 233 OFFCURVE",
"136 358 CURVE SMOOTH",
"136 406 OFFCURVE",
"176 439 OFFCURVE",
"239 439 CURVE SMOOTH",
"299 439 OFFCURVE",
"334 411 OFFCURVE",
"344 362 CURVE",
"411 379 LINE",
"398 458 OFFCURVE",
"334 506 OFFCURVE",
"240 506 CURVE SMOOTH",
"136 506 OFFCURVE",
"59 441 OFFCURVE",
"59 355 CURVE SMOOTH",
"59 161 OFFCURVE",
"345 250 OFFCURVE",
"345 134 CURVE SMOOTH",
"345 90 OFFCURVE",
"307 59 OFFCURVE",
"236 59 CURVE SMOOTH",
"150 59 OFFCURVE",
"108 91 OFFCURVE",
"99 156 CURVE",
"31 140 LINE",
"41 45 OFFCURVE",
"110 -8 OFFCURVE",
"236 -8 CURVE SMOOTH"
);
}
);
};
layerId = "A3B50665-EA37-4AC6-885C-1233CA61B6BD";
paths = (
{
closed = 1;
nodes = (
"347 -8 OFFCURVE",
"423 55 OFFCURVE",
"422 140 CURVE SMOOTH",
"420 318 OFFCURVE",
"136 232 OFFCURVE",
"136 358 CURVE SMOOTH",
"136 409 OFFCURVE",
"176 442 OFFCURVE",
"239 442 CURVE SMOOTH",
"300 442 OFFCURVE",
"335 414 OFFCURVE",
"345 362 CURVE",
"411 379 LINE",
"398 458 OFFCURVE",
"334 506 OFFCURVE",
"240 506 CURVE SMOOTH",
"136 506 OFFCURVE",
"59 441 OFFCURVE",
"59 355 CURVE SMOOTH",
"59 163 OFFCURVE",
"345 251 OFFCURVE",
"345 134 CURVE SMOOTH",
"345 87 OFFCURVE",
"307 56 OFFCURVE",
"236 56 CURVE SMOOTH",
"150 56 OFFCURVE",
"108 88 OFFCURVE",
"99 156 CURVE",
"31 140 LINE",
"41 45 OFFCURVE",
"110 -8 OFFCURVE",
"236 -8 CURVE SMOOTH"
);
}
);
width = 454;
},
{
anchors = (
{
name = bottom;
position = "{255, 0}";
},
{
name = top;
position = "{255, 508}";
}
);
background = {
paths = (
{
closed = 1;
nodes = (
"371 -10 OFFCURVE",
"463 54 OFFCURVE",
"463 152 CURVE SMOOTH",
"463 342 OFFCURVE",
"184 282 OFFCURVE",
"184 361 CURVE SMOOTH",
"184 384 OFFCURVE",
"205 404 OFFCURVE",
"252 404 CURVE SMOOTH",
"301 404 OFFCURVE",
"329 382 OFFCURVE",
"338 349 CURVE",
"453 382 LINE",
"441 458 OFFCURVE",
"366 516 OFFCURVE",
"256 516 CURVE SMOOTH",
"130 516 OFFCURVE",
"42 445 OFFCURVE",
"42 349 CURVE SMOOTH",
"42 159 OFFCURVE",
"321 221 OFFCURVE",
"321 142 CURVE SMOOTH",
"321 117 OFFCURVE",
"295 102 OFFCURVE",
"242 102 CURVE SMOOTH",
"178 102 OFFCURVE",
"142 129 OFFCURVE",
"134 171 CURVE",
"13 141 LINE",
"26 48 OFFCURVE",
"99 -10 OFFCURVE",
"245 -10 CURVE SMOOTH"
);
}
);
};
layerId = "014D4A40-7C7F-4023-B30E-1F55CE5EA091";
paths = (
{
closed = 1;
nodes = (
"371 -10 OFFCURVE",
"463 54 OFFCURVE",
"463 152 CURVE SMOOTH",
"463 342 OFFCURVE",
"184 282 OFFCURVE",
"184 361 CURVE SMOOTH",
"184 383 OFFCURVE",
"205 402 OFFCURVE",
"252 402 CURVE SMOOTH",
"299 402 OFFCURVE",
"327 381 OFFCURVE",
"336 349 CURVE",
"455 382 LINE",
"442 458 OFFCURVE",
"366 516 OFFCURVE",
"256 516 CURVE SMOOTH",
"130 516 OFFCURVE",
"42 445 OFFCURVE",
"42 349 CURVE SMOOTH",
"42 158 OFFCURVE",
"321 220 OFFCURVE",
"321 142 CURVE SMOOTH",
"321 118 OFFCURVE",
"295 104 OFFCURVE",
"242 104 CURVE SMOOTH",
"178 104 OFFCURVE",
"142 130 OFFCURVE",
"134 171 CURVE",
"13 141 LINE",
"26 48 OFFCURVE",
"99 -10 OFFCURVE",
"245 -10 CURVE SMOOTH"
);
}
);
width = 482;
}
);
leftKerningGroup = s;
note = s;
rightKerningGroup = s;
unicode = 0073;
},
